<svg viewBox="0 0 1e3 320.12" xmlns="http://www.w3.org/2000/svg">
<g transform="translate(-277.25 -30.797)">
<path d="m466.34 30.818c-14.038 0-22.216 10.825-22.216 26.332v118.64c0 15.162 8.1779 26.148 22.216 26.148 13.772 0 22.314-10.986 22.314-26.148v-118.64c0-15.507-8.543-26.332-22.314-26.332" fill="#1756c2"/>
<path d="m570.74 77.801h-10.467v-6.5076c0-7.3017 4.2532-10.378 15.506-9.0997 11.975 1.1135 14.666-6.5076 14.666-12.596 0-4.7096-1.3782-7.1009-5.0108-11.318-7.758-7.6941-27.391-7.466-27.391-7.466s-17.796-0.82144-29.864 8.762c-12.019 9.3279-10.97 26.313-10.97 26.313v11.91h-1.9258c-7.9862 0-16.467 4.9743-16.467 15.178 0 10.278 9.6209 14.989 17.342 14.989h1.0496v70.807c0 12.177 7.466 23.164 22.188 23.164 15.024 0 20.875-10.641 20.875-22.477v-71.494h10.467c5.7866 0 17.279-2.8203 17.279-14.393 0-12.014-9.0632-15.774-17.279-15.774" fill="#1756c2"/>
<path d="m696.32 73.879c-7.2013 0-12.96 3.2401-16.731 8.1505-6.9275-4.81-16.054-8.1505-26.695-8.1505-45.345 0-65.434 34.089-65.434 67.002 0 35.238 24.407 62.5 65.434 62.5 9.7204 0 19.084-3.2401 26.64-8.2144 3.6965 5.0382 9.4922 8.2144 16.786 8.2144 14.102 0 22.142-10.869 22.142-26.212v-76.986c0-15.079-8.041-26.303-22.142-26.303zm-64.819 65.302c0-28.038 13.607-33.01 22.742-33.01h1.1409c10.503 0.82144 18.775 7.8219 18.775 34.224 0 25.978-8.9628 31.181-18.257 31.699h-1.4056c-10.432 0-22.999-4.9743-22.999-32.913" fill="#1756c2"/>
<path d="m426.94 168.23c-2.3092-6.9366-39.778-113.76-41.639-118.8-2.0627-5.0655-3.9612-8.7346-8.4882-11.9-7.4842-5.6771-23.511-5.3394-23.511-5.3394s-15.81-0.36508-23.431 5.3394c-4.454 3.1671-6.3525 6.8362-8.3148 11.9-1.8984 5.0382-39.365 111.86-41.948 118.8-2.0992 6.7814-3.9155 15.088 0 21.859 4.2989 6.3433 11.389 11.846 20.552 11.846 9.2923 0 17.535-4.0342 21.132-15.349 3.5048-11.575 5.3394-17.233 5.3394-17.233h53.485s1.7433 5.6588 5.2755 17.233c3.5322 11.318 11.975 15.349 21.013 15.349 9.5077 0 16.775-5.5036 20.536-11.846 4.0707-6.7723 2.4917-15.078 0-21.859zm-90.233-35.67 16.596-54.177 16.646 54.177z" fill="#1756c2"/>
<path d="m1219 330.59h-941.72v20.327h941.72c28.897 0 53.102-21.242 57.519-48.758-12.95 17.313-34.024 28.431-57.519 28.431" fill="#efcf00"/>
<path d="m1277.2 258.35v-16.292h-941.54c-32.144 0-58.414 26.292-58.414 58.465v16.293h941.72c32.201 0 58.24-26.333 58.24-58.466" fill="#d60f27"/>
<path d="m910.89 72.562c-23.824 0-46.987 31.899-55.201 44.241 0.36509-2.8112 0.9766-7.1009 2.2909-12.004 1.7342-8.1231 3.2401-19.631-2.2909-26.412-3.2401-3.9247-8.0136-5.8231-14.422-5.8231-22.059 0-43.855 28.142-53.173 41.913 1.1044-4.0251 2.4187-9.0632 3.304-11.974 1.4421-6.7723 4.2897-17.332-0.27381-23.486-2.7199-3.7969-7.2013-5.5036-13.553-5.5036-10.378 0-21.923 4.8739-22.407 4.8739l-2.3548 1.0587 2.154 1.2687s3.1762 3.1762 0.73017 19.988c-4.1893 29.552-13.836 64.783-17.596 78.758-2.1631 7.1283-1.8346 12.95 1.0131 16.81 3.0028 3.9338 8.47 6.1882 15.291 6.1882 9.5086 0 18.154-3.1762 18.637-3.6326l1.4056-0.36509-1.1135-1.433c0-0.0913-4.9652-7.466 1.579-21.795 22.05-49.051 39.878-68.583 44.859-71.915 1.1774-0.54762 1.8619-1.2048 2.7108-1.2048 0.54763 0 0.82144 0.36508 0.82144 0.63889 0.54763 0.27382 0.6389 1.4786 0.54763 2.583-1.798 17.049-8.9993 45.519-13.633 64.557-0.99485 4.3536-2.0627 7.8949-2.6286 10.87-1.6976 7.2926-1.1318 12.95 1.6338 16.711 2.7564 3.1123 7.2104 4.9104 13.516 4.9104 9.8856 0 18.628-3.6326 18.984-3.6965l1.798-0.73017-1.3417-1.2139c0-0.45635-4.7735-6.681 1.9258-21.849 16.298-37.731 38.313-67.211 44.037-71.5 1.9349-1.3599 2.9207-1.5334 3.5048-1.5334 0.18255 0 0.27382 0 0.6389 0.54762 0.45636 0.45636 0.6389 2.0718 0.45636 4.025-0.0913 0.73017-0.73017 3.0758-1.2413 6.5715-3.2675 13.059-9.0632 40.058-12.239 58.842-1.8984 11.217-0.9766 19.621 3.1762 24.406 3.3679 3.8608 8.6434 6.1152 15.052 6.1152 11.189 0 21.531-6.9731 21.985-7.2287l1.6338-1.1135-1.4968-1.0131s-7.9223-7.466-4.0342-29.481c2.7564-14.759 6.316-31.735 8.9993-44.077 1.2778-6.1882 2.0992-11.327 2.7838-14.138l0.18255-1.1044c1.433-6.7723 3.5961-19.139-2.2635-26.148-3.1032-4.0524-7.7854-5.5949-14.292-5.5949" fill="#d60f27"/>
<path d="m1050.1 73.879c-6.7632 0-12.267 1.8072-16.028 5.458-2.7564-1.6976-12.148-6.7723-24.477-6.7723-7.037 0-17.381 1.3143-28.989 8.6707-12.888 7.9862-23.759 20.745-32.62 38.216-20.053 39.101-10.441 67.658-5.4032 74.668 4.3901 6.0878 10.468 8.835 19.238 8.835 12.403 0 28.895-4.8739 54.052-44.402-0.7301 5.5675-1.5607 13.389-1.5607 20.06 0 21.531 15.168 23.849 21.421 23.849 16.2 0 21.85-7.5572 21.895-7.8128l0.6389-0.82144-0.6389-0.82144c-0.1825-0.27381-7.5481-7.7945-2.7016-47.843 4.6731-38.152 17.916-64.455 17.916-64.777l0.6389-1.0587-1.1226-0.73017c-0.4564-0.18254-11.382-4.7096-22.243-4.7096zm-69.986 99.757c-3.304 0-5.0655-5.6588-5.0655-11.582 0-6.4164 3.2036-43.355 18.839-62.301 3.4683-3.6873 7.5937-6.0148 11.711-6.0148 10.013 0 19.377 10.722 21.695 13.481-12.139 24.671-29.188 50.226-41.32 62.749-2.227 2.4917-4.381 3.6691-5.8596 3.6691" fill="#d60f27"/>
<path d="m1174.4 72.562c-17.516 0-38.545 28.989-47.444 42.435 1.4695-5.814 3.6326-14.386 5.2937-22.281 1.15-5.9144 0.3651-10.533-1.9258-13.636-3.012-3.3953-7.9771-5.2024-14.921-5.2024-9.9394 0-21.943 4.3445-22.371 4.5088l-1.7433 0.73017 1.5425 1.3143c0 0.18254 3.2401 4.7735 1.2413 20.903-2.7838 17.571-13.964 61.38-18.681 79.115-2.1631 7.1283-1.6337 12.329 0.9857 16.025 3.9886 5.4032 11.746 6.0239 17.084 6.0239 9.0815 0 18.118-3.1762 18.511-3.6326l1.7342-0.36508-1.0405-1.433c-0.065-0.0913-4.3263-6.8818 0.6389-19.998 13.378-33.769 28.248-53.494 37.174-60.265 2.0628-1.4421 4.162-2.3274 6.2247-2.3274 4.9013 0 8.0136 5.5036 8.0136 5.5036l0.7302 1.3782 1.0861-1.1135c4.6731-4.6457 13.015-14.506 16.055-23.402 2.0992-5.3302 4.8191-14.814 0.7302-20.317-1.6977-2.7473-4.737-3.9612-8.9263-3.9612" fill="#d60f27"/>
<path d="m1275.5 88.436c-4.9104 1.6976-16.978 2.8111-33.177 2.8111h-4.3445c0.7301-4.1893 3.6599-16.028 6.8362-27.253 1.9988-6.7723 1.7706-12.332-1.0861-15.929-2.8112-3.4409-7.4204-4.9834-14.422-4.9834-9.8207 0-23.956 4.3901-24.506 4.6457l-2.0993 0.6389 1.8072 1.6429c5.4215 5.5493-0.4564 32.292-2.9846 42.232-0.2738 0.54763-14.065 53.594-14.065 78.947 0 21.267 11.646 31.809 33.96 31.809 10.407 0 25.585-2.8111 35.788-11.655 4.454-3.8516 6.4163-9.3544 5.2389-15.178-0.6389-4.1802-2.7107-7.4568-2.7107-7.6211l-0.7302-1.5425-1.3052 1.2139c-0.1825 0-4.7735 4.5179-13.948 7.6211-3.4592 1.0131-6.1791 1.7068-8.9902 1.7068-2.9481 0-5.4306-1.2139-7.758-3.1762-5.166-5.3028-1.8346-24.242-0.7302-30.33 1.7341-9.6181 5.9782-27.517 6.9001-31.999 1.6063 0 4.9742-0.0648 9.2923-0.0648 3.7056 0 6.8727 0.0648 9.975 0.0648 19.203 0.36509 24.58-14.558 24.77-22.443v-1.9715z" fill="#d60f27"/>
</g>
</svg>
