<svg xmlns="http://www.w3.org/2000/svg" viewBox="0 0 126.43 79.39"><path d="M39.42,37.87V36.62l-.6,1.25h-5.2L33,36.53v1.34h-9.7l-1.15-2.71H20.17L19,37.87h-5V29.68l3.7-8.35h7.06l1,2.36V21.35h8.64l1.9,4,1.86-4H65.34a4.66,4.66,0,0,1,2.37.64v-.64h6.87v.9a5.62,5.62,0,0,1,3.06-.9H89.77l1.06,2.4v-2.4H98.6l1.41,2.4v-2.4h7.43V37.89H99.81L98,35v2.87H88.53l-1.33-3H85.34l-1.25,3H78.35A7.51,7.51,0,0,1,74.6,36.7v1.17H63.17V34c0-.56-.43-.52-.43-.52h-.41v4.38Z" fill="#fff"/><path d="M33.72,41.46h15l2.17,2.45,2.21-2.45H64.66a5.21,5.21,0,0,1,2.11.57v-.57H77.05a5.29,5.29,0,0,1,2.41.65v-.65H92.67v.6a4.49,4.49,0,0,1,2.21-.6h8.61v.6a5.25,5.25,0,0,1,2.23-.6h6.76v15.6a3.73,3.73,0,0,1-2.73,1h-8.91v-.5a4.56,4.56,0,0,1-2.14.5H75V54c0-.39-.17-.47-.52-.47h-.33v4.51h-7.4V53.59a5,5,0,0,1-2.19.44H61.92v4H52.8l-2.07-2.53-2.22,2.53H33.72Z" fill="#fff"/><polygon points="81.04 43.95 90.47 43.95 90.47 46.48 83.93 46.48 83.93 48.68 90.28 48.68 90.28 50.9 83.93 50.9 83.93 53.22 90.47 53.22 90.47 55.69 81.04 55.69 81.04 43.95" fill="#0078a9"/><path d="M108.67,48.52c3.54.18,3.84,1.95,3.84,3.84a3.43,3.43,0,0,1-3.7,3.38h-6V53.22h4.72c.8,0,2,0,2-1.12,0-.54-.21-.88-1.06-1-.38-.06-1.78-.13-2-.14-3.2-.08-3.94-1.67-3.94-3.61A3.24,3.24,0,0,1,105.9,44H112v2.52h-4.43c-1,0-2.1-.12-2.1,1,0,.72.54.87,1.22.93Z" fill="#0078a9"/><path d="M97.82,48.52c3.54.18,3.84,1.95,3.84,3.84A3.43,3.43,0,0,1,98,55.74h-6V53.22h4.71c.8,0,2,0,2-1.12,0-.54-.21-.88-1.06-1-.38-.06-1.79-.13-2-.14-3.2-.08-3.94-1.67-3.94-3.61A3.24,3.24,0,0,1,95.05,44h6.06v2.52H96.68c-1,0-2.1-.12-2.1,1,0,.72.54.87,1.22.93Z" fill="#0078a9"/><path d="M63.64,44H53.52l-3.3,3.65L47,44H35.67V55.69h11l3.46-3.88,3.38,3.9H59v-4h3.88c1.49,0,4.22,0,4.22-4.17A3.26,3.26,0,0,0,63.64,44ZM45.15,53.22H38.51V50.9h6.35V48.68H38.51V46.47l7,0,2.8,3.2Zm11,1.37L52,49.69l4.14-4.59Zm6.5-5.28H59.08V46.49h3.6a1.42,1.42,0,1,1,0,2.82Z" fill="#0078a9"/><path d="M77.56,50.37a3.21,3.21,0,0,0,2-3.25c0-2.52-2-3.15-3.46-3.15H68.6V55.71h2.89V51.57h3.77c1,0,1.39,1,1.41,2l.08,2.15h2.81l-.11-2.41C79.45,51.41,78.93,50.52,77.56,50.37Zm-2.48-1.22H71.49V46.49h3.6a1.38,1.38,0,0,1,1.58,1.35C76.67,48.63,76.25,49.15,75.08,49.15Z" fill="#0078a9"/><rect x="69.76" y="23.68" width="2.88" height="11.75" fill="#0078a9"/><polygon points="46.16 23.69 55.58 23.69 55.58 26.22 49.05 26.22 49.05 28.42 55.4 28.42 55.4 30.65 49.05 30.65 49.05 32.97 55.58 32.97 55.58 35.43 46.16 35.43 46.16 23.69" fill="#0078a9"/><path d="M66.26,30.09a3.22,3.22,0,0,0,2-3.25c0-2.52-2-3.15-3.46-3.15h-7.5V35.43h2.89V31.29H64c1,0,1.39,1,1.41,2l.08,2.15h2.81L68.14,33C68.14,31.13,67.62,30.24,66.26,30.09Zm-2.49-1.22H60.18V26.21h3.6a1.38,1.38,0,0,1,1.58,1.35C65.36,28.35,65,28.87,63.77,28.87Z" fill="#0078a9"/><path d="M39.51,23.69,36,31.57l-3.53-7.88H27.93V35l-5-11.31H19.09L14,35.43h3l1.12-2.62h5.76L25,35.43h5.8V26.72l3.85,8.71h2.63l3.94-8.57v8.57h2.88V23.69ZM19.2,30.28l1.72-4.1,1.79,4.1Z" fill="#0078a9"/><path d="M102.39,23.69v8.13l-4.86-8.13H93.27v11l-4.92-11H84.54l-4,9.1s-1.68,0-1.85,0c-.69-.15-1.78-.64-1.79-2.71v-.85c0-2.75,1.49-3,3.41-3h1.78V23.69H78.35c-1.31,0-4.16,1-4.25,5.82-.07,3.25,1.35,5.93,4.54,5.93h3.8l1.13-2.62h5.75l1.14,2.62h5.69v-8.6l5.19,8.6h3.93V23.69Zm-17.71,6.6,1.72-4.11,1.81,4.11Z" fill="#0078a9"/></svg>