<svg version="1.1" viewBox="0 0 248.1 68.7" xmlns="http://www.w3.org/2000/svg">
<style type="text/css">
.st0{fill-rule:evenodd;clip-rule:evenodd;fill:#349839;}
</style>
<polygon class="st0" points="148 2.3 147.2 1.1 146 0.3 144.6 0 143.2 0.3 142 1.1 141.2 2.3 140.9 3.8 140.9 52.4 141.2 53.9 142 55.1 143.2 55.9 144.6 56.2 146 55.9 147.2 55.1 148 53.9 148.3 52.4 148.3 3.8"/>
<polygon class="st0" points="247.7 28.8 246.6 25.7 246 24.7 244.8 22.8 244.4 22.4 242.5 20.5 239.7 18.7 236.5 17.6 233.1 17.2 229.8 17.5 226.8 18.6 224 20.2 221.8 22.4 219.5 20.2 216.7 18.6 213.7 17.5 210.4 17.2 207 17.6 203.8 18.7 201 20.5 198.7 22.8 196.9 25.7 195.8 28.8 195.4 32.3 195.4 52.4 195.7 53.9 196.5 55 197.6 55.9 199.1 56.1 200.5 55.9 201.7 55 202.5 53.9 202.8 52.4 202.8 32.3 203.4 29.4 207.5 25.3 210.4 24.7 213.4 25.3 215.8 26.9 218 32.3 218 52.4 218.3 53.9 219.1 55 220.3 55.9 221.8 56.1 223.2 55.9 224.4 55 225.2 53.9 225.5 52.4 225.5 32.3 226.1 29.3 227.7 26.9 230.1 25.3 233.1 24.7 236 25.3 238.5 26.9 240.1 29.4 240.7 32.3 240.7 52.4 241 53.9 241.8 55 243 55.9 244.4 56.1 245.9 55.9 247 55 247.9 53.9 248.1 52.4 248.1 32.3"/>
<polygon class="st0" points="96.9 49.7 95.7 48.9 91.3 48 89 46.4 87.5 44 87 41 87 24.8 94.7 24.8 96.1 24.5 97.1 23.8 97.9 22.7 98.1 21.4 97.9 20 97.1 19 96.1 18.2 94.7 18 87 18 87 9.6 86.7 8.2 85.9 7 84.7 6.2 83.3 5.9 81.8 6.2 80.7 7 79.9 8.2 79.6 9.6 79.6 41 80.1 45 81.5 48.6 83.8 51.7 86.7 54 90.3 55.6 94.2 56.1 95.7 55.8 96.9 55 97.7 53.8 98 52.4 97.7 50.9"/>
<path class="st0" d="m190.6 33.3-0.2-2.1-1.2-3.5-1.9-3-0.9-1-1.5-1.6-2.8-2.1-3.1-1.6-3.3-1-3.3-0.3-3.9 0.4-3.6 1.1-3.3 1.8-2.8 2.4-2.3 2.9-1.8 3.3-1.1 3.6-0.4 3.9 0.3 3.6 0.9 3.4 1.4 3.1 1.9 2.7 2.3 2.3 2.7 1.9 3.1 1.4 3.4 0.9 3.6 0.3 4.1-0.4 3.5-0.9 2.8-1.1 2.7-1.6 1.1-2.6v-0.2l-0.2-1.1-0.7-1.1-1.1-0.8-1.4-0.3h-0.6l-0.7 0.2-2.4 1.3-2.1 0.9-2.4 0.6-2.6 0.2-4.1-0.6-3.6-1.8-2.7-2.9-1.6-3.9h25.3l1.8-0.4 1.5-1.1 1-1.6 0.4-1.9-0.2-1.7zm-29.8 0 1.4-3.9 2.7-3 3.5-2 4-0.7 4.1 0.9 3.4 2.2 2.5 3.1 1.3 3.4h-22.9z"/>
<path class="st0" d="m74.8 33.3-0.2-2.1-1.2-3.5-1.8-3-0.9-1-1.5-1.6-2.8-2.1-3.1-1.6-3.3-1-3.3-0.3-3.9 0.4-3.6 1.1-3.3 1.8-2.8 2.4-2.4 2.9-1.7 3.3-1.1 3.6-0.4 3.9 0.3 3.6 0.9 3.4 1.4 3.1 1.9 2.7 2.3 2.3 2.7 1.9 3 1.5 3.4 0.9 3.6 0.3 4.1-0.4 3.5-0.9 2.8-1.1 2.7-1.6 1.1-2.6v-0.2l-0.2-1.1-0.7-1.1-1.1-0.8-1.4-0.3h-0.6l-0.7 0.2-2.4 1.3-2.1 1-2.4 0.6-2.6 0.2-4.1-0.6-3.6-1.8-2.7-3-1.6-3.9h25.3l1.8-0.4 1.5-1.1 1-1.6 0.4-1.9-0.2-1.8zm-29.8 0 1.4-3.9 2.7-3 3.5-2 4-0.7 4.1 0.9 3.4 2.2 2.5 3.1 1.3 3.4h-22.9z"/>
<path class="st0" d="m136.5 33.3-0.2-2.1-1.2-3.5-1.9-3-0.9-1-1.5-1.6-2.8-2.1-3.1-1.6-3.3-1-3.3-0.3-3.9 0.4-3.6 1.1-3.3 1.8-2.8 2.4-2.4 2.9-1.8 3.3-1.1 3.6-0.4 4 0.3 3.6 0.9 3.4 1.4 3.1 1.9 2.7 2.3 2.3 2.7 1.9 3.1 1.4 3.4 0.9 3.6 0.3 4.2-0.4 3.5-0.9 2.8-1.1 2.7-1.6 1.1-2.6v-0.2l-0.2-1.1-0.7-1.1-1.1-0.8-1.4-0.3h-0.5l-0.7 0.2-2.4 1.3-2.1 0.9-2.4 0.6-2.6 0.2-4.1-0.6-3.6-1.8-2.7-2.9-1.6-3.9h25.2l1.8-0.4 1.5-1.1 1-1.6 0.4-1.9-0.2-1.8zm-29.9 0 1.4-3.9 2.7-3 3.5-2 4-0.7 4.1 0.9 3.4 2.2 2.5 3.1 1.3 3.4h-22.9z"/>
<polygon class="st0" points="33 45.1 31.7 44.3 30.3 44 28.9 44.3 27.7 45.1 24.6 47.4 21.1 48.5 17.5 48.5 14 47.4 10.9 45.1 8.7 42 7.6 38.5 7.6 34.8 8.7 31.3 10.9 28.2 14.8 25.6 19.3 24.7 21.6 24.9 23.9 25.6 25.9 26.7 27.7 28.2 28.9 29 30.3 29.3 31.7 29 33 28.2 33.8 26.9 34.1 25.5 33.9 24.7 33.8 24.1 33 22.9 30 20.4 26.7 18.6 23.1 17.5 19.3 17.2 15.5 17.5 11.9 18.6 8.6 20.4 5.7 22.9 3.2 25.9 1.4 29.3 0.4 32.9 0 36.7 0.4 40.4 1.4 44 3.2 47.4 5.7 50.4 8.7 52.9 12 54.7 15.6 55.8 19.3 56.1 23 55.8 26.6 54.7 29.9 52.9 33 50.4 33.9 48.5 34.1 47.8 33.8 46.4"/>
<polygon class="st0" points="34.5 64 33.8 62.9 32.7 62.2 31.4 61.9 5.7 61.9 4.4 62.2 3.3 62.9 2.5 64 2.3 65.3 2.5 66.7 3.3 67.7 4.4 68.5 5.7 68.7 31.4 68.7 32.7 68.5 33.8 67.7 34.5 66.7 34.8 65.3"/>
</svg>
