<svg viewBox="0 0 299.2 187.54" xmlns="http://www.w3.org/2000/svg">
<path transform="translate(2981.3 -699.22)" d="m-2981.3 793.55 148.34-1 0.517 94.187z" fill="#ea7514"/>
<path transform="translate(2981.3 -699.22)" d="m-2907.7 886.02-71.7-45.018 72.45-0.95z" fill="#d61c24"/>
<path transform="translate(2981.3 -699.22)" d="m-2682.187 793.246-.255 93.515-46.5-29.107c-25.575-16.009-92.818-58.13-149.43-93.603l-102.929-64.497 149.343-.253c82.139-.14 149.497-.1 149.685.088.188.188.227 42.424.087 93.857zm-174.723-28.192c5.599 0 10.342-.548 12.478-1.44 1.896-.792 4.354-2.93 5.464-4.75 1.432-2.347 2.02-5.055 2.02-9.31 0-3.715-.663-7.333-1.745-9.5-1-2.003-3.247-4.248-5.249-5.249-2.574-1.285-5.947-1.748-12.75-1.75l-9.25-.002v32h9.032zm3.246-7c-2.204 0-2.278-.296-2.278-9.125v-9.125l3.25.638c1.788.351 3.813 1.394 4.5 2.316.688.923 1.25 4.042 1.25 6.93 0 4.294-.405 5.536-2.222 6.81-1.223.855-3.248 1.556-4.5 1.556zm35.222 7h13.5v-7h-17v-6h15v-7l-14.982.258-.018-5.08 17-.178v-7h-27v32zm31 0h12.5v-8h-15v-24h-10v32zm27.5 0h5v-24h10v-8h-30v8h10v24zm23.447-.044 1.738-5.174 11.846-.227 2.848 5.445 8.115-.068-11.471-31.202-11.15-.045-11.4 31.112zm3.649-11.591 3.586-10.94 4.064 10.754z" fill="#0f0958"/>
</svg>
