<?xml version="1.0" encoding="UTF-8"?>
<svg viewBox="0 -9 58 58" xmlns="http://www.w3.org/2000/svg">
<rect x=".5" y=".5" width="57" height="39" rx="3.5" fill="#fff" stroke="#F3F3F3"/>
<path d="m8.8322 24.205c0-0.7844-0.40982-0.7329-0.80186-0.7411v-0.2268c0.33993 0.0165 0.68849 0.0165 1.0293 0.0165 0.36616 0 0.86329-0.0165 1.5092-0.0165 2.2588 0 3.4892 1.5083 3.4892 3.0529 0 0.8644-0.506 3.0358-3.5941 3.0358-0.4445 0-0.85501-0.0172-1.2648-0.0172-0.39222 0-0.7767 0.0081-1.1687 0.0172v-0.2269c0.52283-0.0528 0.77652-0.0699 0.80186-0.6629v-4.231zm0.85485 4.091c0 0.6719 0.48026 0.7501 0.90746 0.7501 1.8847 0 2.5032-1.4215 2.5032-2.7211 0-1.6311-1.0466-2.8085-2.7299-2.8085-0.3584 0-0.52337 0.0255-0.68076 0.0349v4.7446z" clip-rule="evenodd" fill="#1A1919" fill-rule="evenodd"/>
<path d="m14.364 29.099h0.1653c0.2442 0 0.4188 0 0.4188-0.2885v-2.3637c0-0.3832-0.1306-0.4362-0.4538-0.6102v-0.1392c0.41-0.1233 0.8989-0.2878 0.9334-0.3141 0.0614-0.035 0.113-0.0443 0.1574-0.0443 0.0427 0 0.0607 0.0524 0.0607 0.1229v3.3486c0 0.2885 0.1922 0.2885 0.4368 0.2885h0.1476v0.2269c-0.2966 0-0.6024-0.0172-0.9154-0.0172-0.314 0-0.6283 0.0081-0.9508 0.0172v-0.2269zm0.9332-5.1029c-0.2272 0-0.4274-0.2093-0.4274-0.436 0-0.2185 0.2097-0.4195 0.4274-0.4195 0.2264 0 0.4276 0.1838 0.4276 0.4195 0 0.2359-0.1924 0.436-0.4276 0.436z" clip-rule="evenodd" fill="#1A1919" fill-rule="evenodd"/>
<path d="m17.059 26.499c0-0.3221-0.0963-0.4093-0.5056-0.5753v-0.1656c0.3744-0.122 0.7318-0.2359 1.151-0.4194 0.0264 0 0.0517 0.0175 0.0517 0.0872v0.5672c0.498-0.357 0.9255-0.6544 1.5108-0.6544 0.7404 0 1.002 0.541 1.002 1.2214v2.2501c0 0.2886 0.1925 0.2886 0.4364 0.2886h0.1574v0.2269c-0.3063 0-0.6112-0.0172-0.9249-0.0172-0.3142 0-0.6285 8e-3 -0.9425 0.0172v-0.2269h0.1574c0.2443 0 0.418 0 0.418-0.2886v-2.2582c0-0.4978-0.3038-0.7418-0.8016-0.7418-0.2794 0-0.7243 0.2263-1.013 0.4191v2.5809c0 0.2886 0.1928 0.2886 0.4371 0.2886h0.1567v0.2269c-0.3051 0-0.6105-0.0172-0.9251-0.0172-0.3133 0-0.6277 8e-3 -0.9414 0.0172v-0.2269h0.1573c0.244 0 0.4183 0 0.4183-0.2886v-2.3112" clip-rule="evenodd" fill="#1A1919" fill-rule="evenodd"/>
<path d="m21.526 26.918c-0.0178 0.0785-0.0178 0.2091 0 0.5059 0.0514 0.8284 0.5847 1.5085 1.2818 1.5085 0.4804 0 0.8557-0.2618 1.1779-0.5839l0.1218 0.1221c-0.4014 0.532-0.8984 0.9859-1.6131 0.9859-1.3874 0-1.6664-1.3441-1.6664-1.902 0-1.7099 1.1511-2.2162 1.7611-2.2162 0.7074 0 1.4668 0.4449 1.4749 1.3698 0 0.053 0 0.1047-0.0081 0.1572l-0.0789 0.0527h-2.451zm1.5446-0.2794c0.2176 0 0.2431-0.1136 0.2431-0.2187 0-0.4441-0.2702-0.8018-0.7589-0.8018-0.5316 0-0.8982 0.3918-1.0027 1.0205h1.5185z" clip-rule="evenodd" fill="#1A1919" fill-rule="evenodd"/>
<path d="m24.264 29.099h0.2357c0.2433 0 0.418 0 0.418-0.2886v-2.4506c0-0.2699-0.3225-0.3231-0.4535-0.3928v-0.1304c0.6367-0.2706 0.9858-0.4977 1.0656-0.4977 0.051 0 0.0772 0.0263 0.0772 0.1139v0.7852h0.0184c0.2174-0.3401 0.5844-0.8991 1.1162-0.8991 0.218 0 0.4968 0.1482 0.4968 0.4625 0 0.2353-0.1649 0.4457-0.4091 0.4457-0.2713 0-0.2713-0.2104-0.5769-0.2104-0.148 0-0.6366 0.2013-0.6366 0.725v2.0487c0 0.2886 0.1743 0.2886 0.4187 0.2886h0.4879v0.2269c-0.4797-0.0092-0.8448-0.0172-1.2203-0.0172-0.3577 0-0.7242 8e-3 -1.0381 0.0172v-0.2269" clip-rule="evenodd" fill="#1A1919" fill-rule="evenodd"/>
<path d="m27.622 28.113c0.1137 0.5757 0.4619 1.0649 1.0999 1.0649 0.5138 0 0.7056-0.3144 0.7056-0.6195 0-1.0298-1.9011-0.698-1.9011-2.1023 0-0.489 0.3928-1.117 1.3524-1.117 0.2786 0 0.6536 0.0791 0.9935 0.2537l0.0613 0.889h-0.2005c-0.0872-0.5492-0.3921-0.8631-0.951-0.8631-0.3489 0-0.68 0.2003-0.68 0.5755 0 1.0212 2.0232 0.7066 2.0232 2.0762 0 0.5753-0.4618 1.1867-1.5002 1.1867-0.3486 0-0.7593-0.1223-1.0637-0.2968l-0.0964-1.0033 0.157-0.044" clip-rule="evenodd" fill="#1A1919" fill-rule="evenodd"/>
<path d="m38.002 24.815h-0.2175c-0.166-1.0196-0.8901-1.4301-1.8664-1.4301-1.0043 0-2.4605 0.6712-2.4605 2.7647 0 1.7627 1.2565 3.0277 2.5995 3.0277 0.8628 0 1.5797-0.5934 1.7538-1.5099l0.2007 0.0521-0.2007 1.274c-0.3664 0.2271-1.3524 0.463-1.9287 0.463-2.0403 0-3.3312-1.3174-3.3312-3.28 0-1.7887 1.5963-3.0714 3.306-3.0714 0.7063 0 1.3865 0.2275 2.0583 0.4632l0.0867 1.2467" clip-rule="evenodd" fill="#1A1919" fill-rule="evenodd"/>
<path d="m38.318 29.099h0.1651c0.2451 0 0.4192 0 0.4192-0.2885v-4.8575c0-0.5676-0.1306-0.5848-0.4625-0.681v-0.1397c0.3488-0.1132 0.7155-0.2699 0.8991-0.3754 0.0947-0.0515 0.1651-0.0961 0.1908-0.0961 0.0533 0 0.0706 0.053 0.0706 0.1231v6.0266c0 0.2885 0.1921 0.2885 0.436 0.2885h0.1477v0.2269c-0.2957 0-0.601-0.0172-0.9152-0.0172-0.3139 0-0.6276 0.0081-0.9508 0.0172v-0.2269" clip-rule="evenodd" fill="#1A1919" fill-rule="evenodd"/>
<path d="m43.918 28.845c0 0.1576 0.0954 0.1658 0.2433 0.1658 0.1052 0 0.2355-0.0082 0.3498-0.0082v0.1836c-0.3754 0.0345-1.091 0.2178-1.257 0.2702l-0.0435-0.0266v-0.7066c-0.5228 0.4272-0.9245 0.7332-1.5447 0.7332-0.4709 0-0.9591-0.306-0.9591-1.0377v-2.2338c0-0.2271-0.0347-0.4452-0.5225-0.4882v-0.1662c0.3143-0.0086 1.0107-0.0607 1.1244-0.0607 0.0968 0 0.0968 0.0607 0.0968 0.253v2.2503c0 0.2619 0 1.0113 0.7588 1.0113 0.296 0 0.6886-0.2262 1.0548-0.5311v-2.3471c0-0.1743-0.4185-0.2702-0.732-0.357v-0.1569c0.7843-0.0532 1.2733-0.1225 1.3605-0.1225 0.0704 0 0.0704 0.0607 0.0704 0.157v3.2182" clip-rule="evenodd" fill="#1A1919" fill-rule="evenodd"/>
<path d="m45.654 25.967c0.3488-0.296 0.82-0.6282 1.2997-0.6282 1.0121 0 1.6228 0.882 1.6228 1.8326 0 1.1424-0.8378 2.2856-2.0858 2.2856-0.6448 0-0.9851-0.2101-1.2123-0.306l-0.2609 0.2007-0.1829-0.0956c0.078-0.5146 0.122-1.0205 0.122-1.5529v-3.7503c0-0.5676-0.1314-0.5848-0.4629-0.681v-0.1397c0.3493-0.1132 0.7153-0.2699 0.8984-0.3754 0.0963-0.0515 0.1658-0.0961 0.1924-0.0961 0.0519 0 0.0695 0.0532 0.0695 0.1231v3.1832zm0 2.3728c0 0.3313 0.3143 0.8901 0.8985 0.8901 0.9332 0 1.3256-0.9161 1.3256-1.6928 0-0.9419-0.7145-1.7268-1.3947-1.7268-0.3241 0-0.594 0.2097-0.8294 0.4105v2.119z" clip-rule="evenodd" fill="#1A1919" fill-rule="evenodd"/>
<path d="m12.729 33.605 0.0095-0.0094v-1.7794c0-0.3895-0.2709-0.4465-0.4132-0.4465h-0.1046v-0.1424c0.2235 0 0.4418 0.0188 0.6646 0.0188 0.1946 0 0.39-0.0188 0.5839-0.0188v0.1424h-0.0706c-0.2 0-0.4231 0.0379-0.4231 0.6028v2.1596c0 0.1664 0.0047 0.3324 0.028 0.4797h-0.1804l-2.444-2.725v1.956c0 0.4133 0.0803 0.555 0.4458 0.555h0.0808v0.1427c-0.2041 0-0.408-0.0185-0.6121-0.0185-0.2131 0-0.43174 0.0185-0.64555 0.0185v-0.1427h0.06666c0.32739 0 0.42709-0.2231 0.42709-0.6017v-1.9998c0-0.2656-0.21904-0.4266-0.43176-0.4266h-0.06199v-0.1424c0.18003 0 0.36545 0.0188 0.54545 0.0188 0.1429 0 0.2805-0.0188 0.4228-0.0188l2.1127 2.3777" clip-rule="evenodd" fill="#1A1919" fill-rule="evenodd"/>
<path d="m13.004 34.632-0.1954-0.0067-2.4088-2.6847v1.9024c0.0057 0.4127 0.0684 0.5301 0.4258 0.5346h0.1017v0.1834h-0.0211c-0.2053 0-0.4096-0.019-0.6121-0.019-0.2125 0-0.43064 0.019-0.6457 0.019h-0.02084v-0.1834h0.08768c0.31366-0.0018 0.40336-0.2034 0.40676-0.5814v-1.999c-9e-4 -0.2528-0.20823-0.4066-0.41126-0.4066h-0.08318v-0.1838h0.02084c0.18146 0 0.3672 0.0185 0.5453 0.0185 0.1416 0 0.2787-0.0185 0.4387-0.0111l2.086 2.348v-1.7458c-0.0024-0.3769-0.2543-0.4227-0.3924-0.4258h-0.1256v-0.1838h0.021c0.2242 0 0.4427 0.0185 0.6644 0.0185 0.1932 0 0.3877-0.0185 0.5839-0.0185h0.0209v0.1838h-0.0915c-0.196 5e-3 -0.397 0.0223-0.4028 0.5821v2.1596c0 0.1662 0.0052 0.3319 0.028 0.4759l0.0044 0.0238h-0.0247zm-0.1802-0.0414h0.1571c-0.0212-0.1428-0.025-0.3004-0.025-0.4583v-2.1596c0-0.5697 0.2388-0.6234 0.4432-0.6238h0.05v-0.101c-0.1871 0.0015-0.3745 0.0187-0.5633 0.0187-0.2174 0-0.4287-0.0172-0.6432-0.0187l-5e-4 0.101h0.0839c0.1459 4e-4 0.4335 0.0652 0.4335 0.4675l-0.0063 1.7943-0.0093 0.0092-0.0162 0.0153-2.1109-2.3873c-0.141 0-0.2783 0.0187-0.4231 0.0187-0.1739 0-0.35216-0.0172-0.52428-0.0187l-9e-4 0.101h0.04222c0.22261 4e-4 0.45166 0.1703 0.45166 0.4483v1.999c0 0.3798-0.1058 0.6223-0.44716 0.6236l-0.04582-0.0013v0.1019c0.20554-0.0016 0.41738-0.0191 0.62468-0.0191 0.198 0 0.3956 0.0175 0.5915 0.0191v-0.1006h-0.06c-0.3736-0.0013-0.4661-0.1641-0.4664-0.5768v-2.0092l2.4646 2.7568zm-0.0941-0.9854 0.0149-0.0137-0.0149 0.0137zm-0.0113-0.0094v-0.0018l-0.0038-3e-3 0.0038 0.0048z" clip-rule="evenodd" fill="#1A1919" fill-rule="evenodd"/>
<path d="m14.181 31.464c-0.3564 0-0.3703 0.0859-0.4414 0.4319h-0.1425c0.0187-0.1329 0.0422-0.2657 0.057-0.4033 0.019-0.1335 0.0285-0.2659 0.0285-0.4032h0.1138c0.0382 0.1425 0.1568 0.1373 0.2856 0.1373h2.4482c0.1288 0 0.2472-0.0047 0.2569-0.1472l0.1134 0.0194c-0.0184 0.1278-0.0378 0.2561-0.0516 0.3845-0.0094 0.1281-0.0094 0.2559-0.0094 0.384l-0.1426 0.0528c-0.0097-0.1754-0.0332-0.4562-0.3513-0.4562h-0.7785v2.5252c0 0.3662 0.1664 0.4081 0.3939 0.4081h0.0905v0.1426c-0.1852 0-0.5176-0.0183-0.7734-0.0183-0.2852 0-0.6177 0.0183-0.803 0.0183v-0.1426h0.0906c0.2616 0 0.3938-0.0234 0.3938-0.3982v-2.5351h-0.7785" clip-rule="evenodd" fill="#1A1919" fill-rule="evenodd"/>
<path d="m16.052 34.56c-0.1871 0-0.5191-0.0188-0.7739-0.0188-0.2847 0-0.6168 0.0188-0.8029 0.0188h-0.0203v-0.1834h0.1109c0.2616-0.0061 0.3667-0.0095 0.3726-0.3777v-2.5147h-0.7573v-0.0416h0.7984v2.5563c0 0.3811-0.1536 0.4196-0.4137 0.4199h-0.0703v0.1003c0.1872-0.0013 0.507-0.0187 0.7826-0.0187 0.2471 0 0.5642 0.0174 0.7523 0.0187v-0.1003h-0.0693c-0.2297-3e-4 -0.4144-0.0567-0.4144-0.4297v-2.5465h0.799c0.3184 0.0013 0.3606 0.2719 0.3705 0.4485l0.1028-0.0379c0-0.124 5e-4 -0.2481 0.0089-0.3728 0.0141-0.1227 0.0313-0.2433 0.0491-0.3649l-0.0721-0.0121c-0.0221 0.1382-0.1559 0.1456-0.2748 0.1438h-2.4728c-0.1118 1e-4 -0.2334-0.0052-0.2761-0.1377h-0.0784c-7e-4 0.1312-0.0097 0.2586-0.0276 0.3851-0.0142 0.1304-0.036 0.2556-0.0532 0.3814h0.1013c0.0623-0.3311 0.103-0.438 0.4578-0.4334v0.0416c-0.3516 7e-3 -0.3439 0.0657-0.4213 0.4164l-0.0034 0.0162h-0.1829l0.0025-0.0246c0.0194-0.1324 0.0435-0.2658 0.0573-0.4036 0.0198-0.1317 0.0287-0.2633 0.0287-0.3994v-0.021h0.1508l0.0036 0.0149c0.0319 0.1197 0.1198 0.1206 0.2409 0.1227h2.4728c0.1322-0.0021 0.2285-0.0039 0.2366-0.1281l0.0016-0.0224 0.0216 0.0043 0.1342 0.0212-0.0034 0.021c-0.0189 0.1274-0.0374 0.2551-0.0518 0.3824-0.0088 0.1272-0.0088 0.2547-0.0088 0.383v0.0144l-0.0138 0.0055-0.168 0.0615-0.0011-0.0275c-0.0131-0.1786-0.0314-0.4369-0.3315-0.4369h-0.7576v2.5049c0.0046 0.3579 0.1466 0.383 0.373 0.3875h0.111v0.1834h-0.0201" clip-rule="evenodd" fill="#1A1919" fill-rule="evenodd"/>
<path d="m17.052 34.398h0.0669c0.1703 0 0.3512-0.0233 0.3512-0.2704v-2.4866c0-0.2474-0.1809-0.2709-0.3512-0.2709h-0.0669v-0.1426c0.2886 0 0.7834 0.0188 1.1813 0.0188 0.3994 0 0.8924-0.0188 1.2151-0.0188-0.0083 0.2041-0.0038 0.5181 0.0103 0.7265l-0.1431 0.0378c-0.0228-0.3087-0.0797-0.5549-0.5783-0.5549h-0.659v1.2428h0.5638c0.2847 0 0.3467-0.1608 0.3749-0.4174h0.1423c-0.0095 0.1854-0.0145 0.3705-0.0145 0.5554 0 0.1807 5e-3 0.3609 0.0145 0.541l-0.1423 0.0283c-0.0282-0.2844-0.0424-0.4694-0.3703-0.4694h-0.5684v1.1053c0 0.309 0.2741 0.309 0.5781 0.309 0.5698 0 0.8211-0.0383 0.9636-0.5787l0.1324 0.0327c-0.0616 0.2521-0.1182 0.5029-0.1608 0.7548-0.3042 0-0.85-0.0183-1.2763-0.0183-0.4282 0-0.9925 0.0183-1.2633 0.0183v-0.1427" clip-rule="evenodd" fill="#1A1919" fill-rule="evenodd"/>
<path d="m19.591 34.56c-0.3045 0-0.8507-0.0198-1.2765-0.0198-0.4276 0-0.9918 0.0198-1.2629 0.0198h-0.0199v-0.1834h0.0868c0.1717-0.0029 0.328-0.018 0.3302-0.25v-2.4865c-0.0022-0.232-0.1585-0.2474-0.3302-0.2505h-0.0868v-0.1838h0.0199c0.29 0 0.7837 0.0185 1.1815 0.0185 0.399 0 0.8919-0.0185 1.2151-0.0185h0.021l-7e-4 0.0219c-0.0031 0.071-5e-3 0.1554-5e-3 0.2447 0 0.1641 5e-3 0.3439 0.0143 0.479l9e-4 0.0169-0.016 0.0049-0.1669 0.0436-7e-4 -0.0244c-0.028-0.308-0.0693-0.532-0.558-0.5367h-0.6398l-4e-4 1.2022h0.5448c0.2736-0.0029 0.3225-0.1427 0.3548-0.3987l0.0011-0.0191h0.1825l-3e-4 0.0218c-0.0092 0.1854-0.0148 0.3699-0.0148 0.5548 0 0.1795 0.0056 0.3597 0.0148 0.5401l3e-4 0.0172-0.0172 4e-3 -0.1653 0.0328-0.0011-0.0222c-0.0329-0.2898-0.035-0.4487-0.35-0.4521h-0.5492v1.0854c7e-4 0.2885 0.2494 0.2869 0.5587 0.2885 0.5716-0.0034 0.8005-0.0314 0.9435-0.5638l0.0048-0.0192 0.02 0.0033 0.1521 0.0395-0.0043 0.0196c-0.0616 0.2511-0.1182 0.5021-0.1611 0.7533l-0.0036 0.0169h-0.0164zm-0.0176-0.041c0.0415-0.24 0.0956-0.4797 0.1538-0.7186l-0.0934-0.0236c-0.1421 0.5309-0.4176 0.5784-0.9778 0.5748-0.2991 0-0.5981 0-0.5997-0.3297v-1.126h0.5902c0.3315-0.0034 0.3649 0.1964 0.3886 0.4664l0.1025-0.021c-0.0092-0.175-0.0139-0.3507-0.0139-0.5246 0-0.1782 0.0047-0.3561 0.0139-0.5352h-0.1025c-0.0267 0.2479-0.1042 0.4209-0.3934 0.4179h-0.5854v-1.2848h0.6808c0.4935-4e-3 0.5753 0.2515 0.5968 0.5501l0.1023-0.0278c-0.0083-0.1339-0.0139-0.306-0.0139-0.4645 0-0.0812 0.0022-0.1583 0.0049-0.2255-0.3225 0.0015-0.8039 0.0187-1.1941 0.0187-0.39 0-0.8701-0.0172-1.1606-0.0187v0.101h0.046c0.1688 4e-4 0.3708 0.0297 0.3719 0.2922v2.4865c-0.0011 0.262-0.2031 0.2909-0.3719 0.2922h-0.046v0.1002c0.2763-9e-4 0.825-0.0187 1.242-0.0187 0.419 0 0.953 0.0178 1.2589 0.0187z" clip-rule="evenodd" fill="#1A1919" fill-rule="evenodd"/>
<path d="m20.393 31.73c0-0.3461-0.1901-0.3603-0.3374-0.3603h-0.0857v-0.1424c0.152 0 0.4463 0.0188 0.7361 0.0188 0.2842 0 0.5124-0.0188 0.7639-0.0188 0.5972 0 1.13 0.1611 1.13 0.8356 0 0.4269-0.285 0.6876-0.6598 0.8356l0.8112 1.2144c0.1333 0.2008 0.2275 0.2571 0.4607 0.2849v0.1427c-0.157 0-0.3089-0.0183-0.465-0.0183-0.1471 0-0.2997 0.0183-0.4461 0.0183-0.3658-0.4792-0.6793-0.9916-0.9876-1.5383h-0.3128v1.0164c0 0.3654 0.1705 0.3792 0.388 0.3792h0.0861v0.1427c-0.2711 0-0.5453-0.0183-0.8164-0.0183-0.2278 0-0.451 0.0183-0.6883 0.0183v-0.1427h0.0857c0.1762 0 0.3374-0.0803 0.3374-0.2556v-2.4122zm0.6075 1.101h0.2319c0.4752 0 0.7311-0.1799 0.7311-0.7403 0-0.422-0.2706-0.6926-0.6935-0.6926-0.1425 0-0.2032 0.0146-0.2695 0.0192v1.4137z" clip-rule="evenodd" fill="#1A1919" fill-rule="evenodd"/>
<path d="m23.212 34.56c-0.1592 0-0.3101-0.019-0.4662-0.019-0.1447 0-0.2965 0.019-0.4618 0.0111-0.3642-0.4779-0.6762-0.9875-0.9827-1.5293h-0.2805v0.9941c0.0052 0.3573 0.1484 0.3546 0.3678 0.3597h0.1065v0.1834h-0.021c-0.2713 0-0.5471-0.019-0.8161-0.019-0.2267 0-0.4497 0.019-0.6881 0.019h-0.0206v-0.1834h0.1063c0.1707-0.0013 0.315-0.0757 0.3157-0.2352v-2.4122c-0.0036-0.3365-0.1683-0.3349-0.3157-0.3396h-0.1063v-0.1838h0.0206c0.1536 0 0.4467 0.0185 0.7361 0.0185 0.2834 0 0.511-0.0185 0.764-0.0185 0.5984 0.0013 1.1491 0.166 1.1505 0.8556 0 0.4283-0.2831 0.696-0.6491 0.8453l0.797 1.1941c0.1328 0.1969 0.2154 0.2461 0.4463 0.2758l0.0173 0.0027v0.1807h-0.02zm-2.2117-1.5791h0.3243l0.0059 0.0106c0.3091 0.5453 0.621 1.0579 0.9704 1.5279 0.1445 0 0.297-0.0191 0.4449-0.0191 0.1514 0 0.298 0.0166 0.4454 0.0187v-0.1042c-0.2225-0.0271-0.327-0.0943-0.4566-0.291l-0.8263-1.2356 0.0234-0.0095c0.3717-0.1465 0.6472-0.4 0.6473-0.8173-1e-4 -0.6585-0.5124-0.8112-1.109-0.8145-0.25 0-0.4781 0.0193-0.764 0.0193-0.2788 0-0.5605-0.0178-0.7158-0.0193v0.101h0.0654c0.1474 4e-4 0.357 0.0248 0.357 0.3813v2.4122c0 0.1904-0.1784 0.277-0.357 0.2774h-0.0654v0.1002c0.2282-9e-4 0.4449-0.0187 0.6678-0.0187 0.2651 0 0.5331 0.0178 0.7956 0.0187v-0.1002h-0.065c-0.2162-4e-4 -0.4093-0.0272-0.4093-0.4019v-1.036h0.021zm0-0.1303h-0.021v-1.4533l0.0181-0.0014c0.0651-0.0052 0.129-0.0183 0.2726-0.0183 0.4323 0 0.7138 0.2808 0.7142 0.7136-0.0013 0.5667-0.2729 0.7593-0.7518 0.7594h-0.2321zm0.2321-0.0404c0.4699-0.0046 0.7067-0.1676 0.7113-0.719-0.0028-0.4147-0.2603-0.672-0.6737-0.6738-0.1281 0-0.1887 0.0119-0.2492 0.0178v1.375h0.2116z" clip-rule="evenodd" fill="#1A1919" fill-rule="evenodd"/>
<path d="m26.435 33.605 0.0083-0.0094v-1.7794c0-0.3895-0.2697-0.4465-0.4122-0.4465h-0.104v-0.1424c0.2231 0 0.4407 0.0188 0.6644 0.0188 0.1951 0 0.3882-0.0188 0.5843-0.0188v0.1424h-0.0715c-0.1995 0-0.4224 0.0379-0.4224 0.6028v2.1596c0 0.1664 0.0046 0.3324 0.028 0.4797h-0.1797l-2.4442-2.725v1.956c0 0.4133 0.0802 0.555 0.4456 0.555h0.0809v0.1427c-0.204 0-0.4084-0.0185-0.6124-0.0185-0.2143 0-0.4322 0.0185-0.6457 0.0185v-0.1427h0.066c0.3277 0 0.4279-0.2231 0.4279-0.6017v-1.9998c0-0.2656-0.2186-0.4266-0.4321-0.4266h-0.0618v-0.1424c0.1797 0 0.3662 0.0188 0.5462 0.0188 0.1411 0 0.2794-0.0188 0.4221-0.0188l2.1123 2.3777" clip-rule="evenodd" fill="#1A1919" fill-rule="evenodd"/>
<path d="m26.709 34.632-0.1949-0.0067-2.4092-2.6844v1.902c0.0056 0.4134 0.0681 0.5302 0.426 0.5347h0.1006v0.1834h-0.0206c-0.2052 0-0.4089-0.0198-0.6123-0.0198-0.2119 0-0.4312 0.0198-0.645 0.0198h-0.0212v-0.1834h0.0873c0.3135-0.0013 0.4033-0.2034 0.4064-0.5825v-1.9986c-6e-4 -0.253-0.2075-0.4059-0.4106-0.4059h-0.0831v-0.1838h0.0212c0.1812 0 0.367 0.0185 0.5462 0.0185 0.1394 0 0.2768-0.0185 0.436-0.0124l2.0867 2.3493v-1.7458c-0.0013-0.3769-0.2541-0.4236-0.3921-0.4258h-0.1252v-0.1838h0.0207c0.2242 0 0.443 0.0185 0.6649 0.0185 0.1933 0 0.3877-0.0185 0.5834-0.0185h0.021v0.1838h-0.0916c-0.1959 0.0047-0.3976 0.0223-0.4023 0.5821v2.1596c0 0.1662 0.0041 0.3308 0.0284 0.4763l0.0023 0.0234h-0.023zm-0.1796-0.0414h0.1555c-0.0208-0.1419-0.0249-0.3004-0.0249-0.4583v-2.1596c3e-4 -0.5697 0.2404-0.6225 0.4436-0.6238h0.0499v-0.101c-0.1868 0.0015-0.3744 0.0187-0.5627 0.0187-0.2181 0-0.4296-0.0172-0.6443-0.0187v0.101h0.0839c0.1463 0.0013 0.4337 0.0652 0.4337 0.4675l-0.0068 1.7943-0.0086 0.0092-0.0149 0.0156-2.1118-2.3876c-0.1412 0-0.2789 0.0187-0.4222 0.0187-0.1761 0-0.3535-0.0172-0.5259-0.0187v0.101h0.0416c0.2234 0.0013 0.4517 0.1696 0.4517 0.4476v1.9986c0 0.3809-0.1072 0.6234-0.4475 0.6247l-0.0458-4e-4v0.1008c0.205-0.0014 0.4164-0.0189 0.6247-0.0189 0.199 0 0.3963 0.0175 0.5925 0.0189v-0.1004h-0.0602c-0.3735-4e-4 -0.4666-0.1635-0.4677-0.5769v-2.0083l2.4662 2.756zm-0.0956-0.9854 0.0154-0.0137-0.0154 0.0137zm-0.0113-0.0094v-0.0012l-0.0035-0.0036 0.0035 0.0048z" clip-rule="evenodd" fill="#1A1919" fill-rule="evenodd"/>
<path d="m27.938 33.862c-0.0478 0.1608-0.1051 0.2855-0.1051 0.3698 0 0.1428 0.2 0.1663 0.3561 0.1663h0.053v0.1425c-0.1906-0.0102-0.3843-0.0183-0.5753-0.0183-0.1709 0-0.3408 0.0081-0.5122 0.0183v-0.1425h0.0289c0.1847 0 0.3419-0.1094 0.4123-0.3088l0.7595-2.1779c0.062-0.1761 0.1475-0.4133 0.1764-0.5893 0.1509-0.052 0.3416-0.1463 0.4314-0.204 0.0147-0.0048 0.0235-0.0097 0.0379-0.0097s0.0232 0 0.0336 0.0149c0.014 0.0376 0.0278 0.0804 0.0426 0.1183l0.8737 2.4828c0.057 0.1656 0.1134 0.3412 0.1741 0.4844 0.0579 0.1331 0.1576 0.1893 0.3148 0.1893h0.0284v0.1425c-0.2138-0.0102-0.428-0.0183-0.6547-0.0183-0.2327 0-0.4708 0.0081-0.7128 0.0183v-0.1425h0.0523c0.1085 0 0.2948-0.0188 0.2948-0.1376 0-0.0613-0.0429-0.1895-0.0959-0.3421l-0.1849-0.5503h-1.0773l-0.1516 0.4939zm0.693-2.1028h-0.0099l-0.4411 1.3434h0.8868l-0.4358-1.3434z" clip-rule="evenodd" fill="#1A1919" fill-rule="evenodd"/>
<path d="m30.467 34.56c-0.2133-0.0091-0.4273-0.0197-0.6533-0.0197-0.2327 0-0.4695 0.0106-0.7117 0.0197l-0.0219 0.0011v-0.1854h0.0731c0.11 0 0.2731-0.0246 0.2735-0.1161 0.0011-0.0541-0.0415-0.1841-0.0938-0.3351l-0.1807-0.537h-1.047l-0.1476 0.4797c-0.0478 0.1614-0.1055 0.2868-0.1046 0.364 0.0016 0.1159 0.1788 0.1445 0.3363 0.1445h0.073v0.1854l-0.0216-0.0011c-0.1897-0.0091-0.3834-0.0197-0.5733-0.0197-0.1694 0-0.341 0.0106-0.511 0.0197l-0.0221 0.0011v-0.1854h0.0493c0.1764-4e-4 0.3237-0.1012 0.3923-0.294l0.7602-2.1786c0.0613-0.1757 0.1475-0.4118 0.1885-0.6015 0.1489-0.0505 0.3399-0.1463 0.431-0.2036 0.0133-0.0047 0.0264-0.0108 0.0455-0.0108 0.0116-7e-4 0.0372 0.0024 0.0526 0.0272 0.0135 0.039 0.0286 0.0815 0.0429 0.1198l0.8739 2.4825c0.0559 0.1662 0.1127 0.3415 0.1749 0.4822 0.0549 0.1265 0.1421 0.1764 0.2946 0.1768h0.048v0.1854l-0.021-0.0011zm-1.3454-0.0422c0.2348-0.0083 0.4654-0.0174 0.6921-0.0174 0.2201 0 0.4271 0.0091 0.6333 0.0174v-0.0994h-7e-3c-0.1628 0.0011-0.2747-0.0628-0.3329-0.2028-0.0618-0.1434-0.1195-0.3196-0.1755-0.4858l-0.8739-2.4827c-0.0144-0.0379-0.0279-0.0803-0.0403-0.114-0.0047-0.0047-0.0036-0.0047-0.0074-0.0047h-0.0089c-0.0096 0-0.0153 0.0029-0.0275 0.0059-0.0913 0.0593-0.2816 0.1529-0.4228 0.1899-0.0289 0.1799-0.1144 0.417-0.1761 0.5929l-0.7594 2.1781c-0.0722 0.2063-0.2391 0.3236-0.4317 0.3232h-8e-3v0.0994c0.1628-0.0083 0.327-0.0174 0.4918-0.0174 0.1836 0 0.3708 0.0091 0.5525 0.0174v-0.0994h-0.0306c-0.155-0.0021-0.371-0.019-0.3764-0.1872 4e-4 -0.0941 0.0586-0.2156 0.1051-0.376l0.0202 0.0059-0.0202-0.0065 0.1563-0.5072h1.1068l0.1901 0.5637c0.0533 0.1527 0.0965 0.2792 0.0965 0.3485-0.0071 0.1454-0.2068 0.1561-0.3145 0.1588h-0.0316v0.0994zm-0.9702-1.3957 0.4544-1.3848h0.0255v0.021l-5e-3 0.0014 5e-3 -0.0014v-0.021h0.0142l0.4511 1.3848h-0.9452zm0.0568-0.0415h0.8309l-0.413-1.2718-0.4179 1.2718zm0.4024-1.3162 0.011-0.0034-0.011 0.0034z" clip-rule="evenodd" fill="#1A1919" fill-rule="evenodd"/>
<path d="m30.677 31.464c-0.356 0-0.3703 0.0859-0.4418 0.4319h-0.1427c0.0187-0.1329 0.043-0.2657 0.0577-0.4033 0.0185-0.1335 0.0277-0.2659 0.0277-0.4032h0.1148c0.0372 0.1425 0.1561 0.1373 0.2842 0.1373h2.4496c0.1275 0 0.2461-0.0047 0.2555-0.1472l0.1135 0.0194c-0.0176 0.1278-0.0365 0.2561-0.0514 0.3845-0.0104 0.1281-0.0104 0.2559-0.0104 0.384l-0.1418 0.0528c-0.0084-0.1754-0.0323-0.4562-0.351-0.4562h-0.7783v2.5252c0 0.3662 0.1663 0.4081 0.3938 0.4081h0.0907v0.1426c-0.1854 0-0.5171-0.0183-0.774-0.0183-0.2842 0-0.6173 0.0183-0.8024 0.0183v-0.1426h0.0904c0.2616 0 0.394-0.0234 0.394-0.3982v-2.5351h-0.7781" clip-rule="evenodd" fill="#1A1919" fill-rule="evenodd"/>
<path d="m32.547 34.56c-0.1865 0-0.5193-0.0188-0.7744-0.0188-0.2835 0-0.6159 0.0188-0.8019 0.0188h-0.021v-0.1834h0.1112c0.2618-0.0061 0.3667-0.0095 0.373-0.3777l-3e-4 -2.5147h-0.7568v-0.0416h0.7986v2.5563c0 0.3811-0.1538 0.4187-0.4145 0.4196h-0.0699v0.1009c0.1876-0.0016 0.5065-0.019 0.7816-0.019 0.2481 0 0.5658 0.0174 0.7531 0.019v-0.1009h-0.0697c-0.2287-9e-4 -0.4136-0.0559-0.4139-0.4294v-2.5465h0.7986c0.3189 0.0013 0.3604 0.2719 0.3696 0.4485l0.1031-0.0379c0-0.124 7e-4 -0.2481 0.0104-0.3723 0.0128-0.1223 0.0308-0.2438 0.048-0.3649l-0.0717-0.0126c-0.0217 0.1382-0.1558 0.1459-0.2738 0.1438h-2.4738c-0.112 0.0012-0.2331-0.0052-0.2762-0.138h-0.0776c-0.0011 0.1313-0.0104 0.2589-0.0291 0.3854-0.0129 0.1309-0.0358 0.2565-0.0539 0.3814h0.1021c0.0623-0.3311 0.1034-0.4386 0.459-0.4334v0.0416c-0.352 0.0061-0.3442 0.0657-0.4217 0.4164l-0.0034 0.0162h-0.1833l0.0029-0.0235c0.02-0.1335 0.0433-0.2669 0.0572-0.4036 0.0194-0.1328 0.0282-0.2644 0.0282-0.4005v-0.021h0.1507l4e-3 0.0149c0.0332 0.1197 0.1196 0.1206 0.2411 0.1227h2.4738c0.1313-0.0021 0.2271-0.0039 0.2355-0.1277l8e-4 -0.0228 0.0221 0.0043 0.1347 0.0212-0.0032 0.021c-0.0196 0.1274-0.0376 0.2551-0.0519 0.3824-0.0097 0.1272-0.0097 0.2549-0.0097 0.383v0.0144l-0.0139 0.0055-0.168 0.0615-7e-4 -0.0275c-0.0124-0.1786-0.0313-0.4369-0.3313-0.4369h-0.7578v2.5049c0.0048 0.3579 0.1469 0.383 0.3731 0.3875h0.1107v0.1834h-0.0197" clip-rule="evenodd" fill="#1A1919" fill-rule="evenodd"/>
<path d="m33.571 34.398h0.0665c0.171 0 0.3507-0.0233 0.3507-0.2704v-2.4866c0-0.2474-0.1797-0.2709-0.3507-0.2709h-0.0665v-0.1426c0.1852 0 0.4695 0.0188 0.7018 0.0188 0.2379 0 0.5228-0.0188 0.7463-0.0188v0.1426h-0.0666c-0.1716 0-0.352 0.0235-0.352 0.2709v2.4866c0 0.2471 0.1804 0.2704 0.352 0.2704h0.0666v0.1427c-0.228 0-0.5131-0.0183-0.7501-0.0183-0.233 0-0.5128 0.0183-0.698 0.0183v-0.1427" clip-rule="evenodd" fill="#1A1919" fill-rule="evenodd"/>
<path d="m35.02 34.56c-0.2295 0-0.5133-0.0198-0.7501-0.0198-0.2324 0-0.5126 0.0198-0.6981 0.0198h-0.0203v-0.1834h0.087c0.171-0.0029 0.3288-0.018 0.3299-0.25v-2.4865c-0.0011-0.232-0.1589-0.2474-0.3299-0.2505h-0.087v-0.1838h0.0203c0.1855 0 0.471 0.0185 0.7018 0.0185 0.2366 0 0.5214-0.0185 0.7464-0.0185h0.0197v0.1838h-0.0862c-0.1738 0.0031-0.3299 0.0185-0.3315 0.2505v2.4865c0.0016 0.232 0.1577 0.2471 0.3315 0.25h0.0862v0.1834h-0.0197zm-0.0216-0.041v-0.1006h-0.0449c-0.1703 0-0.3717-0.0298-0.3717-0.2918v-2.4865c0-0.2625 0.2014-0.2918 0.3717-0.2922h0.0449v-0.101c-0.2188 0.0015-0.4937 0.0187-0.7248 0.0187-0.2253 0-0.4969-0.0172-0.6811-0.0187v0.101h0.046c0.1685 4e-4 0.3708 0.0297 0.3714 0.2922v2.4865c-6e-4 0.262-0.2029 0.2918-0.3714 0.2918h-0.046v0.1006c0.1829-0.0021 0.4513-0.0187 0.6774-0.0187 0.2301 0 0.5046 0.0175 0.7285 0.0187z" clip-rule="evenodd" fill="#1A1919" fill-rule="evenodd"/>
<path d="m36.912 31.156c1.0119 0 1.8184 0.6272 1.8184 1.6382 0 1.0918-0.7834 1.8175-1.794 1.8175-1.0067 0-1.7753-0.6836-1.7753-1.7043 0-0.9868 0.764-1.7514 1.7509-1.7514zm0.0717 3.2467c0.9211 0 1.0817-0.8122 1.0817-1.5043 0-0.6937-0.374-1.5335-1.1624-1.5335-0.8304 0-1.0775 0.7406-1.0775 1.3761 0 0.8495 0.3895 1.6617 1.1582 1.6617z" clip-rule="evenodd" fill="#1A1919" fill-rule="evenodd"/>
<path d="m35.14 32.907c2e-3 -0.9982 0.7747-1.7704 1.7718-1.772v0.0415c-0.9757 0-1.7305 0.7542-1.7316 1.7305 2e-3 1.0092 0.7595 1.6826 1.7564 1.6829 1.0004-3e-4 1.7725-0.7156 1.7737-1.7968-9e-4 -0.9984-0.7947-1.6157-1.7985-1.6166v-0.0415c1.0191 1e-3 1.8371 0.6344 1.8389 1.6581-1e-3 1.1032-0.7937 1.8364-1.8141 1.8382-1.0153-0.0018-1.7946-0.6923-1.7966-1.7243zm0.6647-0.1664c0.0015-0.6387 0.2507-1.3972 1.0982-1.3972 0.806 0.0018 1.1818 0.8572 1.1834 1.5546-0.0016 0.6921-0.1644 1.5238-1.1024 1.5238v-0.0403c0.9025-7e-4 1.0593-0.7914 1.0607-1.4835 0-0.6876-0.3702-1.5115-1.1417-1.5128-0.8143 9e-4 -1.0549 0.7232-1.057 1.3554 3e-4 0.8455 0.3863 1.6397 1.138 1.6409v0.0403c-0.7878-7e-4 -1.1777-0.8267-1.1792-1.6812z" clip-rule="evenodd" fill="#1A1919" fill-rule="evenodd"/>
<path d="m41.929 33.605 0.0099-0.0094v-1.7794c0-0.3895-0.2715-0.4465-0.4138-0.4465h-0.1033v-0.1424c0.2224 0 0.4413 0.0188 0.6637 0.0188 0.1951 0 0.3897-0.0188 0.5845-0.0188v0.1424h-0.0714c-0.1989 0-0.4229 0.0379-0.4229 0.6028v2.1596c0 0.1664 5e-3 0.3324 0.0291 0.4797h-0.1806l-2.4449-2.725v1.956c0 0.4133 0.0811 0.555 0.4458 0.555h0.0814v0.1427c-0.2043 0-0.408-0.0185-0.6121-0.0185-0.2139 0-0.4323 0.0185-0.646 0.0185v-0.1427h0.0667c0.3281 0 0.4271-0.2231 0.4271-0.6017v-1.9998c0-0.2656-0.2176-0.4266-0.4323-0.4266h-0.0615v-0.1424c0.1804 0 0.3653 0.0188 0.5461 0.0188 0.1421 0 0.279-0.0188 0.422-0.0188l2.1125 2.3777" clip-rule="evenodd" fill="#1A1919" fill-rule="evenodd"/>
<path d="m42.205 34.632-0.1964-0.0067-2.4088-2.6844v1.9021c0.0056 0.4133 0.0683 0.5295 0.4247 0.5337h0.1023v0.1843h-0.0202c-0.2055 0-0.4092-0.019-0.6123-0.019-0.2127 0-0.4312 0.019-0.6464 0.019h-0.0194v-0.1843h0.0864c0.3128-9e-4 0.403-0.2025 0.4068-0.5805v-1.9997c-2e-4 -0.253-0.2077-0.4059-0.4116-0.4059h-0.0816v-0.1838h0.0194c0.182 0 0.3671 0.0185 0.5464 0.0185 0.1408 0 0.2772-0.0185 0.4382-0.0111l2.0855 2.348v-1.7458c-0.0016-0.3769-0.2544-0.4227-0.3929-0.4258h-0.125v-0.1838h0.0217c0.223 0 0.442 0.0185 0.6632 0.0185 0.1942 0 0.3879-0.0185 0.5851-0.0185h0.02v0.1838h-0.0917c-0.1956 5e-3 -0.3976 0.023-0.4015 0.5821v2.1596c0 0.1662 0.0038 0.3319 0.0268 0.4763l0.0041 0.0234h-0.0228zm-0.1808-0.0414h0.1556c-0.0201-0.1428-0.0248-0.3004-0.0248-0.4583v-2.1596c0-0.5706 0.2397-0.6225 0.4434-0.6238h0.0514v-0.101c-0.1884 0.0015-0.3751 0.0187-0.5648 0.0187-0.2162 0-0.4284-0.0172-0.6433-0.0187v0.101h0.0834c0.1466 0.0013 0.4332 0.0661 0.4332 0.4675l-5e-3 1.7943-0.0092 0.0092-0.0151 0.0156-2.1123-2.3876c-0.1405 0-0.2787 0.0187-0.4224 0.0187-0.175 0-0.3533-0.0172-0.5259-0.0187v0.101h0.0417c0.2231 0.0013 0.4524 0.1696 0.4524 0.4476v1.9997c0 0.3798-0.106 0.6223-0.4476 0.6236l-0.0465-4e-4v0.1008c0.2061-0.0014 0.4173-0.0189 0.6259-0.0189 0.198 0 0.3948 0.0175 0.5915 0.0189v-0.1004h-0.0613c-0.3724-4e-4 -0.4658-0.1635-0.4658-0.5768v-2.0092l2.4655 2.7568zm-0.0952-0.9854 0.0151-0.0137-0.0151 0.0137zm-0.011-0.0094v-0.0012l-0.0037-0.0036 0.0037 0.0048z" clip-rule="evenodd" fill="#1A1919" fill-rule="evenodd"/>
<path d="m43.432 33.862c-0.0465 0.1608-0.1038 0.2855-0.1038 0.3698 0 0.1428 0.1999 0.1663 0.3555 0.1663h0.053v0.1425c-0.1901-0.0102-0.3848-0.0183-0.5749-0.0183-0.1709 0-0.3415 0.0081-0.5117 0.0183v-0.1425h0.027c0.1861 0 0.3433-0.1094 0.4127-0.3088l0.761-2.1779c0.0613-0.1761 0.1472-0.4133 0.1745-0.5893 0.1525-0.052 0.3419-0.1463 0.4333-0.204 0.0133-0.0048 0.0229-0.0097 0.0376-0.0097 0.0138 0 0.0228 0 0.0325 0.0149 0.0144 0.0376 0.0286 0.0804 0.0429 0.1183l0.8734 2.4828c0.0566 0.1656 0.1139 0.3412 0.1759 0.4844 0.057 0.1331 0.1565 0.1893 0.313 0.1893h0.0293v0.1425c-0.214-0.0102-0.4278-0.0183-0.6558-0.0183-0.2321 0-0.4698 0.0081-0.7122 0.0183v-0.1425h0.0526c0.1085 0 0.2947-0.0188 0.2947-0.1376 0-0.0613-0.0426-0.1895-0.0956-0.3421l-0.1851-0.5503h-1.0772l-0.1526 0.4939zm0.6941-2.1028h-0.0095l-0.4426 1.3434h0.889l-0.4369-1.3434z" clip-rule="evenodd" fill="#1A1919" fill-rule="evenodd"/>
<path d="m45.961 34.56c-0.2139-0.0085-0.427-0.0191-0.6534-0.0191-0.2316 0-0.4695 0.0106-0.7113 0.0191l-0.021 0.0011v-0.1845h0.0722c0.1103 0 0.2738-0.0256 0.274-0.117 0.0012-0.0541-0.0417-0.1836-0.0951-0.3351l-0.18-0.537h-1.0478l-0.1466 0.4797c-0.0478 0.1626-0.1039 0.2867-0.1033 0.3636 0 0.1163 0.178 0.1458 0.3349 0.1458h0.0726v0.1845l-0.0214-0.0011c-0.1896-0.0085-0.384-0.0191-0.573-0.0191-0.1701 0-0.3404 0.0106-0.5117 0.0191l-0.0206 0.0011v-0.1845h0.0476c0.177-9e-4 0.325-0.1023 0.3945-0.2949l0.7591-2.1786c0.0609-0.1757 0.1466-0.4118 0.1883-0.6008 0.1491-0.0518 0.3398-0.147 0.4321-0.2043 0.0122-0.0047 0.0255-0.0104 0.0449-0.0104 0.0123-0.0011 0.0372 0.0019 0.0518 0.0278 0.0144 0.0374 0.0284 0.0805 0.0438 0.1188l0.8728 2.4824c0.0572 0.1662 0.1138 0.3416 0.1754 0.4832 0.0559 0.1255 0.1418 0.1755 0.2936 0.1768h0.049v0.1845l-0.0214-0.0011zm-1.3455-0.0419c0.2348-0.0086 0.4657-0.0178 0.6921-0.0178 0.2206 0 0.4271 0.0092 0.6342 0.0175l-5e-4 -0.0994h-0.0079c-0.1608 4e-4 -0.2728-0.0629-0.332-0.2028-0.0626-0.1434-0.119-0.3197-0.1759-0.4853l-0.8734-2.4832c-0.014-0.0379-0.0291-0.0803-0.0402-0.1132-4e-3 -0.0055-0.0036-0.0055-0.0065-0.0055h-0.0094c-0.0102 0-0.0154 0.0032-0.0267 0.0064-0.0929 0.0581-0.2828 0.1533-0.423 0.1894-0.0294 0.1798-0.1157 0.4166-0.1768 0.5929l-0.7601 2.1781c-0.0723 0.2063-0.2381 0.3236-0.4323 0.3232h-7e-3v0.0994c0.1635-0.0083 0.3266-0.0175 0.4917-0.0175 0.1838 0 0.3716 0.0092 0.5539 0.0175v-0.0994h-0.0321c-0.1543-0.0021-0.3707-0.0185-0.3768-0.1876 0.0013-0.0937 0.0597-0.2148 0.1062-0.3756l0.0191 0.0059-0.0191-0.0065 0.1561-0.5072h1.1064l0.1907 0.5636c0.0522 0.1528 0.0955 0.2792 0.0955 0.3486-0.0068 0.1453-0.2064 0.1561-0.3142 0.1588h-0.032v0.0997zm-0.9698-1.3962 0.4558-1.3847h0.0246v0.0211l-0.0054 0.0014 0.0054-0.0014v-0.0211h0.0144l0.4488 1.3847h-0.9436zm0.0573-0.0413h0.8304l-0.4129-1.2711-0.4175 1.2711zm0.4033-1.3162 0.0094-0.0034-0.0094 0.0034z" clip-rule="evenodd" fill="#1A1919" fill-rule="evenodd"/>
<path d="m47.159 34.075c0 0.1908 0.1319 0.247 0.2842 0.2668 0.1943 0.0142 0.4081 0.0142 0.6271-0.0101 0.1991-0.0239 0.3699-0.1371 0.4551-0.2567 0.0754-0.1042 0.1182-0.2372 0.1473-0.3414h0.1373c-0.0523 0.2706-0.1186 0.5367-0.1756 0.8069-0.4168 0-0.8358-0.0183-1.2528-0.0183-0.4181 0-0.8354 0.0183-1.253 0.0183v-0.1427h0.0658c0.1712 0 0.357-0.0233 0.357-0.3176v-2.4394c0-0.2474-0.1858-0.2711-0.357-0.2711h-0.0658v-0.1424c0.2512 0 0.4984 0.0188 0.7496 0.0188 0.2425 0 0.4793-0.0188 0.7221-0.0188v0.1424h-0.1193c-0.1804 0-0.322 0.0051-0.322 0.2566v2.4487" clip-rule="evenodd" fill="#1A1919" fill-rule="evenodd"/>
<path d="m48.635 34.56c-0.4186 0-0.8367-0.019-1.253-0.019-0.4176 0-0.8353 0.019-1.2539 0.019h-0.02v-0.1834h0.0866c0.1716-0.0042 0.3346-0.0162 0.3366-0.2972v-2.4402c-2e-3 -0.2311-0.1643-0.2465-0.3366-0.2496h-0.0866v-0.1838h0.02c0.2528 0 0.4998 0.0185 0.7501 0.0185 0.2417 0 0.4781-0.0185 0.7224-0.0185h0.0191v0.1838h-0.1384c-0.1841 0.0047-0.2984-0.0036-0.3025 0.2359v2.4487c0.0012 0.1775 0.1175 0.2249 0.2659 0.2461 0.0835 0.0058 0.1719 0.0088 0.2632 0.0088 0.1161 0 0.2366-0.0054 0.3593-0.0183 0.1934-0.023 0.3597-0.1348 0.4418-0.2479 0.0733-0.1016 0.1147-0.2316 0.1434-0.3349l4e-3 -0.0157h0.1789l-0.0041 0.025c-0.0537 0.2713-0.1191 0.5361-0.1766 0.8067l-0.0038 0.016h-0.0158zm-0.0174-0.041c0.0549-0.2578 0.1169-0.5099 0.1683-0.7659h-0.0979c-0.0291 0.1033-0.0715 0.2307-0.1459 0.334-0.0888 0.1229-0.2645 0.239-0.4704 0.2645-0.1241 0.0126-0.2476 0.019-0.3638 0.019-0.092 0-0.1807-0.0041-0.2672-0.0102-0.1543-0.0169-0.3036-0.0832-0.3034-0.2862v-2.4487c0-0.2639 0.1669-0.2776 0.344-0.2776h0.0978v-0.101c-0.2338 0.0015-0.4646 0.0193-0.7009 0.0193-0.2452 0-0.4858-0.0178-0.7287-0.0193v0.101h0.0452c0.1693 0 0.3765 0.0297 0.3765 0.2913v2.4402c0 0.3072-0.2063 0.339-0.3765 0.339h-0.0452v0.1006c0.41-9e-4 0.8203-0.0187 1.2325-0.0187 0.4127 0 0.8247 0.0178 1.2356 0.0187z" clip-rule="evenodd" fill="#1A1919" fill-rule="evenodd"/>
<path d="m19.106 14.47c0-4.4398 3.5991-8.0388 8.0386-8.0388 4.4398 0 8.0389 3.599 8.0389 8.0388 0 4.4397-3.5991 8.039-8.0389 8.039-4.4395 0-8.0386-3.5993-8.0386-8.039" clip-rule="evenodd" fill="#FFFFFE" fill-rule="evenodd"/>
<path d="m32.006 14.312c-0.0033-2.0586-1.29-3.8143-3.1032-4.5096v9.0189c1.8132-0.6962 3.0999-2.4503 3.1032-4.5093zm-6.5622 4.5075v-9.0162c-1.8116 0.69749-3.0964 2.4507-3.1012 4.5087 0.0048 2.0576 1.2896 3.8106 3.1012 4.5075zm1.7304-12.131c-4.21 0.00162-7.6208 3.4131-7.6215 7.623 7e-4 4.2095 3.4115 7.6204 7.6215 7.6211 4.2099-7e-4 7.6215-3.4116 7.6225-7.6211-1e-3 -4.2099-3.4126-7.6214-7.6225-7.623zm-0.0187 15.964c-4.6068 0.022-8.3985-3.7103-8.3985-8.2535 0-4.9653 3.7917-8.3996 8.3985-8.3987h2.1589c4.5524-9e-4 8.7072 3.4318 8.7072 8.3987 0 4.5416-4.1548 8.2535-8.7072 8.2535h-2.1589z" clip-rule="evenodd" fill="#0069AA" fill-rule="evenodd"/>
<path d="m8.0207 34.398h0.06666c0.17068 0 0.35107-0.0233 0.35107-0.2704v-2.4866c0-0.2474-0.18039-0.2709-0.35107-0.2709h-0.06666v-0.1426c0.18506 0 0.46983 0.0188 0.70304 0.0188 0.23716 0 0.52157-0.0188 0.74472-0.0188v0.1426h-0.06702c-0.16996 0-0.35071 0.0235-0.35071 0.2709v2.4866c0 0.2471 0.18075 0.2704 0.35071 0.2704h0.06702v0.1427c-0.22764 0-0.51313-0.0183-0.74957-0.0183-0.23303 0-0.51313 0.0183-0.69819 0.0183v-0.1427" clip-rule="evenodd" fill="#1A1919" fill-rule="evenodd"/>
<path d="m9.4684 34.56c-0.22962 0-0.51367-0.019-0.74993-0.019-0.23231 0-0.51151 0.019-0.69783 0.019h-0.02066v-0.1834h0.08696c0.1723-0.0042 0.32897-0.018 0.33041-0.25v-2.4865c-0.00144-0.2324-0.15811-0.2474-0.33041-0.2505h-0.08696v-0.1838h0.02066c0.18632 0 0.47091 0.0185 0.70304 0.0185 0.23608 0 0.52031-0.0185 0.74472-0.0185h0.0212v0.1838h-0.08732c-0.17248 0.0031-0.33005 0.0181-0.33095 0.2505v2.4865c9e-4 0.232 0.15847 0.2458 0.33095 0.25h0.08732v0.1834h-0.0212zm-0.02049-0.0406 1.8e-4 -0.101h-0.04581c-0.16979 0-0.37155-0.0298-0.37263-0.2918v-2.4865c0.00108-0.2625 0.20284-0.2918 0.37263-0.2918h0.04563v-0.1014c-0.21901 2e-4 -0.49408 0.0193-0.72423 0.0193-0.22548 0-0.4984-0.0178-0.6822-0.0193v0.1014h0.04546c0.16924 0 0.37137 0.0293 0.37137 0.2918v2.4865c0 0.262-0.20213 0.2918-0.37137 0.2918h-0.04546v0.101c0.1838-0.0016 0.45186-0.0191 0.67699-0.0191 0.23123 0 0.50558 0.0178 0.72944 0.0191z" clip-rule="evenodd" fill="#1A1919" fill-rule="evenodd"/>
<path d="m48.752 31.092c0.2864 0 0.5 0.2199 0.5 0.5009 0 0.2808-0.2136 0.4984-0.5 0.4984-0.2857 0-0.4996-0.2176-0.4996-0.4984 0-0.281 0.2139-0.5009 0.4996-0.5009zm0 0.9064c0.2242 0 0.3955-0.1906 0.3955-0.4055 0-0.2152-0.1693-0.4073-0.3955-0.4073-0.2249 0-0.396 0.1921-0.396 0.4073 0 0.2149 0.1711 0.4055 0.396 0.4055zm-0.2485-0.1419v-0.0243c0.0611-0.0088 0.0726-0.0072 0.0726-0.0445v-0.3705c0-0.0521-0.0052-0.0701-0.0706-0.0672v-0.0255h0.2559c0.0878 0 0.1688 0.042 0.1688 0.1329 0 0.0743-0.0488 0.1294-0.1182 0.1508l0.0823 0.1146c0.0383 0.0518 0.0819 0.1006 0.11 0.1179v0.0158h-0.0972c-0.0467 0-0.0881-0.0981-0.1797-0.2298h-0.0553v0.1656c0 0.0327 0.0115 0.0311 0.0729 0.0399v0.0243h-0.2415zm0.1686-0.2636h0.0589c0.0645 0 0.0943-0.0487 0.0943-0.1275 0-0.0795-0.046-0.1077-0.0975-0.1077h-0.0557v0.2352z" clip-rule="evenodd" fill="#1A1919" fill-rule="evenodd"/>
</svg>
