<?xml version="1.0" encoding="utf-8"?>
<!-- Generator: Adobe Illustrator 23.0.1, SVG Export Plug-In . SVG Version: 6.00 Build 0)  -->
<svg version="1.1" id="Layer_1" xmlns="http://www.w3.org/2000/svg" xmlns:xlink="http://www.w3.org/1999/xlink" x="0px" y="0px"
	 viewBox="0 0 126.4 79.4" style="enable-background:new 0 0 126.4 79.4;" xml:space="preserve">
<style type="text/css">
	.st0{fill:#F58220;}
	.st1{fill:url(#SVGID_1_);}
	.st2{fill:#001722;}
	.st3{fill:#231F20;}
</style>
<path class="st0" d="M34.5,79.4h87.7h4.2v-4.3V45.2C118,50.6,86.3,69.1,34.5,79.4z"/>
<radialGradient id="SVGID_1_" cx="58.315" cy="528.38" r="6.1809" gradientTransform="matrix(1 0 0 -1 6.42 568.08)" gradientUnits="userSpaceOnUse">
	<stop  offset="1.000000e-02" style="stop-color:#FFEEE0"/>
	<stop  offset="0.11" style="stop-color:#FEE9D7"/>
	<stop  offset="0.28" style="stop-color:#FDDBBF"/>
	<stop  offset="0.49" style="stop-color:#FBC597"/>
	<stop  offset="0.74" style="stop-color:#F8A560"/>
	<stop  offset="1" style="stop-color:#F48120"/>
</radialGradient>
<path class="st1" d="M64.8,33.6c-3.4-0.1-6.2,2.6-6.3,6c-0.1,3.4,2.5,6.4,6,6.5c3.4,0.1,6.4-2.5,6.5-6c0.1-3.4-2.5-6.4-6-6.5
	C64.9,33.6,64.8,33.6,64.8,33.6z"/>
<path class="st2" d="M29.2,33.8h-3.4v11.7h3.4c1.5,0.1,3-0.4,4.2-1.3c1.3-1.1,2.1-2.8,2.1-4.5C35.5,36.2,32.9,33.8,29.2,33.8z
	 M31.9,42.6c-0.9,0.7-2,1-3.1,0.9h-0.6v-7.8h0.6c1.1-0.1,2.3,0.3,3.1,1c0.8,0.8,1.3,1.8,1.3,2.9C33.1,40.8,32.7,41.9,31.9,42.6z"/>
<rect x="36.6" y="33.8" class="st2" width="2.3" height="11.7"/>
<path class="st2" d="M44.5,38.3c-1.4-0.5-1.8-0.8-1.8-1.5s0.7-1.3,1.7-1.3c0.7,0,1.4,0.4,1.8,0.9l1.2-1.6c-0.9-0.8-2.2-1.3-3.4-1.3
	c-1.9-0.1-3.5,1.3-3.7,3.2c0,0.1,0,0.1,0,0.2c0,1.6,0.7,2.4,2.9,3.2c0.6,0.2,1.1,0.4,1.6,0.7c0.4,0.3,0.7,0.7,0.7,1.2
	c0,0.9-0.8,1.7-1.7,1.7c0,0-0.1,0-0.1,0c-1.1,0-2-0.6-2.5-1.6l-1.5,1.4c0.9,1.4,2.4,2.3,4.1,2.2c2.1,0.1,3.9-1.5,4-3.6
	c0-0.1,0-0.2,0-0.3C47.8,40.1,47.1,39.3,44.5,38.3z"/>
<path class="st2" d="M48.5,39.7c0,3.4,2.7,6.1,6,6.1c0.1,0,0.1,0,0.2,0c1,0,2-0.2,2.9-0.7v-2.7c-0.7,0.8-1.7,1.3-2.8,1.3
	c-2.1,0.1-3.9-1.6-3.9-3.7c0-0.1,0-0.2,0-0.3c-0.1-2.2,1.6-3.9,3.8-4c0,0,0,0,0,0c1.1,0,2.1,0.5,2.9,1.3v-2.7
	c-0.9-0.5-1.8-0.7-2.8-0.7C51.4,33.5,48.6,36.2,48.5,39.7C48.6,39.7,48.6,39.7,48.5,39.7z"/>
<polygon class="st2" points="76.2,41.7 73,33.8 70.5,33.8 75.5,45.8 76.8,45.8 81.8,33.8 79.3,33.8 "/>
<polygon class="st2" points="82.9,45.5 89.4,45.5 89.4,43.6 85.2,43.6 85.2,40.4 89.2,40.4 89.2,38.4 85.2,38.4 85.2,35.8 
	89.4,35.8 89.4,33.8 82.9,33.8 "/>
<path class="st2" d="M98.4,37.3c0-2.2-1.5-3.5-4.2-3.5h-3.4v11.7h2.3v-4.7h0.3l3.2,4.7h2.8l-3.7-5C97.4,40.4,98.5,38.9,98.4,37.3z
	 M93.8,39.2h-0.7v-3.5h0.7c1.4,0,2.2,0.6,2.2,1.7S95.3,39.2,93.8,39.2z"/>
<path class="st3" d="M100,34.7c0-0.2-0.1-0.3-0.4-0.3h-0.3v1h0.2V35l0.3,0.4h0.3L99.8,35C99.9,35,100,34.8,100,34.7z M99.6,34.8
	L99.6,34.8v-0.3l0,0c0.1,0,0.2,0,0.2,0.1S99.7,34.8,99.6,34.8L99.6,34.8z"/>
<path class="st3" d="M99.7,34c-0.5,0-0.9,0.4-0.9,0.9c0,0.5,0.4,0.9,0.9,0.9s0.9-0.4,0.9-0.9c0,0,0,0,0,0
	C100.6,34.4,100.2,34,99.7,34z M99.7,35.6c-0.4,0-0.7-0.3-0.7-0.7c0-0.4,0.3-0.7,0.7-0.7c0.4,0,0.7,0.3,0.7,0.7
	C100.4,35.3,100.1,35.6,99.7,35.6z"/>
</svg>
