<svg version="1.1" viewBox="0 0 300 194.63" xmlns="http://www.w3.org/2000/svg">
<g transform="translate(-265.16 -409)">
<g transform="matrix(1.3656 0 0 1.3656 -96.939 -220.68)" fill-rule="evenodd">
<path d="m265.16 591.12v-120.41s1.6016-9.6069 15.051-9.6069c13.45 0 194.39 0.321 194.39 0.321s10.248 0 10.248 14.091v118.49s-0.96125 9.6075-13.451 9.6075h-193.42s-10.889 0.96125-12.81-12.489z" fill="#8d1238"/>
<path d="m478.64 544.05 5e-3 -20.71h-54.654s-0.96 0.21487-0.96-0.85325c0-1.0681 7e-3 -11.849 7e-3 -11.849s-0.22-0.88501 1.2725-0.88501c1.4938 0 49.53-0.033 49.53-0.033s4.4838 0.17087 4.4838-4.8461v-14.732s-0.53625-19.214-22.738-22.096h-29.995s-23.772 0.0245-25.374 24.255c0 21.991 0.075 30.718 0.075 30.718s1.2812 19.96 23.91 21.047l54.436-0.0163z" fill="#fff"/>
<path d="m423.76 488.24h31.544l5e-3 6.2439s0.315 0.64087-0.965 0.64087h-31.595l-0.03-5.7641s-0.15875-1.1206 1.0412-1.1206z" fill="#8d1238"/>
<path d="m325.04 585-1.7615 6.7912-20.656-0.03s-6.1645 0.08-6.3245-6.805c1.521-6.805 3.6829-13.851 3.6829-13.851s1.4405-5.7638 8.6462-5.685c6.7249 0.0762 14.01 0.055 14.01 0.055s6.3672 0.4375 5.7654 6.35c-0.48088 4.725-0.96063 5.285-0.96063 5.285s0.23925 2.9625-4.5642 2.8575l-16.093-0.055s-1.1206-0.16125-1.6016 1.04c-0.47963 1.2012-1.04 2.5625-1.04 2.5625s-0.31975 1.4262 0.88137 1.5062l20.015-0.0212z" fill="#fff"/>
<path d="m308.55 572.39h11.368s0.802-0.16125 0.64087 0.72c-0.15987 0.88125 0.2405 2.2412-1.6809 2.2412-1.9214 0-11.368 0.045-11.368 0.045s-0.96063 0.115-0.72138-0.685c0.2405-0.8025 0.481-2.4025 1.7615-2.3212z" fill="#8d1238"/>
<path d="m342.18 591.77 7.2852-25.78s1.8408-5.685 6.8041-5.685c1.1206-0.08 2.3218 0.08 2.3218 0.08l-1.2011 5.3638 6.0046 0.06-1.842 7.5112-5.2026-0.045s-0.96075-0.16-1.4405 1.2012c-0.64088 1.8138-5.0451 17.328-5.0451 17.328l-7.6844-0.0338z" fill="#fff"/>
<path d="m325.44 591.81 9.607-33.705s2.3218-5.0438 7.4462-5.0438c5.1232 0 7.6855 0.0287 7.6855 0.0287l-1.6821 6.7812-4.0026-6e-3s-2.2412-0.23875-2.7221 1.2812c-0.47975 1.5212-0.80087 2.6425-0.80087 2.6425s-0.7995 1.8412 0.80087 1.8412c1.6028 0 5.2038 0.03 5.2038 0.03l-2.0006 7.335h-4.2445s-2.1606-0.335-2.7209 1.6825c-0.66525 2.3938-4.8048 17.132-4.8048 17.132h-7.7649z" fill="#fff"/>
<path d="m356.51 598.57 7.8455-27.621s1.9226-5.3638 7.5256-5.3638h15.13s6.405 0.24125 5.685 7.125l-3.4425 13.13s-1.2012 5.925-9.2062 5.925h-11.208l1.9226-7.5262 9.3658 0.0713s1.9212 0.32875 2.3212-1.5112c0.64125-2.2425 2.4025-8.6462 2.4025-8.6462s0.72-1.2012-0.9625-1.2012h-10.646s-1.5199-0.32125-2.0008 1.28c-0.56163 1.8425-7.0448 24.418-7.0448 24.418l-7.6868-0.0788z" fill="#fff"/>
<path d="m392.45 583.03 3.0425-11.209s1.7612-6.2438 7.605-6.2438h15.132s7.445 0.48 6.005 7.2062c-1.4412 6.725-3.3638 12.969-3.3638 12.969s-1.3612 6.005-8.8062 6.005h-12.889s-8.5675 0-6.7262-8.7275z" fill="#fff"/>
<path d="m404.78 572.87 10.086 0.055s1.7625-0.295 1.5212 0.90625c-0.23875 1.2012-2.4012 8.7262-2.4012 8.7262s-0.48 1.2812-1.8412 1.3612c-1.9238 0.1125-11.048 0-11.048 0s-1.2012 0.0812-0.80125-1.2012c0.55125-1.7638 2.5612-8.9662 2.5612-8.9662s0.08-0.88125 1.9225-0.88125z" fill="#8d1238"/>
<path d="m422.8 591.8 1.6812-7.135 18.172-0.0312s1.6012 0.32125 2.0025-1.4412c0.16-1.28 0.16-1.43 0.16-1.43l-10.569-0.01s-8.2462 0.4-7.765-7.4462c0.48-7.8462 6.645-8.8875 8.7262-8.8875h20.255l-1.8412 6.8062h-17.294s-1.28-0.16-1.52 1.3612c0 0-0.88125 1.52 0.72 1.6012 1.6012 0.0788 10.729 0 10.729 0s7.125-0.24125 6.725 6.6438c-0.40125 6.8862-4.255 9.9288-8.8162 9.9288l-21.366 0.04z" fill="#fff"/>
</g>
</g>
</svg>
