<?xml version="1.0" encoding="UTF-8"?>
<svg version="1.1" viewBox="0 0 200 127.05" xmlns="http://www.w3.org/2000/svg">
<g transform="translate(-296.43 -428.21)">
<g transform="matrix(.92593 0 0 -.92593 112.54 857.69)">
<path d="m414.6 326.62h-216v137.21h216v-137.21z" fill="#fff"/>
<path d="m202.2 348.92h208.8v-18.722h-208.8v18.722z" fill="#f7b600"/>
<path d="m202.2 441.51h208.8v18.72h-208.8v-18.72z" fill="#1a1f71"/>
<g clip-path="url(#clipPath4157)">
<g transform="translate(302.45 424.61)">
<path d="m0 0-10.464-48.917h-12.656l10.464 48.917h12.656zm53.24-31.586 6.664 18.37 3.828-18.37h-10.492zm14.127-17.331h11.701l-10.223 48.917h-10.796c-2.435 0-4.481-1.413-5.389-3.586l-18.99-45.331h13.29l2.636 7.307h16.237l1.534-7.307zm-33.037 15.971c0.053 12.908-17.848 13.624-17.731 19.392 0.043 1.753 1.713 3.62 5.369 4.097 1.811 0.234 6.814 0.421 12.481-2.19l2.217 10.379c-3.045 1.101-6.963 2.161-11.837 2.161-12.511 0-21.312-6.645-21.382-16.168-0.082-7.044 6.286-10.97 11.075-13.316 4.933-2.396 6.587-3.936 6.564-6.077-0.035-3.282-3.939-4.735-7.569-4.789-6.365-0.101-10.055 1.72-12.998 3.091l-2.297-10.723c2.961-1.357 8.418-2.536 14.07-2.596 13.3 0 21.999 6.569 22.038 16.739m-52.415 32.946-20.504-48.917h-13.378l-10.091 39.04c-0.611 2.399-1.143 3.282-3.005 4.296-3.043 1.653-8.068 3.199-12.485 4.161l0.298 1.42h21.537c2.741 0 5.209-1.825 5.836-4.985l5.332-28.309 13.163 33.294h13.297z" fill="#1a1f71"/>
</g>
<g transform="translate(318.64 362.23)">
<path d="m0 0h-5.142v-4.786h5.752v-1.439h-7.485v13.278h7.19v-1.439h-5.457v-4.195h5.142v-1.419z" fill="#1a1f71"/>
</g>
<path d="m321.91 369.99h1.733v-13.986h-1.733v13.986z" fill="#1a1f71"/>
<g transform="translate(333.1 361.7)">
<path d="m0 0c0.02 1.083-0.453 2.797-2.403 2.797-1.773 0-2.522-1.596-2.66-2.797h5.063zm-5.082-1.241c0.039-2.345 1.517-3.31 3.269-3.31 1.242 0 2.01 0.217 2.641 0.492l0.315-1.241c-0.611-0.275-1.674-0.61-3.192-0.61-2.934 0-4.687 1.95-4.687 4.826s1.693 5.122 4.471 5.122c3.132 0 3.94-2.719 3.94-4.472 0-0.354-0.02-0.61-0.06-0.807h-6.697z" fill="#1a1f71"/>
</g>
<g transform="translate(344.2 356.34)">
<path d="m0 0c-0.453-0.217-1.458-0.552-2.738-0.552-2.876 0-4.747 1.95-4.747 4.866 0 2.935 2.008 5.082 5.121 5.082 1.024 0 1.93-0.255 2.403-0.512l-0.393-1.32c-0.415 0.217-1.065 0.454-2.01 0.454-2.187 0-3.368-1.635-3.368-3.606 0-2.206 1.418-3.565 3.309-3.565 0.985 0 1.635 0.236 2.127 0.453l0.296-1.3z" fill="#1a1f71"/>
</g>
<g transform="translate(349.07 367.82)">
<path d="m0 0v-2.285h2.481v-1.319h-2.481v-5.142c0-1.183 0.335-1.852 1.3-1.852 0.472 0 0.749 0.039 1.005 0.119l0.079-1.321c-0.335-0.118-0.867-0.236-1.537-0.236-0.808 0-1.458 0.276-1.871 0.728-0.473 0.533-0.67 1.379-0.67 2.502v5.202h-1.478v1.319h1.478v1.773l1.694 0.512z" fill="#1a1f71"/>
</g>
<g transform="translate(353.97 362.56)">
<path d="m0 0c0 1.123-0.021 2.088-0.079 2.975h1.517l0.079-1.891h0.058c0.434 1.28 1.497 2.088 2.659 2.088 0.178 0 0.316-0.02 0.474-0.039v-1.636c-0.178 0.04-0.354 0.04-0.592 0.04-1.22 0-2.088-0.906-2.324-2.207-0.039-0.236-0.059-0.531-0.059-0.808v-5.082h-1.733v6.56z" fill="#1a1f71"/>
</g>
<g transform="translate(361.79 360.75)">
<path d="m0 0c0-2.088 1.182-3.664 2.876-3.664 1.655 0 2.895 1.557 2.895 3.704 0 1.615-0.807 3.645-2.856 3.645-2.028 0-2.915-1.892-2.915-3.685m7.545 0.099c0-3.526-2.463-5.063-4.748-5.063-2.561 0-4.569 1.892-4.569 4.905 0 3.172 2.107 5.043 4.727 5.043 2.738 0 4.59-1.989 4.59-4.885" fill="#1a1f71"/>
</g>
<g transform="translate(371.99 362.96)">
<path d="m0 0c0 1.004-0.021 1.792-0.079 2.58h1.536l0.099-1.576h0.039c0.473 0.887 1.576 1.773 3.152 1.773 1.319 0 3.368-0.788 3.368-4.057v-5.674h-1.733v5.496c0 1.536-0.571 2.817-2.206 2.817-1.123 0-2.01-0.808-2.324-1.773-0.08-0.217-0.119-0.512-0.119-0.808v-5.732h-1.733v6.954z" fill="#1a1f71"/>
</g>
</g>
</g>
</g>
</svg>
