<?xml version="1.0" encoding="UTF-8"?>
<svg viewBox="0 0 74 29" xmlns="http://www.w3.org/2000/svg">
<g fill-rule="evenodd">
<path d="M11.552 6.174a8.538 8.538 0 0 1 2.66-.42c4.06 0 7.449 2.824 8.225 6.58l5.753-1.15C26.87 4.801 21.115 0 14.213 0c-1.582 0-3.1.252-4.523.718l1.862 5.456z" fill="#FFCA05"/>
<path d="M4.872 24.667l3.938-4.353c-1.758-1.523-2.867-3.745-2.867-6.22 0-2.475 1.107-4.696 2.864-6.217L4.87 3.524C1.884 6.11 0 9.887 0 14.094c0 4.208 1.884 7.986 4.872 10.573" fill="#00A4DF"/>
<path d="M22.438 15.857c-.779 3.755-4.164 6.577-8.22 6.577a8.49 8.49 0 0 1-2.664-.423L9.69 27.473c1.422.466 2.944.717 4.527.717 6.894 0 12.648-4.797 13.973-11.176l-5.752-1.157z" fill="#EE4123"/>
<path d="M44.476 18.725l-.004.004-.163-.11c-.47.764-1.2 1.384-2.125 1.786-1.757.767-3.385.57-4.554-.46l-.107.164c-.002-.002-.002-.003-.004-.003l-1.994 2.996a8.524 8.524 0 0 0 1.585.872c2.203.92 4.456.877 6.676-.093 1.607-.699 2.866-1.765 3.728-3.116l-3.038-2.04zm-6.225-7.393c-1.855.8-2.812 2.549-2.615 4.599l7.86-3.398c-1.352-1.596-3.11-2.124-5.245-1.201zm-5.218 9.128a10.248 10.248 0 0 1-.596-1.153c-.907-2.115-.95-4.303-.185-6.404.842-2.304 2.45-4.068 4.529-4.966 2.613-1.13 5.502-.907 8.006.586 1.591.916 2.719 2.332 3.575 4.333.11.256.205.53.299.763l-15.628 6.84zm21.09-16.936v16.659l2.579 1.05-1.465 3.434-2.846-1.19c-.639-.279-1.074-.704-1.403-1.184-.315-.49-.55-1.16-.55-2.065V3.524h3.685zm6.68 12.415a4.722 4.722 0 0 0 1.6 3.552l-2.642 2.966a8.698 8.698 0 0 1-2.918-6.522 8.695 8.695 0 0 1 2.927-6.514l2.645 2.963a4.72 4.72 0 0 0-1.612 3.555zm4.7 4.728c2.272.002 4.168-1.615 4.61-3.766l3.883.796c-.81 3.969-4.308 6.954-8.497 6.95a8.628 8.628 0 0 1-2.75-.451l1.264-3.773c.468.156.97.243 1.49.244zm.012-13.428c4.192.003 7.686 3 8.485 6.974l-3.884.79a4.708 4.708 0 0 0-4.605-3.785 4.72 4.72 0 0 0-1.491.242l-1.252-3.777a8.62 8.62 0 0 1 2.747-.444z"/>
</g>
</svg>
