<?xml version="1.0" encoding="utf-8"?>
<!-- Generator: Adobe Illustrator 23.0.1, SVG Export Plug-In . SVG Version: 6.00 Build 0)  -->
<svg version="1.1" id="Layer_1" xmlns="http://www.w3.org/2000/svg" xmlns:xlink="http://www.w3.org/1999/xlink" x="0px" y="0px"
	 viewBox="0 0 126.4 79.4" style="enable-background:new 0 0 126.4 79.4;" xml:space="preserve">
<style type="text/css">
	.st0{fill-rule:evenodd;clip-rule:evenodd;fill:#FF0018;}
	.st1{fill:#FFAA18;}
	.st2{fill:#FFFFFF;}
</style>
<ellipse class="st0" cx="48.2" cy="39.6" rx="22.6" ry="22.5"/>
<path class="st1" d="M78.2,17.2c-5.8,0-11,2.2-15,5.7c4.6,4.1,7.6,10.1,7.6,16.8s-2.9,12.7-7.6,16.8c4,3.5,9.2,5.7,15,5.7
	c12.5,0,22.6-10.1,22.6-22.5S90.7,17.2,78.2,17.2z"/>
<g>
	<path class="st1" d="M58.2,49.9l11.2-0.1c0.2-0.4,0.4-0.9,0.6-1.3H57.5C57.7,49,57.9,49.5,58.2,49.9z"/>
	<path class="st1" d="M56.2,44.5h15.1c0.1-0.5,0.2-0.9,0.3-1.4H55.9C56,43.6,56.1,44,56.2,44.5z"/>
	<path class="st1" d="M58.9,51.2c0.3,0.5,0.6,0.9,0.9,1.4h7.9c0.3-0.5,0.6-0.9,0.9-1.4L58.9,51.2z"/>
	<path class="st1" d="M60.8,53.9c0.4,0.5,0.8,0.9,1.2,1.4h3.4c0.4-0.4,0.9-0.9,1.2-1.4H60.8z"/>
	<path class="st1" d="M56.5,45.8c0.1,0.5,0.3,0.9,0.4,1.4h13.5c0.2-0.5,0.3-0.9,0.4-1.4H56.5z"/>
	<path class="st1" d="M68.9,28.5c-0.3-0.5-0.6-0.9-0.9-1.4h-8.5c-0.3,0.4-0.6,0.9-0.9,1.4H68.9z"/>
	<path class="st1" d="M71.1,34c-0.1-0.5-0.3-0.9-0.4-1.4H56.8c-0.1,0.5-0.3,0.9-0.4,1.4H71.1z"/>
	<path class="st1" d="M69.6,30H57.8c-0.2,0.5-0.4,0.9-0.6,1.4h13C70.1,30.9,69.8,30.5,69.6,30z"/>
	<path class="st1" d="M56.1,35.4c-0.1,0.5-0.2,0.9-0.2,1.4h15.8c-0.1-0.5-0.1-0.9-0.2-1.4H56.1z"/>
	<path class="st1" d="M55.8,41.8h16c0-0.5,0.1-0.9,0.1-1.4H55.7C55.7,40.9,55.7,41.3,55.8,41.8z"/>
	<path class="st1" d="M67.1,25.9c-0.4-0.5-0.8-0.9-1.2-1.4h-4.4c-0.4,0.4-0.8,0.9-1.2,1.4H67.1z"/>
</g>
<path id="text9407" class="st1" d="M98.3,52.5c0.2,0,0.4,0,0.5,0.1c0.2,0.1,0.3,0.2,0.4,0.4c0.1,0.2,0.1,0.3,0.1,0.5
	c0,0.2,0,0.4-0.1,0.5c-0.1,0.2-0.2,0.3-0.4,0.4c-0.2,0.1-0.3,0.1-0.5,0.1c-0.2,0-0.4,0-0.5-0.1c-0.2-0.1-0.3-0.2-0.4-0.4
	c-0.1-0.2-0.1-0.3-0.1-0.5c0-0.2,0-0.4,0.1-0.5c0.1-0.2,0.2-0.3,0.4-0.4C98,52.5,98.1,52.5,98.3,52.5 M98.3,52.6
	c-0.1,0-0.3,0-0.4,0.1c-0.1,0.1-0.3,0.2-0.3,0.3c-0.1,0.1-0.1,0.3-0.1,0.4c0,0.2,0,0.3,0.1,0.4c0.1,0.1,0.2,0.3,0.3,0.3
	c0.1,0.1,0.3,0.1,0.4,0.1c0.2,0,0.3,0,0.4-0.1c0.1-0.1,0.3-0.2,0.3-0.3c0.1-0.1,0.1-0.3,0.1-0.4c0-0.2,0-0.3-0.1-0.4
	c-0.1-0.1-0.2-0.3-0.3-0.3C98.6,52.7,98.5,52.6,98.3,52.6 M97.9,54.1V53h0.4c0.1,0,0.2,0,0.3,0c0.1,0,0.1,0.1,0.1,0.1
	c0,0.1,0.1,0.1,0.1,0.2c0,0.1,0,0.2-0.1,0.2c-0.1,0.1-0.1,0.1-0.2,0.1c0,0,0.1,0,0.1,0.1c0,0,0.1,0.1,0.2,0.2l0.1,0.2h-0.2l-0.1-0.2
	c-0.1-0.1-0.1-0.2-0.2-0.3c0,0-0.1,0-0.1,0H98v0.5L97.9,54.1 M98,53.5h0.2c0.1,0,0.2,0,0.2,0c0,0,0.1-0.1,0.1-0.1c0,0,0-0.1,0-0.1
	c0,0,0,0-0.1-0.1c0,0-0.1,0-0.2,0H98L98,53.5"/>
<path id="path3447" class="st2" d="M98.3,43.3c0.2,0,0.4,0,0.5,0.1c0.2,0.1,0.3,0.2,0.4,0.4c0.1,0.2,0.1,0.3,0.1,0.5
	c0,0.2,0,0.4-0.1,0.5c-0.1,0.2-0.2,0.3-0.4,0.4c-0.2,0.1-0.3,0.1-0.5,0.1c-0.2,0-0.4,0-0.5-0.1c-0.2-0.1-0.3-0.2-0.4-0.4
	c-0.1-0.2-0.1-0.3-0.1-0.5c0-0.2,0-0.4,0.1-0.5c0.1-0.2,0.2-0.3,0.4-0.4C98,43.3,98.1,43.3,98.3,43.3 M98.3,43.5
	c-0.1,0-0.3,0-0.4,0.1c-0.1,0.1-0.3,0.2-0.3,0.3c-0.1,0.1-0.1,0.3-0.1,0.4c0,0.2,0,0.3,0.1,0.4c0.1,0.1,0.2,0.3,0.3,0.3
	c0.1,0.1,0.3,0.1,0.4,0.1c0.2,0,0.3,0,0.4-0.1c0.1-0.1,0.3-0.2,0.3-0.3c0.1-0.1,0.1-0.3,0.1-0.4c0-0.2,0-0.3-0.1-0.4
	c-0.1-0.1-0.2-0.3-0.3-0.3C98.6,43.5,98.5,43.5,98.3,43.5 M97.9,45v-1.1h0.4c0.1,0,0.2,0,0.3,0c0.1,0,0.1,0.1,0.1,0.1
	c0,0.1,0.1,0.1,0.1,0.2c0,0.1,0,0.2-0.1,0.2c-0.1,0.1-0.1,0.1-0.2,0.1c0,0,0.1,0,0.1,0.1c0,0,0.1,0.1,0.2,0.2l0.1,0.2h-0.2l-0.1-0.2
	c-0.1-0.1-0.1-0.2-0.2-0.3c0,0-0.1,0-0.1,0H98V45L97.9,45 M98,44.3h0.2c0.1,0,0.2,0,0.2,0c0,0,0.1-0.1,0.1-0.1c0,0,0-0.1,0-0.1
	c0,0,0,0-0.1-0.1c0,0-0.1,0-0.2,0H98L98,44.3"/>
<g id="use14699" transform="translate(845.3001,0)">
</g>
<path id="path4157" class="st2" d="M56.2,45l0.3-1.7c-0.2,0-0.4,0.1-0.6,0.1c-0.8,0-0.9-0.4-0.9-0.6l0.7-3.5h1.2l0.3-1.9H56l0.2-1.2
	h-2.4c-0.1,0-1.4,6.6-1.4,7.4c0,1.2,0.8,1.7,1.9,1.7C55.3,45.3,55.9,45.1,56.2,45z"/>
<path id="path4155" class="st2" d="M56.9,41.7c0,2.8,2.2,3.5,4.1,3.5c1.7,0,2.5-0.3,2.5-0.3l0.4-1.9c0,0-1.3,0.5-2.5,0.5
	c-2.5,0-2.1-1.6-2.1-1.6h4.8c0,0,0.3-1.3,0.3-1.8c0-1.3-0.8-2.9-3.4-2.9C58.7,37.1,56.9,39.3,56.9,41.7L56.9,41.7z M61.1,38.9
	c1.3,0,1.1,1.3,1.1,1.4h-2.6C59.5,40.1,59.8,38.9,61.1,38.9z"/>
<path id="path4151" class="st2" d="M76,45l0.4-2.2c0,0-1.2,0.5-2,0.5c-1.7,0-2.3-1.1-2.3-2.3c0-2.4,1.4-3.7,3-3.7
	c1.2,0,2.2,0.6,2.2,0.6l0.4-2.1c0,0-1.4-0.5-2.7-0.5c-2.7,0-5.4,2-5.4,5.8c0,2.5,1.4,4.2,4.2,4.2C74.7,45.3,76,45,76,45L76,45z"/>
<path id="path4149" class="st2" d="M43.2,37.1c-1.6,0-2.9,0.4-2.9,0.4L40,39.3c0,0,1-0.4,2.6-0.4c0.9,0,1.5,0.1,1.5,0.7
	c0,0.4-0.1,0.5-0.1,0.5s-0.7,0-1,0c-2,0-4.2,0.7-4.2,3c0,1.8,1.4,2.2,2.3,2.2c1.7,0,2.4-0.9,2.4-0.9l-0.1,0.8h2.1l0.9-5.6
	C46.4,37.2,44,37.1,43.2,37.1z M43.7,41.6c0,0.3-0.2,1.9-1.7,1.9c-0.7,0-0.9-0.5-0.9-0.8c0-0.6,0.4-1.2,2.1-1.2
	C43.6,41.6,43.6,41.6,43.7,41.6L43.7,41.6z"/>
<path id="path4145" class="st2" d="M48.6,45.2c0.5,0,3.6,0.1,3.6-2.6c0-2.5-2.8-2-2.8-3c0-0.5,0.5-0.7,1.3-0.7
	c0.3,0,1.6,0.1,1.6,0.1l0.3-1.8c0,0-0.8-0.2-2.2-0.2c-1.7,0-3.5,0.6-3.5,2.6c0,2.3,3,2.1,3,3c0,0.6-0.8,0.7-1.5,0.7
	c-1.1,0-2.1-0.3-2.1-0.3L46,45C46,45,46.7,45.2,48.6,45.2L48.6,45.2z"/>
<path id="path4139" class="st2" d="M95.6,35.5L95,38.2c0,0-0.9-1-2.3-1c-2.2,0-4,2.2-4,4.8c0,1.7,1,3.3,2.9,3.3
	c1.4,0,2.2-0.8,2.2-0.8l-0.1,0.7h2.3l1.8-9.6L95.6,35.5z M94.5,40.8c0,1.1-0.6,2.5-1.9,2.5c-0.8,0-1.2-0.6-1.2-1.6
	c0-1.6,0.8-2.6,1.9-2.6C94,39.1,94.5,39.6,94.5,40.8z"/>
<path id="path4133" class="st2" d="M30.4,45.1l1.4-7.2l0.2,7.2h1.6l3-7.2l-1.3,7.2h2.4l1.9-9.6h-3.7l-2.3,5.9l-0.1-5.9H30l-1.9,9.6
	H30.4L30.4,45.1z"/>
<path id="path4131" class="st2" d="M66.8,45.1c0.7-3.3,0.8-6,2.5-5.6c0.3-1.3,0.6-1.8,0.9-2.3c0,0-0.1,0-0.5,0
	c-1.1,0-1.8,1.2-1.8,1.2l0.2-1.1h-2.2l-1.5,7.8H66.8L66.8,45.1z"/>
<path id="path4149_1_" class="st2" d="M81.5,37.1c-1.6,0-2.9,0.4-2.9,0.4l-0.3,1.7c0,0,1-0.4,2.6-0.4c0.9,0,1.5,0.1,1.5,0.7
	c0,0.4-0.1,0.5-0.1,0.5s-0.7,0-1,0c-2,0-4.2,0.7-4.2,3c0,1.8,1.4,2.2,2.3,2.2c1.7,0,2.4-0.9,2.4-0.9l-0.1,0.8c0,0,2.1,0,2.1,0
	l0.9-5.6C84.7,37.2,82.3,37.1,81.5,37.1L81.5,37.1z M82,41.6c0,0.3-0.2,1.9-1.7,1.9c-0.7,0-0.9-0.5-0.9-0.8c0-0.6,0.4-1.2,2.1-1.2
	C81.8,41.6,81.9,41.6,82,41.6L82,41.6z"/>
<path id="path4131_1_" class="st2" d="M86.6,45.1c0.7-3.3,0.8-6,2.5-5.6c0.3-1.3,0.6-1.8,0.9-2.3c0,0-0.1,0-0.5,0
	c-1.1,0-1.8,1.2-1.8,1.2l0.2-1.1h-2.2l-1.5,7.8H86.6L86.6,45.1z"/>
</svg>
