<svg xmlns="http://www.w3.org/2000/svg" viewBox="0 0 130.22 49.36"><path d="M42.68,8.06H76.26V28.21H62.17L76.26,41.1h-12L50.47,28.21V41.1H42.68V20.62H67.3V15.71H42.68Z"/><path d="M79.74,41.1H88V8H79.74Z"/><path d="M14,33.11v-25H7.59a2,2,0,0,0-2,1.94c0,5.92-.07,23.31-.07,29.08a2,2,0,0,0,2,2H26.53v-8Z"/><path d="M30.78,49.36h8.41V32.77H30.78Z"/><path d="M18.12,8.06v8.26H30.78V28.68h8.41V10.07a2.06,2.06,0,0,0-2-2Z"/><path d="M18.12,20.35v8.39h8.35V20.35ZM24,26.19H20.59V22.83H24Z"/><path d="M128.23,32.77V45.13a2,2,0,0,1-2,1.95H113.6v2h14.7a2,2,0,0,0,1.92-2V32.77Z"/><path d="M2.05,16.25V3.89A1.86,1.86,0,0,1,4,2H16.55A.06.06,0,0,0,16.62,2V.07A.07.07,0,0,0,16.55,0H2.05A2,2,0,0,0,0,2V16.25a.07.07,0,0,0,.07.07H2A.07.07,0,0,0,2.05,16.25Z"/><path d="M124.68,16.25V8.06H91.51V28.61H113.6V32.7H91.51V41h33.17V20.42H102.59V16.25Z"/></svg>