<?xml version="1.0" encoding="UTF-8"?>
<svg version="1.1" viewBox="0 0 71.867 18.905" xmlns="http://www.w3.org/2000/svg" xmlns:cc="http://creativecommons.org/ns#" xmlns:dc="http://purl.org/dc/elements/1.1/" xmlns:rdf="http://www.w3.org/1999/02/22-rdf-syntax-ns#">
<g transform="matrix(.35278 0 0 -.35278 67.798 1.4032)">
<path d="m0 0 11.488-22.811-24.15-22.822z" fill="#008c44"/>
</g>
<g transform="matrix(.35278 0 0 -.35278 64.991 1.4032)">
<path d="m0 0 11.471-22.811-24.134-22.822z" fill="#f47920"/>
</g>
<g transform="matrix(.35278 0 0 -.35278 .016111 14.573)">
<path d="m0 0 11.454 41.266h18.312c5.723 0 9.546-0.906 11.491-2.773 1.931-1.852 2.303-4.875 1.139-9.124-0.704-2.503-1.774-4.604-3.244-6.264-1.458-1.663-3.381-2.978-5.749-3.945 2.009-0.483 3.287-1.442 3.86-2.88 0.57-1.438 0.504-3.535-0.188-6.284l-1.393-5.764-4e-3 -0.156c-0.402-1.614-0.283-2.478 0.372-2.548l-0.422-1.528h-12.388c0.042 0.971 0.119 1.839 0.201 2.568 0.09 0.746 0.201 1.324 0.311 1.721l1.155 4.121c0.582 2.143 0.618 3.638 0.078 4.499-0.545 0.884-1.765 1.319-3.691 1.319h-5.206l-3.97-14.228zm18.664 23.527h5.576c1.954 0 3.396 0.279 4.285 0.856 0.893 0.582 1.556 1.565 1.945 2.987 0.403 1.446 0.304 2.454-0.274 3.027-0.577 0.582-1.958 0.865-4.129 0.865h-5.256z" fill="#1b3281"/>
</g>
<g transform="matrix(.35278 0 0 -.35278 26.966 3.8309)">
<path d="m0 0-8.444-30.451h-10.261l1.261 4.461c-1.806-1.774-3.654-3.121-5.517-3.982-1.848-0.876-3.798-1.307-5.851-1.307-1.697 0-3.154 0.308-4.327 0.919-1.187 0.609-2.071 1.535-2.666 2.756-0.528 1.069-0.758 2.389-0.668 3.966 0.095 1.552 0.643 4.17 1.659 7.836l4.376 15.802h11.224l-4.367-15.728c-0.638-2.302-0.79-3.92-0.479-4.801 0.324-0.889 1.189-1.348 2.593-1.348 1.414 0 2.603 0.512 3.585 1.557 0.996 1.036 1.765 2.581 2.343 4.637l4.331 15.683z" fill="#1b3281"/>
</g>
<g transform="matrix(.35278 0 0 -.35278 25.53 14.573)">
<path d="m0 0 11.442 41.266h15.74c3.473 0 6.161-0.205 8.078-0.655 1.913-0.431 3.413-1.131 4.528-2.118 1.397-1.291 2.253-2.889 2.605-4.806 0.331-1.917 0.135-4.15-0.59-6.772-1.282-4.613-3.529-8.148-6.731-10.618-3.212-2.438-7.186-3.663-11.929-3.663h-7.366l-3.499-12.634zm18.566 22.712h3.958c2.559 0 4.358 0.316 5.412 0.926 1.02 0.618 1.745 1.716 2.187 3.277 0.442 1.582 0.328 2.688-0.34 3.306-0.643 0.615-2.286 0.926-4.915 0.926h-3.95z" fill="#1b3281"/>
</g>
<g transform="matrix(.35278 0 0 -.35278 44.935 14.573)">
<path d="m0 0 0.114 2.892c-1.81-1.355-3.643-2.379-5.486-3.019-1.835-0.652-3.789-0.983-5.882-0.983-3.179 0-5.396 0.864-6.678 2.536-1.266 1.675-1.474 4.08-0.61 7.148 0.827 3.028 2.298 5.257 4.42 6.682 2.11 1.442 5.634 2.474 10.578 3.134 0.627 0.102 1.467 0.184 2.519 0.311 3.655 0.423 5.707 1.397 6.149 2.986 0.23 0.87 0.09 1.512-0.45 1.906-0.521 0.409-1.495 0.61-2.901 0.61-1.167 0-2.106-0.242-2.876-0.745-0.769-0.508-1.343-1.25-1.732-2.294h-10.943c0.988 3.428 3.007 6.018 6.038 7.75 3.02 1.762 7.002 2.61 11.934 2.61 2.319 0 4.396-0.217 6.232-0.688 1.839-0.451 3.183-1.094 4.055-1.872 1.073-0.971 1.708-2.078 1.889-3.302 0.209-1.221-0.02-2.971-0.66-5.261l-4.707-16.977c-0.151-0.556-0.18-1.052-0.098-1.503 0.098-0.43 0.286-0.798 0.618-1.061l-0.253-0.86zm2.728 13.597c-1.192-0.479-2.741-0.938-4.666-1.442-3.023-0.811-4.724-1.893-5.092-3.232-0.255-0.861-0.152-1.524 0.269-2.028 0.415-0.479 1.136-0.721 2.152-0.721 1.863 0 3.359 0.471 4.474 1.401 1.118 0.942 1.954 2.421 2.539 4.461 0.102 0.434 0.192 0.746 0.25 0.979z" fill="#1b3281"/>
</g>
<g transform="matrix(.35278 0 0 -.35278 48.941 18.806)">
<path d="m0 0 2.491 9.013h3.212c1.073 0 1.917 0.212 2.515 0.598 0.607 0.401 1.02 1.077 1.258 1.987 0.119 0.401 0.192 0.823 0.242 1.302 0.032 0.508 0.032 1.045 0 1.667l-1.714 27.883h11.361l-0.176-18.476 9.918 18.476h10.565l-17.534-30.304c-1.99-3.387-3.436-5.714-4.354-6.984-0.906-1.254-1.766-2.229-2.601-2.889-1.082-0.913-2.29-1.56-3.594-1.937-1.307-0.385-3.297-0.577-5.972-0.577-0.77 0-1.656 0.015-2.614 0.065-0.951 0.037-1.966 0.094-3.003 0.176" fill="#1b3281"/>
</g>
</svg>
