<svg version="1.1" viewBox="100 100 312 312" xmlns="http://www.w3.org/2000/svg">
<g clip-rule="evenodd" fill-rule="evenodd"><path d="m496 390c0 8.836-7.209 15.959-16.045 15.959h-447.9c-8.836 0-16.052-7.123-16.052-15.959v-267.99c0-8.836 7.216-15.959 16.052-15.959h447.9c8.836 0 16.045 7.123 16.045 15.959v267.99z" fill="#C93192"/><path d="m274.8 227.86c10.818 16.594 6.137 38.776-10.463 49.596-16.588 10.82-38.862 6.131-49.593-10.456l10.28-6.943c7.037 10.727 21.455 13.795 32.189 6.759 10.734-6.944 13.803-21.369 6.766-32.188l10.821-6.768z" fill="#fff"/><path d="m298.79 212.63c-10.826-16.593-33.096-21.189-49.689-10.37-16.501 10.82-21.189 33.002-10.37 49.596l10.462-6.674c-7.037-10.727-3.967-25.158 6.766-32.193 10.82-7.031 25.246-3.969 32.275 6.765l10.556-7.124z" fill="#010101"/><path d="m187.97 238.41c0-37.599 30.479-68.081 68.08-68.081 37.6 0 68.082 30.482 68.082 68.081 0 37.604-30.482 68.081-68.082 68.081-37.601 0-68.08-30.476-68.08-68.081zm68.08 63.305c34.902 0 63.307-28.313 63.307-63.305 0-34.986-28.404-63.299-63.307-63.299-34.985 0-63.391 28.313-63.391 63.299 0 34.991 28.406 63.305 63.391 63.305z" fill="#fff"/><polygon points="263.8 320.92 268.22 320.92 264.61 337.06 276.34 337.06 275.52 340.76 259.48 340.76" fill="#fff"/><path d="m214.75 334.72c0.903 1.628 4.508 3.698 7.933 3.605 3.79-0.086 5.053-1.171 5.318-2.977 0.092-0.721 0.363-2.248-2.699-2.611l-4.96-0.629c-5.323-0.635-6.224-2.798-6.044-5.502 0.092-3.605 4.688-6.402 9.563-6.495 4.325 0 7.93 0.905 9.648 3.247l-3.068 1.805c-2.439-1.982-4.688-2.162-7.394-1.982-1.806 0.178-4.329 0.898-4.782 2.704-0.271 1.263-0.178 2.07 2.527 2.341l6.309 0.906c2.885 0.271 5.324 3.063 5.14 5.41-0.358 3.426-3.334 7.48-10.549 7.123-5.41-0.271-8.657-2.434-10.1-5.053l3.158-1.892z" fill="#fff"/><path d="m235.85 330.75c0.899-5.952 6.402-10.82 12.354-10.82s10.099 4.868 9.286 10.82c-0.9 5.951-6.402 10.819-12.355 10.819-5.946 0-10.098-4.868-9.285-10.819zm9.828 7.036c3.875 0 7.486-3.161 8.028-7.036 0.542-3.876-2.169-7.031-6.044-7.031-3.876 0-7.395 3.155-8.029 7.031-0.536 3.875 2.169 7.036 6.045 7.036z" fill="#fff"/><path d="m278.86 330.75c0.904-5.952 6.408-10.82 12.359-10.82 5.953 0 10.094 4.868 9.193 10.82-0.813 5.951-6.309 10.819-12.262 10.819-5.95 0-10.096-4.868-9.29-10.819zm9.834 7.036c3.875 0 7.395-3.161 8.021-7.036 0.543-3.876-2.162-7.031-6.039-7.031-3.881 0-7.484 3.155-8.021 7.031-0.543 3.875 2.157 7.036 6.039 7.036z" fill="#fff"/></g></svg>
