<svg version="1.1" viewBox="0 0 223.55 275" xmlns="http://www.w3.org/2000/svg">
<path d="m217.05 254.83c0 7.827-6.346 14.173-14.173 14.173h-182.65c-7.828 0-14.173-6.346-14.173-14.173v-235.15c0-7.828 6.346-14.173 14.173-14.173h182.65c7.827 0 14.173 6.346 14.173 14.173v235.15z" clip-rule="evenodd" fill="#0C9E6F" fill-rule="evenodd"/>
<path d="m217.05 254.83c0 7.827-6.346 14.173-14.173 14.173h-182.65c-7.828 0-14.173-6.346-14.173-14.173v-39.327h211v39.327z" clip-rule="evenodd" fill-rule="evenodd"/>
<path d="m148.97 84.711c22.092 33.922 12.499 79.333-21.424 101.42s-79.333 12.5-101.42-21.424l21.061-14.151c14.345 22.028 43.832 28.257 65.859 13.911 22.028-14.344 28.257-43.832 13.911-65.859l22.017-13.901z" fill="#fff"/>
<path d="m197.98 53.574c-22.135-33.894-67.557-43.428-101.45-21.292-33.895 22.135-43.427 67.557-21.292 101.45l21.442-13.567c-14.374-22.009-8.184-51.504 13.826-65.878 22.009-14.374 51.504-8.184 65.878 13.826l21.598-14.542z"/>
<g fill="#fff">
<path d="m30.143 251.14 3.551-3.138c2.253 2.067 4.72 3.245 8.132 3.245 3.015 0 5.171-1.284 5.534-3.138l0.014-0.072c0.35-1.781-0.572-2.744-5.52-3.814-5.659-1.283-8.684-2.852-7.782-7.45l0.014-0.071c0.839-4.278 5.387-7.237 10.901-7.237 4.047 0 7.043 1.104 9.462 3.137l-3.269 3.315c-2.171-1.676-4.496-2.567-7.035-2.567-2.856 0-4.781 1.32-5.103 2.96l-0.014 0.071c-0.377 1.925 0.725 2.78 5.856 3.922 5.62 1.283 8.264 3.172 7.453 7.309l-0.014 0.071c-0.916 4.67-5.547 7.45-11.379 7.45-4.245-1e-3 -7.993-1.32-10.801-3.993z"/>
<path d="m58.245 229.82h5.276l2.996 18.504 10.467-18.575h4.126l3.181 18.575 10.255-18.504h5.117l-14.57 25.135h-4.245l-3.306-17.933-10.342 17.933h-4.205l-4.75-25.135z"/>
<path d="m104.74 229.82h4.88l-4.896 24.957h-4.88l4.896-24.957z"/>
<path d="m122.86 233.88h-8.808l0.798-4.065h22.534l-0.798 4.065h-8.807l-4.099 20.892h-4.919l4.099-20.892z"/>
<path d="m137.14 242.37 0.014-0.071c1.392-7.095 8.442-12.905 16.854-12.905 5.117 0 7.897 1.604 10.108 3.885l-3.771 3.245c-1.858-1.854-3.994-3.102-7.168-3.102-5.277 0-9.934 3.922-10.892 8.806l-0.015 0.071c-0.958 4.884 2.114 8.842 7.431 8.842 3.411 0 5.831-1.213 8.604-3.209l2.574 2.853c-3.427 2.709-6.937 4.42-12.134 4.42-8.093-1e-3 -13.012-5.669-11.605-12.835z"/>
<path d="m169.91 229.82h4.879l-2.034 10.375h13.25l2.036-10.375h4.879l-4.896 24.957h-4.879l2.063-10.518h-13.251l-2.063 10.518h-4.879l4.895-24.957z"/>
</g>
</svg>
