<svg viewBox="0 0 300 64.6" xmlns="http://www.w3.org/2000/svg">
<path d="m138.7 29.2v17.1h-3.9v-17.1c0-5.2-2.1-7.6-6.7-7.6-5.4 0-8.3 4-8.3 8v16.8h-3.9v-28.2h3.9v3.1c1.9-2 4.9-3.5 8.5-3.5 6.7 0 10.4 4.1 10.4 11.4m46.7-11.4c-3.7 0-6.6 1.5-8.5 3.5v-15.5h-3.9v40.5h3.9v-16.8c0-4 2.8-8 8.3-8 4.6 0 6.7 2.4 6.7 7.6v17.2h3.9v-17.1c0-7.3-3.7-11.4-10.4-11.4m58.5 14.3v0.4c0 8.2-5.8 14.3-13.5 14.3-7.5 0-13.5-6.3-13.5-14.3v-0.4c0-8.1 5.8-14.3 13.6-14.3 7.8 0.1 13.4 6 13.4 14.3m-4 0.4v-0.4c0-6.2-3.9-10.5-9.4-10.5s-9.6 4.4-9.6 10.6v0.4c0 6.1 4 10.5 9.5 10.5 5.6-0.1 9.5-4.4 9.5-10.6m20.9-14.7c-3.7 0-6.6 1.5-8.5 3.5v-3.1h-3.9v28.2h3.9v-16.9c0-4 2.8-8 8.3-8 4.6 0 6.7 2.4 6.7 7.6v17.2h3.9v-17.1c0-7.3-3.7-11.4-10.4-11.4m-104.7 25.2c-5.5 0-9.5-4.4-9.5-10.5v-0.4c0-6.1 4-10.6 9.6-10.6 3.8 0 6.9 2.1 8.4 5.4h4.2c-1.8-5.5-6.6-9.1-12.6-9.1-7.7 0-13.6 6.1-13.6 14.3v0.4c0 8 5.9 14.3 13.5 14.3 6.5 0 11.7-4.4 13.1-10.8h-4.1c-1.2 4.3-4.6 7-9 7m57.9-25.2c-3.7 0-6.6 1.5-8.5 3.5v-3.1h-3.9v28.2h3.9v-16.9c0-4 2.8-8 8.3-8 1 0 2 0.1 2.8 0.4v-3.9c-0.9-0.1-1.7-0.2-2.6-0.2m-138.6 12.3c-6.3-1-7.4-2.2-7.4-4.4 0-2.4 2.5-4.1 6.2-4.1 3.8 0 6 1.4 6.6 4.4v0.2h4.2l-0.1-0.5c-0.8-5-4.6-7.7-10.6-7.7s-10.3 3.3-10.3 7.8c0 5.9 5 7.2 10.5 8.1 5.2 0.9 6.8 1.6 6.8 4.7 0 2.8-2.6 4.6-6.6 4.6-5.5 0-7.1-2.9-7.6-5.4h-4.2c0.5 5.6 5 9.1 11.8 9.1 6.3 0 10.7-3.5 10.7-8.4 0.1-6.2-4.7-7.5-10-8.4m219.6-11.9-8.5 23.1-10-23.1h-4.1l11.9 28-3.7 11h4.1l14.3-39h-4zm-186.5 0-8.5 23.1-10-23.1h-4.1l11.9 28-3.7 11h4.1l14.3-39h-4z" fill="#343741"/>
<path d="M13.3,32.3H1v31.8h12.3V32.3z M31.4,0.5v63.6H19.1V0.5H31.4z M49.4,0.5v31.8H37.2V0.5H49.4z" fill="#F9C20A"/>
</svg>
