<svg xmlns="http://www.w3.org/2000/svg" viewBox="0 0 20 40">
  <!--
    created by: HeyMarco (Yunus Kurniawan)
    fiverr: HeyMarco
    instagram: @marco.leather
  -->
  <style>
    .element {
      fill:#ffffff;
    }
      
    .dotAnimate {
      animation-name: scrolling;
      animation-duration: 1.5s;
      animation-iteration-count: infinite;
    }
            
    @keyframes scrolling {
      0% {
        opacity: 1;
      }
      100% {
        opacity: 0;
        -webkit-transform: translateY(20px);
        transform: translateY(20px);
      }
    }
  </style>
  <title>Scroller Icon Indicator</title>
  <g id="scroller">
    <path class="element" d="M10,3a7,7,0,0,1,7,7V30A7,7,0,0,1,3,30V10a7,7,0,0,1,7-7m0-3h0A10,10,0,0,0,0,10V30A10,10,0,0,0,10,40h0A10,10,0,0,0,20,30V10A10,10,0,0,0,10,0Z"/>
    <circle class="element dotAnimate" cx="10" cy="10" r="3"/>
  </g>
</svg>