<svg xmlns="http://www.w3.org/2000/svg" viewBox="0 0 48 40"><title>logo</title><path d="M17,7.25V16.7H14.4c0-.28,0-.39,0-.69l.24-5c0-.23,0-.42.08-.65s.07-.44.11-.66c.26-1.28.67-2.34,2.09-2.45Zm7.31,9.49V3c.06,0,.46.1.53.12a3.94,3.94,0,0,1,2.25,1.22c1.15,1.18,1.31,3.92,1.31,5.53,0,.49,0,.83,0,1.29,0,.1,0,.25,0,.34-.15,1.23-.27,2.92-1.23,3.86a4.15,4.15,0,0,1-.74.64,6.1,6.1,0,0,1-2.08.7Zm-3.52-.08H19.58c0-.06.05-.05.05-.13V7.42c0-.17,0,0-.05-.13h.83v-1c-.59,0-2.47,0-2.91,0-.16,0-.05,0-.22,0a2.23,2.23,0,0,0-.44,0,4.19,4.19,0,0,1-.44,0A4.38,4.38,0,0,0,13,8.39c-1.37,2.36-1.42,5.17-1.42,8.31h-1.4v.9h1.4c0,.74.05,2.07,0,2.71,0,.16,0,.14,0,.34l0,2.15a20.24,20.24,0,0,1-.25,2.67A3,3,0,0,1,10,27.87a3.51,3.51,0,0,0-.57.21,5.41,5.41,0,0,0,1.94-.31l.34-.14a3.73,3.73,0,0,0,.78-.57,5.46,5.46,0,0,0,1.35-2.79c0-.22.12-.5.16-.75a37.43,37.43,0,0,0,.39-5.92H17c-.14.29,0,7.63,0,9a7.76,7.76,0,0,0,0,1.47c.06.06,1.81.11,2.15.12.62,0,.48.38.48-1.72V18.16c0-.8-.28-.6,1.13-.6v14c0,.1,0,.13.13.13h3.26c.1,0,.13,0,.13-.13V17.69a4.62,4.62,0,0,1,2.18.68l.2.14a3.63,3.63,0,0,1,1.19,1.72,8.21,8.21,0,0,1,.39,2.1c0,.43.09.88.09,1.33a10.89,10.89,0,0,0,.78,4.94,5.56,5.56,0,0,0,3,2.78c.33.13.83.22,1.12.35a2.35,2.35,0,0,0-.41-.84,15.28,15.28,0,0,1-1.59-7.45A11.05,11.05,0,0,0,31,21.13a7.42,7.42,0,0,0-.63-1.95,3.54,3.54,0,0,0-1.22-1.38,4.81,4.81,0,0,0-1.93-.67c.09-.13.33-.16.48-.21l.49-.21A5.68,5.68,0,0,0,29,16.2a4.63,4.63,0,0,0,.76-.63,6.39,6.39,0,0,0,1.46-2.76,13.68,13.68,0,0,0,0-6,8,8,0,0,0-.23-.8,4.71,4.71,0,0,0-3-3,7.19,7.19,0,0,0-2.11-.41,2.38,2.38,0,0,1-.49,0c-.54-.09-1.21.11-1.92,0-.38-.06-2.28,0-2.77,0V16.66Z" fill-rule="evenodd"/><path d="M31.68,7.29h1.44V28c0,.1,0,.13.13.13h2.48V7.29h4.44c0-.59.09-1-.13-1H31.51c0,.32.17.61.17,1Z" fill-rule="evenodd"/><path d="M34.16,37.45h.7l.13-.94a6.81,6.81,0,0,0,.13-.95h0a4,4,0,0,0,.06.45l.2,1.44h.7a3.51,3.51,0,0,0,.18-.6l.15-.62c.11-.44.22-.85.32-1.27-.85,0-.6-.29-.89,1.3a4,4,0,0,0-.11.63h0a6.47,6.47,0,0,0-.12-1c0-.2,0-.31-.06-.5s-.07-.36-.08-.48h-.65c0,.36-.27,1.6-.27,1.93h0c0-.35-.3-1.58-.3-1.93h-.7a4.89,4.89,0,0,1,.17.61l.15.62c.11.44.23.83.33,1.26Z" fill-rule="evenodd"/><path d="M23.93,37.45h.7c.05-.53.26-1.42.26-1.89L25.15,37c.08.5-.08.43.79.43,0-.33.58-2.14.61-2.49h-.66c-.07.29-.12.63-.17.94l-.13.73c0,.23,0,.16-.09.22L25.24,35h-.65L24.4,36.4a2.63,2.63,0,0,0-.07.49h0a13.4,13.4,0,0,0-.23-1.45A3.25,3.25,0,0,1,24,35h-.65a7.49,7.49,0,0,0,.29,1.25c.11.42.22.82.31,1.24Z" fill-rule="evenodd"/><path d="M29.68,37.45h.61V36a8.23,8.23,0,0,1,.61,1h.35a.53.53,0,0,1,.13-.26c.05-.08.08-.17.13-.25a1.82,1.82,0,0,1,.3-.47v1.5h.61V35h-.56c-.07.12-.12.24-.2.37l-.63,1c-.26-.48-.53-.93-.78-1.41h-.57v2.49Z" fill-rule="evenodd"/><path d="M11.1,37.45h.6V36.16l0,0,.54,1.27c.38,0,.57,0,.57-.13V35h-.66l0,1.24c0-.15-.43-1-.48-1.24H11.1v2.49Z" fill-rule="evenodd"/><polygon points="7.96 37.45 8.62 37.45 8.62 36.42 9.09 36.42 9.09 37.45 9.75 37.45 9.75 34.96 9.09 34.96 9.09 35.99 8.62 35.99 8.62 34.96 7.96 34.96 7.96 37.45" fill-rule="evenodd"/><path d="M43.78,36.42V35.34c.24.06.48.15.48.43v.09A.5.5,0,0,1,43.78,36.42Zm-.65,1h.65V36.8c.37-.08.23-.07.55.45a1.24,1.24,0,0,1,.1.2H45c-.08-.15-.15-.26-.23-.42l-.25-.44c.23-.34.35-.2.35-1,0-.4-.45-.68-.91-.68h-.83v2.49Z" fill-rule="evenodd"/><path d="M24.59,7.29h3.26a2.63,2.63,0,0,0-.22-1h-3Z" fill-rule="evenodd"/><path d="M41.13,35.6h0a9.07,9.07,0,0,0,.13.95H41c0-.29.13-.65.13-.95Zm-.87,1.85h.61c0-.19,0-.24,0-.47h.43a3.26,3.26,0,0,1,.09.47H42a3.29,3.29,0,0,0-.12-.61l-.27-1.24a3.63,3.63,0,0,1-.13-.64h-.74l-.4,1.83a3.11,3.11,0,0,0-.12.66Z" fill-rule="evenodd"/><path d="M3,37.45H4.35V37H3.61v-.6h.61V36H3.61v-.6c.86,0,.74.09.74-.43H3v2.49Z" fill-rule="evenodd"/><path d="M37.86,37.45h1.35V37h-.74v-.6h.61V36c-.73,0-.61.11-.61-.6h.74V35H37.86v2.49Z" fill-rule="evenodd"/><path d="M15.93,36a1.4,1.4,0,0,0,.33,1.09,1.48,1.48,0,0,0,1.52.27c.3-.13.18-.15.37-.2a.73.73,0,0,0-.4-.39c-.15.58-1.17.45-1.17-.43a1.39,1.39,0,0,1,.16-.86,1.19,1.19,0,0,1,.2-.19.52.52,0,0,1,.81.28c.2-.05.29-.24.4-.39A1.46,1.46,0,0,0,16.73,35a1.24,1.24,0,0,0-.8,1.06Z" fill-rule="evenodd"/><path d="M21.15,35.47c0,.75.52.81.52,1.46,0,.28-.38.14-.56.13v.39c.51.12,1.21.08,1.21-.6s-.52-.8-.52-1.42c0-.27.37-.14.48-.13,0-.22.1-.57-.72-.37a.52.52,0,0,0-.41.54Z" fill-rule="evenodd"/><path d="M5.39,35.39h.4v2.06h.6V35.39c.51,0,.44.06.44-.43H5.39Z" fill-rule="evenodd"/><polygon points="27.68 37.45 28.33 37.45 28.33 34.96 27.68 34.96 27.68 37.45" fill-rule="evenodd"/><polygon points="14.14 37.45 14.75 37.45 14.75 34.96 14.14 34.96 14.14 37.45" fill-rule="evenodd"/></svg>