<svg xmlns="http://www.w3.org/2000/svg" xmlns:xlink="http://www.w3.org/1999/xlink" width="448.56" height="374.35" viewBox="0 0 448.56 374.35"><defs><style>.cls-1{isolation:isolate;}.cls-2{fill:url(#linear-gradient);}.cls-3,.cls-34{fill:#ffc40e;}.cls-3{opacity:0.4;}.cls-4{fill:#f4522c;}.cls-5{fill:#16445e;}.cls-6{fill:#cfecfa;}.cls-16,.cls-19,.cls-7{fill:#fff;}.cls-19,.cls-7{mix-blend-mode:soft-light;}.cls-8{fill:#194866;}.cls-9{fill:#dd4528;}.cls-10{fill:#ddd;}.cls-10,.cls-20{opacity:0.5;}.cls-10,.cls-12,.cls-20,.cls-22{mix-blend-mode:multiply;}.cls-11,.cls-12,.cls-20{fill:#e5e8ed;}.cls-12{opacity:0.2;}.cls-13{fill:#112e40;}.cls-14{fill:#ededed;}.cls-15{fill:#d65b91;}.cls-17{fill:#a8bbc2;}.cls-18{fill:#f3f3f3;}.cls-19,.cls-22{opacity:0.3;}.cls-21,.cls-22{fill:#ffc410;}.cls-23{fill:#a3b3ce;}.cls-24{fill:#feffff;}.cls-25{fill:#252821;}.cls-26{fill:#292b26;}.cls-27{fill:#164059;}.cls-28{fill:#114263;}.cls-29{fill:#698ccd;}.cls-30{fill:#b0bfe0;}.cls-31{fill:#e5eef3;}.cls-32,.cls-33{fill:none;stroke:#274965;stroke-linecap:round;}.cls-32{stroke-miterlimit:10;}.cls-33{stroke-linejoin:round;}</style><linearGradient id="linear-gradient" y1="174.95" x2="448.56" y2="174.95" gradientUnits="userSpaceOnUse"><stop offset="0" stop-color="#ffd9ab"/><stop offset="1" stop-color="#f7a2ce"/></linearGradient></defs><title>under construction</title><g class="cls-1"><g id="Layer_2" data-name="Layer 2"><g id="OBJECTS"><path class="cls-2" d="M180.31,16.59c-10.79,2.39-27.68,8.18-25.67,23.7,1.56,12,14.77,17,13.37,30.47-3.17,30.51-51.44,26.52-71.17,30-19.1,3.4-66.82,13.37-60.44,44.59,5,24.65,52.61,39,43.08,69.5-4.06,13-17.06,18-27.83,22.28C39.1,242.1,27.8,248,17.51,257.35c-10,9-22.2,19.4-15.68,33.87C7,302.69,16,315.33,26.31,321.79c12.06,7.55,27.23,8,40.74,9.67,16.41,2.07,32.83,4.12,49.26,6.05,32.86,3.87,65.77,7.31,98.76,9.57s65.87,3.37,98.82,2.57c16.46-.4,32.92-1.27,49.33-2.7,16.23-1.42,26.81-1.49,35.86-17.06,3.07-5.27,10.13-15.14,9.21-21.48-1.08-7.41-8.33-10.61-13.83-14.48-12.47-8.79-25.09-17.41-38.41-24.66-13.06-7.12-26.39-11.58-40.33-16.1-10.08-3.27-22.43-11.33-13.86-24,7.9-11.72,26.5-9.33,38.22-10.7a219.72,219.72,0,0,0,41.76-8.55c24.38-7.8,53.75-23.05,64.19-49.93,5.32-13.69,2.44-21.15-10.49-26.22-13.91-5.45-28.82-6.28-43.45-7.31-7.67-.54-62.41,1.88-41.84-17.67,8.69-8.26,22.08-11.62,32.47-16.44,13.37-6.21,28.07-13.4,37.46-25.88C444.33,34.3,398.78,17.58,377,10.76,312.8-9.36,244.45,2.35,180.31,16.59Z"/><path class="cls-3" d="M164.31,24.58a22.8,22.8,0,1,0,22.8,22.8A22.79,22.79,0,0,0,164.31,24.58Zm0,42.58a19.79,19.79,0,1,1,19.78-19.78A19.79,19.79,0,0,1,164.31,67.16Z"/><path class="cls-3" d="M196.71,58.18a33.31,33.31,0,0,0,1.69-8.8l-5.14-.31,0-3.79,5.14-.38a33.68,33.68,0,0,0-1.82-8.79l-4.86,1.7-1.49-3.49L194.81,32a34.32,34.32,0,0,0-5.06-7.41L185.91,28l-2.71-2.65,3.35-3.91A34.23,34.23,0,0,0,179,16.55l-2.23,4.65-3.52-1.4,1.6-4.91a34.39,34.39,0,0,0-8.35-1.6l-.34,5.14h-3.79l-.34-5.14a33.7,33.7,0,0,0-8.8,1.76l1.66,4.87-3.5,1.46-2.29-4.62a34,34,0,0,0-7.45,5l3.41,3.87-2.67,2.68-3.89-3.38a34.2,34.2,0,0,0-4.95,7.48l4.63,2.26-1.43,3.51-4.89-1.63a33.46,33.46,0,0,0-1.69,8.81l5.13.31,0,3.79-5.14.38a33.69,33.69,0,0,0,1.82,8.78l4.87-1.69,1.48,3.49-4.6,2.32a33.93,33.93,0,0,0,5,7.41l3.84-3.43,2.71,2.65-3.35,3.91a34.06,34.06,0,0,0,7.51,4.9l2.23-4.64,3.52,1.4-1.59,4.91a33.92,33.92,0,0,0,8.35,1.6l.34-5.14h3.79l.34,5.14a34.19,34.19,0,0,0,8.8-1.75l-1.66-4.89,3.5-1.45L179.47,78a34.19,34.19,0,0,0,7.44-5l-3.4-3.86,2.66-2.7,3.9,3.39a34.44,34.44,0,0,0,5-7.48l-4.63-2.27,1.43-3.5ZM164.31,69.5a22.13,22.13,0,1,1,22.12-22.12A22.13,22.13,0,0,1,164.31,69.5Z"/><path class="cls-3" d="M164.31,23.06a24.32,24.32,0,1,0,24.31,24.32A24.32,24.32,0,0,0,164.31,23.06Zm0,45.42a21.11,21.11,0,1,1,21.1-21.1A21.11,21.11,0,0,1,164.31,68.48Z"/><rect class="cls-3" x="163.96" y="31.61" width="0.68" height="2.46"/><rect class="cls-3" x="163.96" y="60.68" width="0.68" height="2.46"/><rect class="cls-3" x="161.13" y="31.89" width="0.68" height="2.46" transform="translate(-3.36 32.11) rotate(-11.24)"/><rect class="cls-3" x="166.8" y="60.4" width="0.68" height="2.46" transform="translate(-8.81 33.79) rotate(-11.25)"/><rect class="cls-3" x="155.89" y="34.06" width="0.68" height="2.46" transform="translate(6.72 92.74) rotate(-33.75)"/><rect class="cls-3" x="172.04" y="58.23" width="0.68" height="2.46" transform="translate(-3.98 105.78) rotate(-33.75)"/><rect class="cls-3" x="151.88" y="38.07" width="0.68" height="2.46" transform="translate(34.96 144.01) rotate(-56.24)"/><rect class="cls-3" x="176.05" y="54.22" width="0.68" height="2.46" transform="translate(32.28 171.3) rotate(-56.25)"/><rect class="cls-3" x="149.71" y="43.31" width="0.68" height="2.46" transform="translate(77.09 183.02) rotate(-78.75)"/><rect class="cls-3" x="178.22" y="48.98" width="0.68" height="2.46" transform="translate(94.48 215.55) rotate(-78.75)"/><rect class="cls-3" x="149.71" y="48.98" width="0.68" height="2.46" transform="translate(130.07 207.17) rotate(-101.25)"/><rect class="cls-3" x="178.22" y="43.31" width="0.68" height="2.46" transform="translate(169.7 228.36) rotate(-101.25)"/><rect class="cls-3" x="151.88" y="54.22" width="0.68" height="2.46" transform="translate(190.71 212.82) rotate(-123.76)"/><rect class="cls-3" x="176.05" y="38.07" width="0.68" height="2.46" transform="matrix(-0.56, -0.83, 0.83, -0.56, 241.69, 207.81)"/><rect class="cls-3" x="155.89" y="58.23" width="0.68" height="2.46" transform="translate(253.08 195.71) rotate(-146.24)"/><rect class="cls-3" x="172.04" y="34.06" width="0.68" height="2.46" transform="translate(296.09 160.41) rotate(-146.24)"/><rect class="cls-3" x="161.13" y="60.4" width="0.68" height="2.46" transform="translate(307.82 153.57) rotate(-168.75)"/><rect class="cls-3" x="166.8" y="31.89" width="0.68" height="2.46" transform="translate(324.6 98.23) rotate(-168.74)"/><rect class="cls-3" x="158.4" y="32.72" width="0.68" height="2.46" transform="translate(-0.9 63.35) rotate(-22.51)"/><rect class="cls-3" x="169.53" y="59.58" width="0.68" height="2.46" transform="translate(-10.34 69.68) rotate(-22.51)"/><rect class="cls-3" x="153.69" y="35.87" width="0.68" height="2.46" transform="translate(18.89 119.79) rotate(-45.01)"/><rect class="cls-3" x="174.24" y="56.42" width="0.68" height="2.46" transform="translate(10.37 140.33) rotate(-45)"/><rect class="cls-3" x="150.54" y="40.59" width="0.68" height="2.46" transform="translate(54.52 165.21) rotate(-67.5)"/><rect class="cls-3" x="177.39" y="51.71" width="0.68" height="2.46" transform="translate(60.82 196.89) rotate(-67.5)"/><rect class="cls-3" x="149.43" y="46.15" width="0.68" height="2.46" transform="translate(102.4 197.15) rotate(-90)"/><rect class="cls-3" x="178.5" y="46.15" width="0.68" height="2.46" transform="translate(131.46 226.22) rotate(-90)"/><rect class="cls-3" x="150.54" y="51.71" width="0.68" height="2.46" transform="translate(159.7 212.59) rotate(-112.5)"/><rect class="cls-3" x="177.39" y="40.59" width="0.68" height="2.46" transform="translate(207.1 222.02) rotate(-112.5)"/><rect class="cls-3" x="153.69" y="56.42" width="0.68" height="2.46" transform="translate(222.15 207.35) rotate(-134.99)"/><rect class="cls-3" x="174.24" y="35.87" width="0.68" height="2.46" transform="translate(271.81 186.77) rotate(-135.01)"/><rect class="cls-3" x="158.4" y="59.58" width="0.68" height="2.46" transform="translate(282.14 177.72) rotate(-157.5)"/><rect class="cls-3" x="169.53" y="32.72" width="0.68" height="2.46" transform="translate(313.83 130.29) rotate(-157.51)"/><path class="cls-3" d="M164.31,50.18a2.81,2.81,0,1,1,2.8-2.8A2.81,2.81,0,0,1,164.31,50.18Zm0-4.52A1.72,1.72,0,1,0,166,47.38,1.72,1.72,0,0,0,164.31,45.66Z"/><path class="cls-3" d="M162,47.38l-4.84,7.1,7.11-4.84A2.41,2.41,0,0,1,162,47.38Z"/><path class="cls-3" d="M66.32,246.08a22.8,22.8,0,1,0,22.8,22.81A22.8,22.8,0,0,0,66.32,246.08Zm0,42.59a19.79,19.79,0,1,1,19.79-19.78A19.79,19.79,0,0,1,66.32,288.67Z"/><path class="cls-3" d="M98.73,279.69a33.7,33.7,0,0,0,1.68-8.81l-5.14-.3,0-3.79,5.14-.38a34.52,34.52,0,0,0-1.82-8.79l-4.87,1.69-1.48-3.48,4.6-2.33a33.9,33.9,0,0,0-5.06-7.4l-3.84,3.43-2.7-2.66L88.56,243a34.19,34.19,0,0,0-7.51-4.9l-2.23,4.65-3.51-1.41,1.59-4.9a33.38,33.38,0,0,0-8.35-1.6l-.34,5.14H64.42l-.34-5.14a34.19,34.19,0,0,0-8.8,1.75l1.66,4.88-3.5,1.45-2.29-4.61a34,34,0,0,0-7.44,5l3.4,3.86-2.67,2.69-3.88-3.38a33.65,33.65,0,0,0-5,7.48l4.63,2.26L38.8,259.7l-4.89-1.63a33.46,33.46,0,0,0-1.69,8.81l5.14.31,0,3.79-5.15.37a34.09,34.09,0,0,0,1.82,8.79l4.87-1.69,1.48,3.48-4.6,2.33a33.86,33.86,0,0,0,5.06,7.41l3.84-3.43,2.71,2.65-3.35,3.91a33.77,33.77,0,0,0,7.5,4.9l2.23-4.65,3.52,1.41-1.59,4.91a34.39,34.39,0,0,0,8.35,1.6l.34-5.14h3.79l.34,5.14a33.78,33.78,0,0,0,8.8-1.76l-1.66-4.88,3.5-1.45,2.29,4.62a34,34,0,0,0,7.45-5l-3.41-3.87,2.67-2.69,3.89,3.39a34.67,34.67,0,0,0,5-7.49l-4.64-2.26,1.43-3.51ZM66.32,291a22.13,22.13,0,1,1,22.12-22.12A22.13,22.13,0,0,1,66.32,291Z"/><path class="cls-3" d="M66.32,244.57a24.31,24.31,0,1,0,24.31,24.32A24.31,24.31,0,0,0,66.32,244.57Zm0,45.41a21.1,21.1,0,1,1,21.1-21.09A21.1,21.1,0,0,1,66.32,290Z"/><rect class="cls-3" x="65.98" y="253.12" width="0.68" height="2.46"/><rect class="cls-3" x="65.98" y="282.19" width="0.68" height="2.46"/><rect class="cls-3" x="63.14" y="253.4" width="0.68" height="2.46" transform="translate(-48.45 17.27) rotate(-11.25)"/><rect class="cls-3" x="68.81" y="281.91" width="0.68" height="2.46" transform="translate(-53.9 18.93) rotate(-11.25)"/><rect class="cls-3" x="57.9" y="255.57" width="0.68" height="2.46" transform="translate(-132.89 75.67) rotate(-33.76)"/><rect class="cls-3" x="74.05" y="279.74" width="0.68" height="2.46" transform="translate(-143.57 88.69) rotate(-33.75)"/><rect class="cls-3" x="53.89" y="259.58" width="0.68" height="2.46" transform="translate(-192.76 161.02) rotate(-56.25)"/><rect class="cls-3" x="78.06" y="275.73" width="0.68" height="2.46" transform="translate(-195.42 188.23) rotate(-56.24)"/><rect class="cls-3" x="51.72" y="264.82" width="0.68" height="2.46" transform="translate(-219.03 265.21) rotate(-78.75)"/><rect class="cls-3" x="80.23" y="270.49" width="0.68" height="2.46" transform="translate(-201.65 297.71) rotate(-78.74)"/><rect class="cls-3" x="51.72" y="270.49" width="0.68" height="2.46" transform="translate(-204.28 375.79) rotate(-101.25)"/><rect class="cls-3" x="80.23" y="264.82" width="0.68" height="2.46" transform="translate(-164.63 396.99) rotate(-101.25)"/><rect class="cls-3" x="53.89" y="275.73" width="0.68" height="2.46" transform="translate(-145.93 475.91) rotate(-123.75)"/><rect class="cls-3" x="78.06" y="259.58" width="0.68" height="2.46" transform="translate(-94.87 470.91) rotate(-123.76)"/><rect class="cls-3" x="57.9" y="279.74" width="0.68" height="2.46" transform="translate(-49.44 546.94) rotate(-146.25)"/><rect class="cls-3" x="74.05" y="255.57" width="0.68" height="2.46" transform="matrix(-0.83, -0.56, 0.56, -0.83, -6.44, 511.65)"/><rect class="cls-3" x="63.14" y="281.91" width="0.68" height="2.46" transform="translate(70.52 573.22) rotate(-168.75)"/><rect class="cls-3" x="68.81" y="253.4" width="0.68" height="2.46" transform="translate(87.32 517.86) rotate(-168.75)"/><rect class="cls-3" x="60.42" y="254.23" width="0.68" height="2.46" transform="translate(-93.1 42.67) rotate(-22.49)"/><rect class="cls-3" x="71.54" y="281.08" width="0.68" height="2.46" transform="translate(-102.57 49) rotate(-22.5)"/><rect class="cls-3" x="55.7" y="257.38" width="0.68" height="2.46" transform="translate(-166.45 115.37) rotate(-45)"/><rect class="cls-3" x="76.25" y="277.93" width="0.68" height="2.46" transform="translate(-174.95 135.9) rotate(-44.99)"/><rect class="cls-3" x="52.55" y="262.09" width="0.68" height="2.46" transform="translate(-210.62 211.37) rotate(-67.49)"/><rect class="cls-3" x="79.4" y="273.22" width="0.68" height="2.46" transform="translate(-204.33 243.16) rotate(-67.51)"/><rect class="cls-3" x="51.44" y="267.66" width="0.68" height="2.46" transform="translate(-217.1 320.67) rotate(-90)"/><rect class="cls-3" x="80.51" y="267.66" width="0.68" height="2.46" transform="translate(-188.03 349.74) rotate(-90)"/><rect class="cls-3" x="52.55" y="273.22" width="0.68" height="2.46" transform="translate(-180.41 428.36) rotate(-112.51)"/><rect class="cls-3" x="79.4" y="262.09" width="0.68" height="2.46" transform="translate(-133.05 437.72) rotate(-112.49)"/><rect class="cls-3" x="55.7" y="277.93" width="0.68" height="2.46" transform="translate(-101.7 516.2) rotate(-135.01)"/><rect class="cls-3" x="76.25" y="257.38" width="0.68" height="2.46" transform="translate(-52.08 495.64) rotate(-135.01)"/><rect class="cls-3" x="60.42" y="281.08" width="0.68" height="2.46" transform="translate(8.9 566.39) rotate(-157.51)"/><rect class="cls-3" x="71.54" y="254.23" width="0.68" height="2.46" transform="matrix(-0.92, -0.38, 0.38, -0.92, 40.52, 518.97)"/><path class="cls-3" d="M66.32,271.69a2.81,2.81,0,1,1,2.81-2.81A2.81,2.81,0,0,1,66.32,271.69Zm0-4.52A1.72,1.72,0,1,0,68,268.88,1.72,1.72,0,0,0,66.32,267.17Z"/><path class="cls-3" d="M64.06,268.88,59.21,276l7.11-4.85A2.39,2.39,0,0,1,64.06,268.88Z"/><path class="cls-3" d="M71.68,104.81a24.76,24.76,0,0,0,1.23-6.41l-3.74-.23,0-2.76,3.74-.27a24.21,24.21,0,0,0-1.33-6.4L68,90l-1.08-2.53,3.35-1.7a25,25,0,0,0-3.68-5.39l-2.8,2.5-2-1.93,2.44-2.85a24.89,24.89,0,0,0-5.47-3.57l-1.62,3.38-2.56-1,1.16-3.57a24.43,24.43,0,0,0-6.08-1.16l-.25,3.74H46.71l-.25-3.74a24.72,24.72,0,0,0-6.41,1.27L41.26,77,38.71,78l-1.66-3.36a25,25,0,0,0-5.42,3.65l2.48,2.81-2,2-2.83-2.46a25.22,25.22,0,0,0-3.61,5.44L29.1,87.7l-1.05,2.55L24.5,89.07a23.88,23.88,0,0,0-1.23,6.41l3.73.23,0,2.75-3.74.28a24.61,24.61,0,0,0,1.32,6.39l3.55-1.23,1.08,2.54-3.35,1.69a24.25,24.25,0,0,0,3.68,5.39l2.8-2.49,2,1.93-2.44,2.85a24.91,24.91,0,0,0,5.46,3.56L39,116l2.56,1-1.16,3.57a24.51,24.51,0,0,0,6.08,1.16l.25-3.74h2.75l.25,3.74a24.72,24.72,0,0,0,6.41-1.27l-1.21-3.56,2.55-1.06,1.67,3.36a24.55,24.55,0,0,0,5.41-3.64l-2.47-2.81,1.94-2,2.83,2.46a24.69,24.69,0,0,0,3.61-5.45l-3.38-1.64,1.05-2.56Zm-23.59,5.3A13.17,13.17,0,1,1,61.25,96.94,13.17,13.17,0,0,1,48.09,110.11Z"/><path class="cls-3" d="M377.49,363a16.47,16.47,0,0,0,.83-4.3l-2.52-.15v-1.86l2.51-.18a16.52,16.52,0,0,0-.89-4.3L375,353l-.72-1.7,2.25-1.14a16.67,16.67,0,0,0-2.47-3.62l-1.88,1.67-1.32-1.29,1.63-1.91a16.24,16.24,0,0,0-3.67-2.4l-1.09,2.27-1.72-.69.78-2.4a16.75,16.75,0,0,0-4.08-.78l-.17,2.51h-1.85l-.17-2.51a16.5,16.5,0,0,0-4.3.86l.81,2.39-1.71.71-1.12-2.26a16.48,16.48,0,0,0-3.64,2.45l1.66,1.89-1.3,1.31-1.9-1.65a16.76,16.76,0,0,0-2.43,3.66l2.27,1.1-.7,1.72-2.39-.8a16.63,16.63,0,0,0-.83,4.31l2.51.15,0,1.85-2.52.19a16.7,16.7,0,0,0,.89,4.3l2.38-.83.72,1.7-2.24,1.14a16.32,16.32,0,0,0,2.47,3.62l1.88-1.68,1.32,1.3-1.64,1.91a16.58,16.58,0,0,0,3.67,2.4l1.09-2.27,1.73.69-.78,2.4a16.65,16.65,0,0,0,4.08.78l.17-2.52h1.85l.17,2.52a16.58,16.58,0,0,0,4.3-.86l-.81-2.39,1.71-.71,1.12,2.26a17,17,0,0,0,3.64-2.45L371,368.31l1.31-1.32,1.9,1.66a16.76,16.76,0,0,0,2.43-3.66l-2.27-1.11.7-1.71Zm-15.85,3.57a8.85,8.85,0,1,1,8.85-8.85A8.85,8.85,0,0,1,361.64,366.53Z"/><path class="cls-3" d="M192.67,356.75a16.55,16.55,0,0,0,.83-4.3L191,352.3v-1.86l2.51-.18a16.52,16.52,0,0,0-.89-4.3l-2.38.83-.72-1.71,2.25-1.13a16.77,16.77,0,0,0-2.48-3.63L187.39,342l-1.33-1.29,1.64-1.92a16.94,16.94,0,0,0-3.67-2.4l-1.09,2.28-1.72-.69.78-2.4a16.73,16.73,0,0,0-4.09-.78l-.16,2.51H175.9l-.17-2.51a16.5,16.5,0,0,0-4.3.86l.81,2.38-1.71.71-1.12-2.25a16.14,16.14,0,0,0-3.64,2.45l1.66,1.89-1.3,1.31-1.9-1.65a16.94,16.94,0,0,0-2.43,3.65l2.27,1.11-.7,1.72-2.39-.8a16.22,16.22,0,0,0-.83,4.31l2.51.15v1.85l-2.51.19a16.53,16.53,0,0,0,.89,4.29l2.38-.83.72,1.71L161.9,359a17,17,0,0,0,2.48,3.62l1.88-1.68,1.32,1.3-1.64,1.91a16.94,16.94,0,0,0,3.67,2.4l1.09-2.27,1.73.68-.78,2.4a16.2,16.2,0,0,0,4.08.78l.17-2.51h1.85l.16,2.51a16.24,16.24,0,0,0,4.31-.85l-.81-2.39,1.71-.71,1.12,2.26a17,17,0,0,0,3.64-2.45l-1.67-1.89,1.31-1.32,1.9,1.66a16.6,16.6,0,0,0,2.42-3.66l-2.26-1.11.7-1.71Zm-15.85,3.56a8.85,8.85,0,1,1,8.85-8.84A8.84,8.84,0,0,1,176.82,360.31Z"/><path class="cls-3" d="M398.9,151.71a16.63,16.63,0,0,0,.83-4.31l-2.52-.15V145.4l2.51-.19a16.53,16.53,0,0,0-.89-4.29l-2.38.83-.72-1.71L398,138.9a17,17,0,0,0-2.48-3.62L393.61,137l-1.32-1.3,1.64-1.91a16.94,16.94,0,0,0-3.67-2.4l-1.09,2.27-1.72-.68.78-2.4a16.73,16.73,0,0,0-4.09-.78l-.16,2.51h-1.85l-.17-2.51a16.25,16.25,0,0,0-4.31.86l.82,2.38-1.71.71-1.12-2.26A17.14,17.14,0,0,0,372,133.9l1.67,1.89-1.3,1.32-1.91-1.65a16.66,16.66,0,0,0-2.42,3.65l2.26,1.11-.7,1.71-2.39-.79a16.13,16.13,0,0,0-.82,4.31l2.51.15v1.85l-2.51.18a16.52,16.52,0,0,0,.89,4.3l2.38-.83.72,1.71-2.25,1.13a16.43,16.43,0,0,0,2.48,3.63l1.87-1.68,1.33,1.29-1.64,1.92a16.94,16.94,0,0,0,3.67,2.4l1.09-2.28,1.72.69-.77,2.4a16.56,16.56,0,0,0,4.08.78l.17-2.51H384l.16,2.51a16.25,16.25,0,0,0,4.31-.86l-.82-2.38,1.71-.71,1.13,2.25a16.92,16.92,0,0,0,3.64-2.44l-1.67-1.89,1.31-1.32,1.9,1.65a16.54,16.54,0,0,0,2.42-3.65l-2.26-1.11.7-1.72Zm-15.85,3.56a8.85,8.85,0,1,1,8.85-8.84A8.85,8.85,0,0,1,383.05,155.27Z"/><path class="cls-4" d="M250.27,36.4h3.4a3.83,3.83,0,0,1,3.83,3.83v5.7a0,0,0,0,1,0,0H246.44a0,0,0,0,1,0,0v-5.7A3.83,3.83,0,0,1,250.27,36.4Z"/><rect class="cls-4" x="333.57" y="45.85" width="3.56" height="27.1"/><path class="cls-5" d="M333.57,44.49V74.31a.8.8,0,0,1-.8.8H321.83a9.47,9.47,0,0,1-9.47-9.47v-19a2.94,2.94,0,0,1,2.93-2.94h17.48A.8.8,0,0,1,333.57,44.49Z"/><path class="cls-6" d="M318.49,51.19v6.68A3.72,3.72,0,0,1,317.8,60a3.66,3.66,0,0,1-2.56,1.5l-.42,0h-2.46v-14h2.46A3.67,3.67,0,0,1,318.49,51.19Z"/><path class="cls-7" d="M317.8,60a3.66,3.66,0,0,1-2.56,1.5l-2.88-2.89V54.57Z"/><polygon class="cls-7" points="318.49 54.18 318.49 56.2 312.36 50.07 312.36 48.04 318.49 54.18"/><path class="cls-8" d="M331.31,49.86V67.45A2.33,2.33,0,0,1,329,69.79H325.3A2.34,2.34,0,0,1,323,67.45V49.86a2.34,2.34,0,0,1,2.34-2.34H329A2.33,2.33,0,0,1,331.31,49.86Z"/><path class="cls-6" d="M331.31,49.86V61.54H323V49.86a2.35,2.35,0,0,1,1.77-2.26,2.12,2.12,0,0,1,.57-.08H329A2.33,2.33,0,0,1,331.31,49.86Z"/><polygon class="cls-7" points="331.31 60.71 331.31 61.54 328.08 61.54 322.96 56.42 322.96 52.36 331.31 60.71"/><path class="cls-7" d="M331.31,54.18v2l-7.81-7.82a2.26,2.26,0,0,1,1.23-.78Z"/><rect class="cls-4" x="380.39" y="41.5" width="13.26" height="4.01"/><path class="cls-9" d="M396.68,50.84H377.35a3,3,0,0,1-3-3h0a3,3,0,0,1,3-3h19.33a3,3,0,0,1,3,3h0A3,3,0,0,1,396.68,50.84Z"/><path class="cls-9" d="M396.68,62.72H377.35a3,3,0,0,1-3-3h0a3,3,0,0,1,3-3h19.33a3,3,0,0,1,3,3h0A3,3,0,0,1,396.68,62.72Z"/><path class="cls-4" d="M396.68,56.78H377.35a3,3,0,0,1-3-3h0a3,3,0,0,1,3-3h19.33a3,3,0,0,1,3,3h0A3,3,0,0,1,396.68,56.78Z"/><rect class="cls-4" x="329.87" y="233.45" width="4.32" height="4.48"/><path class="cls-9" d="M338.24,239.5H325.82a7.7,7.7,0,0,1,12.42,0Z"/><rect class="cls-8" x="332.13" y="192.13" width="4.13" height="33.66" transform="translate(59.73 -73.92) rotate(13.85)"/><rect class="cls-5" x="341.82" y="189.48" width="4.13" height="41.24" transform="translate(211.43 -170.5) rotate(39.39)"/><rect class="cls-5" x="345.12" y="163.31" width="4.13" height="26.64" transform="translate(190.95 -180.2) rotate(39.39)"/><rect class="cls-5" x="345.12" y="143.05" width="4.13" height="26.64" transform="translate(-20.37 255.83) rotate(-39.39)"/><rect class="cls-5" x="345.12" y="121.9" width="4.13" height="26.64" transform="translate(164.67 -189.6) rotate(39.39)"/><rect class="cls-5" x="345.12" y="101.64" width="4.13" height="26.64" transform="translate(5.91 246.43) rotate(-39.39)"/><rect class="cls-5" x="345.12" y="80.43" width="4.13" height="26.64" transform="translate(138.35 -199.02) rotate(39.39)"/><rect class="cls-5" x="345.12" y="60.17" width="4.13" height="26.64" transform="translate(32.22 237) rotate(-39.39)"/><rect class="cls-5" x="345.12" y="39.02" width="4.13" height="26.64" transform="translate(112.07 -208.43) rotate(39.39)"/><rect class="cls-5" x="327.23" y="221.75" width="9.6" height="12.54"/><rect class="cls-4" x="359.48" y="233.45" width="4.32" height="4.48" transform="translate(723.29 471.37) rotate(180)"/><path class="cls-9" d="M355.43,239.5h12.43a7.71,7.71,0,0,0-12.43,0Z"/><rect class="cls-8" x="357.42" y="192.13" width="4.13" height="33.66" transform="translate(758.53 325.81) rotate(166.15)"/><rect class="cls-5" x="347.72" y="189.48" width="4.13" height="41.24" transform="translate(753.46 150.52) rotate(140.61)"/><rect class="cls-5" x="356.84" y="221.75" width="9.6" height="12.54" transform="translate(723.29 456.05) rotate(180)"/><rect class="cls-8" x="352.83" y="40.73" width="4.54" height="144.98"/><rect class="cls-8" x="336.31" y="40.73" width="4.54" height="144.98"/><rect class="cls-4" x="336.63" y="188.41" width="20.42" height="4.38"/><rect class="cls-9" x="332.03" y="192.2" width="29.61" height="4.38"/><rect class="cls-9" x="332.03" y="184.61" width="29.61" height="4.38"/><rect class="cls-5" x="384.57" y="18.14" width="4.13" height="26.64" transform="translate(116.98 310.31) rotate(-50.61)"/><rect class="cls-5" x="364.31" y="18.14" width="4.13" height="26.64" transform="translate(574.54 334.58) rotate(-129.39)"/><rect class="cls-5" x="343.16" y="18.14" width="4.13" height="26.64" transform="translate(101.84 278.31) rotate(-50.61)"/><rect class="cls-5" x="322.9" y="18.14" width="4.13" height="26.64" transform="translate(506.86 302.57) rotate(-129.39)"/><rect class="cls-5" x="301.68" y="18.14" width="4.13" height="26.64" transform="translate(86.69 246.25) rotate(-50.61)"/><rect class="cls-5" x="281.42" y="18.14" width="4.13" height="26.64" transform="translate(439.06 270.52) rotate(-129.39)"/><rect class="cls-5" x="260.27" y="18.14" width="4.13" height="26.64" transform="translate(71.55 214.25) rotate(-50.61)"/><rect class="cls-5" x="240.58" y="18.14" width="4.13" height="26.64" transform="translate(372.3 238.96) rotate(-129.39)"/><rect class="cls-5" x="219.37" y="18.14" width="4.13" height="26.64" transform="translate(56.61 182.64) rotate(-50.61)"/><rect class="cls-5" x="199.11" y="18.14" width="4.13" height="26.64" transform="translate(304.51 206.9) rotate(-129.39)"/><polygon class="cls-8" points="204.76 25.81 209.83 21.27 377.65 21.27 383.05 25.81 204.76 25.81"/><polygon class="cls-8" points="184.28 42.33 190.2 37.79 397.62 37.79 404.2 42.33 184.28 42.33"/><ellipse class="cls-10" cx="237.75" cy="321.62" rx="54.78" ry="7.61"/><ellipse class="cls-10" cx="148.03" cy="327.27" rx="56.9" ry="7.61"/><polygon class="cls-11" points="210.3 267.05 205.97 314.37 271.52 314.37 265.1 267.05 210.3 267.05"/><path class="cls-12" d="M267.33,283.49l-2.23-16.44H210.3l-1.5,16.44C228.31,283.73,247.82,282.16,267.33,283.49Z"/><path class="cls-12" d="M206.23,311.56l-.26,2.81h65.55l-.64-4.73C249.37,309.5,228,311.15,206.23,311.56Z"/><polygon class="cls-13" points="110.55 76.18 110.55 254.45 377.95 249.95 377.95 73.34 110.55 76.18"/><polygon class="cls-14" points="121.61 84.16 121.61 240.94 365.79 236.43 365.79 84.16 121.61 84.16"/><polygon class="cls-15" points="128.62 96.41 128.62 148.67 288.25 148.67 288.25 97.48 128.62 96.41"/><rect class="cls-16" x="136.84" y="87.92" width="19.15" height="2.79"/><rect class="cls-17" x="164.4" y="87.92" width="19.15" height="2.79"/><rect class="cls-17" x="198.02" y="87.92" width="19.15" height="2.79"/><rect class="cls-17" x="231.64" y="87.92" width="19.15" height="2.79"/><rect class="cls-17" x="265.27" y="87.92" width="19.15" height="2.79"/><rect class="cls-17" x="298.89" y="87.92" width="19.15" height="2.79"/><rect class="cls-17" x="332.51" y="87.92" width="19.15" height="2.79"/><polygon class="cls-18" points="110.55 254.45 110.55 280.55 377.95 277.21 377.95 249.95 110.55 254.45"/><polygon class="cls-11" points="205.97 314.37 194.48 321.13 277.26 321.13 271.52 314.37 205.97 314.37"/><path class="cls-12" d="M272.87,316l-1.35-1.59H206l-4.93,2.9C224.69,318,249,316.53,272.87,316Z"/><polygon class="cls-19" points="110.55 76.18 377.95 249.95 377.95 73.34 110.55 76.18"/><path class="cls-10" d="M402.85,362.82c0,2.85-24.53,5.15-54.79,5.15s-54.78-2.3-54.78-5.15,24.53-5.14,54.78-5.14S402.85,360,402.85,362.82Z"/><rect class="cls-11" x="310.22" y="264.72" width="11.49" height="97.33"/><path class="cls-20" d="M310.22,336.46v7.43a86.81,86.81,0,0,0,11.49-.66v-7.16A80.25,80.25,0,0,1,310.22,336.46Z"/><path class="cls-20" d="M321.71,298V264.72H310.22V298A73.45,73.45,0,0,0,321.71,298Z"/><path class="cls-20" d="M310.22,264.72v3.21a32.85,32.85,0,0,0,11.49.62v-3.83Z"/><circle class="cls-4" cx="315.96" cy="257.93" r="9.69"/><circle class="cls-21" cx="315.96" cy="257.93" r="7.44"/><rect class="cls-11" x="374.42" y="264.72" width="11.49" height="97.33"/><path class="cls-20" d="M385.91,268.15v-3.43H374.42v2.92A17.38,17.38,0,0,0,385.91,268.15Z"/><path class="cls-20" d="M385.91,335.1c-3.87,0-7.79.12-11.49-.57v9.37h11.49Z"/><path class="cls-4" d="M389.85,257.93a9.69,9.69,0,1,1-9.69-9.68A9.69,9.69,0,0,1,389.85,257.93Z"/><circle class="cls-21" cx="380.16" cy="257.93" r="7.44"/><polygon class="cls-16" points="299.53 271.73 299.53 294.67 396.6 294.67 396.6 269.4 299.53 271.73"/><path class="cls-21" d="M299.53,294.67h8.26c-2.78-2.67-5.53-5.38-8.26-8.1Z"/><path class="cls-21" d="M331,271l-26.3.63C312.8,279,320.43,286.8,328,294.67h25.86A306.49,306.49,0,0,0,331,271Z"/><path class="cls-21" d="M375.77,269.9l-24.74.6c7.31,8,14.51,16.2,21.9,24.17H396.6V291.6A247,247,0,0,0,375.77,269.9Z"/><path class="cls-21" d="M396.6,269.4l-3.17.08c1.07,1.41,2.12,2.82,3.17,4.22Z"/><polygon class="cls-16" points="299.53 316.71 299.53 339.65 396.6 339.65 396.6 314.39 299.53 316.71"/><path class="cls-21" d="M299.53,339.65h8.26q-4.17-4-8.26-8.09Z"/><path class="cls-21" d="M331,316l-26.3.63c8.11,7.36,15.74,15.19,23.33,23.06h25.86A308.3,308.3,0,0,0,331,316Z"/><path class="cls-21" d="M375.77,314.89l-24.74.59c7.31,8,14.51,16.21,21.9,24.17H396.6v-3.06A245.64,245.64,0,0,0,375.77,314.89Z"/><path class="cls-21" d="M396.6,314.39l-3.17.08c1.07,1.41,2.12,2.81,3.17,4.22Z"/><path class="cls-16" d="M375.53,284.91v40a2.1,2.1,0,0,1-1.86,2.07l-.2,0-5.41.07-5.94.09-6.88.09-6,.08-6.87.09-6,.09-6.87.1-5.95.08-2.68,0a2.08,2.08,0,0,1-2.12-2.09V284.91a2,2,0,0,1,.17-.81,2.07,2.07,0,0,1,1.93-1.28h52.49A2.09,2.09,0,0,1,375.53,284.91Z"/><path class="cls-8" d="M368.06,327.12l-5.94.09L319,284.1a2.07,2.07,0,0,1,1.93-1.28h2.82Z"/><path class="cls-8" d="M375.53,322.87V325a2.1,2.1,0,0,1-1.86,2.07l-44.21-44.21h6Z"/><polygon class="cls-8" points="375.54 311.13 375.54 317.16 341.2 282.82 347.22 282.82 375.54 311.13"/><polygon class="cls-8" points="375.54 299.4 375.54 305.43 352.93 282.82 358.96 282.82 375.54 299.4"/><polygon class="cls-8" points="375.54 287.67 375.54 293.69 364.67 282.82 370.69 282.82 375.54 287.67"/><polygon class="cls-8" points="355.24 327.3 349.28 327.38 318.84 296.93 318.84 290.9 355.24 327.3"/><polygon class="cls-8" points="342.41 327.47 336.46 327.56 318.84 309.94 318.84 303.9 342.41 327.47"/><polygon class="cls-8" points="329.59 327.65 323.64 327.74 318.84 322.94 318.84 316.9 329.59 327.65"/><path class="cls-16" d="M321.91,287.12v36.36a1.86,1.86,0,0,0,1.89,1.86l46.82-.64a1.87,1.87,0,0,0,1.84-1.87V287.12a1.87,1.87,0,0,0-1.86-1.87H323.78A1.87,1.87,0,0,0,321.91,287.12Z"/><path class="cls-4" d="M327.34,312.11l1,.29a1.71,1.71,0,0,1-.31.68,1.3,1.3,0,0,1-.52.41,1.8,1.8,0,0,1-.79.14,2.15,2.15,0,0,1-.95-.17,1.49,1.49,0,0,1-.64-.59,2,2,0,0,1-.27-1.09,1.88,1.88,0,0,1,.47-1.37,1.8,1.8,0,0,1,1.34-.48,1.73,1.73,0,0,1,1.06.28,1.61,1.61,0,0,1,.58.84l-1,.21a.77.77,0,0,0-.11-.24.57.57,0,0,0-.22-.19.6.6,0,0,0-.3-.07.65.65,0,0,0-.58.3,1.84,1.84,0,0,0,0,1.52.61.61,0,0,0,.51.22.65.65,0,0,0,.48-.17A1.14,1.14,0,0,0,327.34,312.11Z"/><path class="cls-4" d="M328.71,311.79a1.7,1.7,0,0,1,1.85-1.86,1.86,1.86,0,0,1,1.37.48,1.79,1.79,0,0,1,.49,1.35,2.25,2.25,0,0,1-.21,1,1.58,1.58,0,0,1-.61.62,2,2,0,0,1-1,.22,2.26,2.26,0,0,1-1-.19,1.45,1.45,0,0,1-.64-.61A2,2,0,0,1,328.71,311.79Zm1.11,0a1.18,1.18,0,0,0,.2.78.66.66,0,0,0,.54.24.71.71,0,0,0,.56-.23,1.37,1.37,0,0,0,.19-.84,1.17,1.17,0,0,0-.2-.74.72.72,0,0,0-.56-.23.65.65,0,0,0-.53.24A1.16,1.16,0,0,0,329.82,311.79Z"/><path class="cls-4" d="M333,310h1l1.35,2v-2h1.05v3.58H335.4l-1.34-2v2h-1Z"/><path class="cls-4" d="M337,312.39l1.05-.07a.78.78,0,0,0,.14.39.56.56,0,0,0,.49.22.55.55,0,0,0,.36-.11.32.32,0,0,0,.13-.26.35.35,0,0,0-.12-.25,1.47,1.47,0,0,0-.57-.2,2.48,2.48,0,0,1-1-.44.86.86,0,0,1-.31-.69.91.91,0,0,1,.16-.52,1.18,1.18,0,0,1,.48-.39,2.31,2.31,0,0,1,.88-.14,1.81,1.81,0,0,1,1.05.26,1.12,1.12,0,0,1,.43.81l-1.05.06a.51.51,0,0,0-.17-.35.58.58,0,0,0-.37-.11.48.48,0,0,0-.29.08.28.28,0,0,0-.1.2.19.19,0,0,0,.08.15,1.08,1.08,0,0,0,.37.14,4.76,4.76,0,0,1,1,.31,1.08,1.08,0,0,1,.46.4,1,1,0,0,1,.14.53,1.09,1.09,0,0,1-.19.63,1.1,1.1,0,0,1-.53.44,2.14,2.14,0,0,1-.86.15,1.77,1.77,0,0,1-1.27-.35A1.38,1.38,0,0,1,337,312.39Z"/><path class="cls-4" d="M340.54,310h3.36v.89h-1.13v2.69h-1.1v-2.69h-1.13Z"/><path class="cls-4" d="M344.42,313.57V310h1.84a2.6,2.6,0,0,1,.78.09.85.85,0,0,1,.44.33,1,1,0,0,1,.17.58,1,1,0,0,1-.13.51,1,1,0,0,1-.35.35,1,1,0,0,1-.39.14,1.12,1.12,0,0,1,.29.14l.18.18a2.11,2.11,0,0,1,.15.23l.54,1h-1.25l-.59-1.09a1.37,1.37,0,0,0-.2-.28.51.51,0,0,0-.28-.08h-.09v1.45Zm1.11-2.13H346l.3,0a.36.36,0,0,0,.18-.12.37.37,0,0,0,.07-.2.34.34,0,0,0-.11-.27.73.73,0,0,0-.42-.09h-.48Z"/><path class="cls-4" d="M350.53,310h1.11v2.14a2,2,0,0,1-.1.6,1.41,1.41,0,0,1-.31.49,1.16,1.16,0,0,1-.44.29,2.28,2.28,0,0,1-.78.12l-.57,0a1.45,1.45,0,0,1-.52-.15,1.33,1.33,0,0,1-.38-.31,1.13,1.13,0,0,1-.23-.41,2.08,2.08,0,0,1-.1-.6V310h1.1v2.19a.59.59,0,0,0,.16.45.61.61,0,0,0,.45.17.65.65,0,0,0,.45-.16.61.61,0,0,0,.16-.46Z"/><path class="cls-4" d="M354.75,312.11l1,.29a1.71,1.71,0,0,1-.31.68,1.3,1.3,0,0,1-.52.41,1.8,1.8,0,0,1-.79.14,2.15,2.15,0,0,1-1-.17,1.49,1.49,0,0,1-.64-.59,2,2,0,0,1-.27-1.09,1.88,1.88,0,0,1,.47-1.37,1.8,1.8,0,0,1,1.34-.48,1.73,1.73,0,0,1,1.06.28,1.61,1.61,0,0,1,.58.84l-1,.21a.77.77,0,0,0-.11-.24.57.57,0,0,0-.22-.19.6.6,0,0,0-.3-.07.65.65,0,0,0-.58.3,1.84,1.84,0,0,0,0,1.52.61.61,0,0,0,.51.22.65.65,0,0,0,.48-.17A1.14,1.14,0,0,0,354.75,312.11Z"/><path class="cls-4" d="M356,310h3.36v.89h-1.13v2.69h-1.11v-2.69H356Z"/><path class="cls-4" d="M359.91,310H361v3.58h-1.11Z"/><path class="cls-4" d="M361.68,311.79a1.94,1.94,0,0,1,3.22-1.38,1.83,1.83,0,0,1,.48,1.35,2.25,2.25,0,0,1-.21,1,1.52,1.52,0,0,1-.61.62,2,2,0,0,1-1,.22,2.23,2.23,0,0,1-1-.19,1.52,1.52,0,0,1-.65-.61A2.08,2.08,0,0,1,361.68,311.79Zm1.1,0a1.24,1.24,0,0,0,.2.78.76.76,0,0,0,1.1,0,1.36,1.36,0,0,0,.2-.84,1.17,1.17,0,0,0-.2-.74.74.74,0,0,0-.56-.23.68.68,0,0,0-.54.24A1.22,1.22,0,0,0,362.78,311.79Z"/><path class="cls-4" d="M366,310h1l1.35,2v-2h1v3.58h-1l-1.34-2v2h-1Z"/><path class="cls-4" d="M331.42,298.38h2.43v4.69a3.89,3.89,0,0,1-.22,1.32,2.79,2.79,0,0,1-.68,1.08,2.63,2.63,0,0,1-1,.65,4.81,4.81,0,0,1-1.7.27,9.57,9.57,0,0,1-1.26-.09,3.37,3.37,0,0,1-1.13-.31,2.83,2.83,0,0,1-.84-.68,2.57,2.57,0,0,1-.52-.91,4.71,4.71,0,0,1-.22-1.33v-4.69h2.42v4.8a1.39,1.39,0,0,0,.36,1,1.34,1.34,0,0,0,2.33-1Z"/><path class="cls-4" d="M335.48,298.38h2.27l3,4.35v-4.35H343v7.87h-2.29l-3-4.32v4.32h-2.29Z"/><path class="cls-4" d="M344.66,298.38h3.61a4.21,4.21,0,0,1,1.73.29,2.81,2.81,0,0,1,1.09.83,3.54,3.54,0,0,1,.62,1.26,5.83,5.83,0,0,1,.2,1.53,5.27,5.27,0,0,1-.29,1.95,3.17,3.17,0,0,1-.8,1.17,2.73,2.73,0,0,1-1.1.63,5.7,5.7,0,0,1-1.45.21h-3.61Zm2.43,1.78v4.3h.6a2.36,2.36,0,0,0,1.08-.17,1.12,1.12,0,0,0,.51-.59,3.74,3.74,0,0,0,.18-1.37,2.61,2.61,0,0,0-.41-1.71,1.71,1.71,0,0,0-1.35-.46Z"/><path class="cls-4" d="M353.18,298.38h6.52v1.68h-4.08v1.25h3.78v1.6h-3.78v1.56h4.2v1.78h-6.64Z"/><path class="cls-4" d="M361.16,306.25v-7.87h4a5.89,5.89,0,0,1,1.73.19,1.82,1.82,0,0,1,1,.72,2.18,2.18,0,0,1,.36,1.27,2.22,2.22,0,0,1-.27,1.13,2.18,2.18,0,0,1-.77.77,3.11,3.11,0,0,1-.86.32,1.6,1.6,0,0,1,1,.7,3.16,3.16,0,0,1,.35.49l1.17,2.28h-2.74l-1.31-2.41a1.7,1.7,0,0,0-.44-.6,1,1,0,0,0-.59-.18h-.22v3.19Zm2.44-4.68h1a3.94,3.94,0,0,0,.64-.11.62.62,0,0,0,.4-.25.72.72,0,0,0,.15-.45.73.73,0,0,0-.24-.59,1.5,1.5,0,0,0-.91-.2H363.6Z"/><polygon class="cls-4" points="100.88 329.71 131.43 188.09 134.03 188.09 102.6 330.08 100.88 329.71"/><polygon class="cls-4" points="194.16 329.71 163.61 188.09 161.01 188.09 192.44 330.08 194.16 329.71"/><rect class="cls-4" x="127.74" y="211.27" width="39.43" height="2.49"/><rect class="cls-4" x="121.24" y="238.24" width="52" height="2.49"/><rect class="cls-4" x="116.41" y="265.22" width="62.35" height="2.49"/><rect class="cls-4" x="109.75" y="292.19" width="75.2" height="2.49"/><rect class="cls-4" x="103.19" y="317.76" width="87.49" height="2.49"/><path class="cls-10" d="M158.5,333.1c0,2.85-16.66,5.15-37.21,5.15S84.07,336,84.07,333.1,100.73,328,121.29,328,158.5,330.26,158.5,333.1Z"/><polygon class="cls-21" points="122.12 265.92 100.44 329.26 142.13 329.26 122.12 265.92"/><path class="cls-16" d="M128.62,286.49l-4.1-13c-1.67.07-3.35.09-5,.06l-4.69,13.72A65.29,65.29,0,0,0,128.62,286.49Z"/><path class="cls-16" d="M138.9,319l-4.39-13.91a72.87,72.87,0,0,1-25.45-1.07l-5.46,16C115.59,323,127.4,322,138.9,319Z"/><path class="cls-22" d="M142.13,329.26,133,300.43c-6.2,11.66-17.21,17.87-29.86,20.88l-2.72,7.95Z"/><polygon class="cls-21" points="92.29 334.06 94.02 329.26 149.32 329.26 150.28 333.58 92.29 334.06"/><path class="cls-23" d="M153.05,140.66s13.67-11.31,16.77-19.36,3.06-8.91,3.06-8.91l3.46-.72s1.36,21.82-17.79,36C151.9,152.21,148.25,145,153.05,140.66Z"/><path class="cls-24" d="M176.32,111.76s1.44-1.77,1-3.11c-.19-.47.85-2.79.14-3.16-.52-.28-.78.83-.88,1.12a1.38,1.38,0,0,1-1.63,1,.42.42,0,0,1-.19-.06.41.41,0,0,1-.11-.24c-.21-1.15,0-2.33-.13-3.49a.18.18,0,0,0-.06-.15.24.24,0,0,0-.17,0,1.71,1.71,0,0,0-1.11.93c-1.1,1.93-.41,4,.31,5.95l-.66.94Z"/><polygon class="cls-24" points="160.45 135.68 159 140.35 153.57 139.69 155.22 132.1 160.45 135.68"/><path class="cls-24" d="M159,120.23s8.38,9.72,4.59,14-11.61-2.7-11.61-2.7S146.86,121.58,159,120.23Z"/><path class="cls-25" d="M156.74,115.32c2.12-.43,2.75-.08,3.59,1.92a2.85,2.85,0,0,1,.25,1.25,1.83,1.83,0,0,1-1.57,1.74,10.89,10.89,0,0,1-1.46.62c-9.36,3.34-5.75,9.18-1.63,12.94.33.3.53.6.49.85-.2,1.13-.89,2.37-4.25,0-5.17-3.64-12.6-13.08-5.9-16.26A35.64,35.64,0,0,1,156.74,115.32Z"/><path class="cls-24" d="M151.67,130.26a1.51,1.51,0,1,0,1.51-1.5A1.5,1.5,0,0,0,151.67,130.26Z"/><path class="cls-25" d="M153.18,123.32a2.21,2.21,0,0,0,.11,2.26,2.2,2.2,0,0,1-1.06,3.51C150.44,129.54,145.7,124.28,153.18,123.32Z"/><path class="cls-24" d="M160.79,122.54s4,2.39,4.37,3-1.88,1.12-1.88,1.12Z"/><path class="cls-26" d="M126.66,226.79l4.29,2.74s8.55,6,8.13,7.26-.86,2.56-3.59,1.19l-8.77-5a2.85,2.85,0,0,1-1.27-3.81Z"/><path class="cls-24" d="M131.12,229.59a4.07,4.07,0,0,0,.64.51c-1.95.69-3.7-.42-4.89-2.14a3.41,3.41,0,0,1-.43-.73l.22-.44Z"/><polygon class="cls-24" points="126.66 226.79 127.82 223.91 133.12 226.09 131.12 229.59 126.66 226.79"/><path class="cls-27" d="M148.68,168.68a91.83,91.83,0,0,0-7,27,16.31,16.31,0,0,1-3.51,6.33c-1.47,1.47-10.93,20.68-11.5,24.75l4.69,2.71,23.21-36.39S160.67,164.84,148.68,168.68Z"/><path class="cls-26" d="M155.89,232.51,161,233s10.32,1.53,10.52,2.86.37,2.67-2.68,2.67L158.73,238a2.84,2.84,0,0,1-2.84-2.83Z"/><path class="cls-24" d="M161.14,233a3.93,3.93,0,0,0,.8.17c-1.44,1.49-3.5,1.27-5.33.28a4.06,4.06,0,0,1-.72-.47v-.49Z"/><polygon class="cls-24" points="155.89 232.51 155.64 229.42 161.36 229 161.14 233.02 155.89 232.51"/><path class="cls-28" d="M151,171.09s-.76,20.16,2.41,26.83a17.38,17.38,0,0,1,0,7.24c-.46,1.69-.23,15.14,2.38,26.68h5.52l4.09-59.45Z"/><polygon class="cls-29" points="153.18 138.29 153.92 135.68 162.14 138.29 161.46 140.37 153.18 138.29"/><path class="cls-30" d="M154.11,137.71s17.79-3.62,11.76,34.69l-18.22-1.31S144.15,142.84,154.11,137.71Z"/><path class="cls-17" d="M174.81,112.83l23.42,23.41a6.17,6.17,0,1,0,4.48-4.48h0l-23.43-23.41h0a7.83,7.83,0,0,0-1.2-9,7.63,7.63,0,0,0-7.75-1.69l4.39,4.38-.17,6.07-6.06.17-4.39-4.39a7.61,7.61,0,0,0,1.7,7.75A7.81,7.81,0,0,0,174.81,112.83ZM206.92,135l1,3.69-2.7,2.71-3.7-1-1-3.69,2.71-2.71Z"/><rect class="cls-17" x="172.37" y="96.38" width="1" height="6.2" transform="translate(-19.7 151.42) rotate(-45.01)"/><rect class="cls-17" x="166.11" y="102.65" width="1" height="6.2" transform="translate(-25.96 148.88) rotate(-45.03)"/><path class="cls-31" d="M209.29,141.39a6.17,6.17,0,1,0-8.73,0A6.16,6.16,0,0,0,209.29,141.39Zm-8.06-5.34,2.71-2.71,3.69,1,1,3.69-2.7,2.71-3.7-1Z"/><rect class="cls-31" x="186.11" y="103.8" width="6.33" height="35.18" transform="translate(408.93 73.31) rotate(134.98)"/><path class="cls-31" d="M166.5,110.92a7.63,7.63,0,0,1-1.69-7.75l4.39,4.39,6.06-.17.16-6.07L171,96.94a7.64,7.64,0,0,1,7.75,1.69,7.83,7.83,0,0,1,1.2,9,9.52,9.52,0,0,1-1.86,2.62,9.62,9.62,0,0,1-2.61,1.86A7.83,7.83,0,0,1,166.5,110.92Z"/><path class="cls-24" d="M194.4,134.55c0-.07,0-.15,0-.23.08-.44.16-.88.25-1.31,0-.06,0-.13.09-.15s.11,0,.16.07l.25.23a.39.39,0,0,0,.1.08l.12,0c.73,0,1.08-.69,1.44-1.2.54-.78,1-1.61,1.47-2.44.43-.55.78-.62.57.27a11.88,11.88,0,0,1-1.4,2.63s0,0,0,.08,2.13-3.93,2.49-3.81.44.22.34.53-2.14,3.68-2.07,3.75,2.42-3.48,2.62-3.37.46.18.24.69-2.3,3.11-2.21,3.18,1.57-1.84,1.8-1.66.13.51,0,.71-1.36,1.43-1.44,1.63-1.08,2.45-1.72,2.73a3.43,3.43,0,0,0-1,.69l-2.52-2c-.08-.06.14-.49.17-.56a2.62,2.62,0,0,0,.19-.49Z"/><path class="cls-24" d="M196.53,137.67a9.32,9.32,0,0,0-.8.64l-2.79-2.17,1.07-.44Z"/><path class="cls-30" d="M158.56,139.36s17.47,3.08,25.61.22,8.77-3.44,8.77-3.44l2.79,2.17S180,153.49,156.8,148.08C149,146,152.18,138.49,158.56,139.36Z"/><path class="cls-32" d="M341.63,168s-70.26-43.53-87.65-43.1"/><path class="cls-4" d="M241,116.37a13.34,13.34,0,0,0,.33,3.33,12,12,0,0,0,1.32,3.13,12.83,12.83,0,0,0,2.2,2.68,10.87,10.87,0,0,0,1,.78,2.16,2.16,0,0,1,1.93-1.35,10.74,10.74,0,0,1-1.67-1,11.91,11.91,0,0,1-2.09-2,10.16,10.16,0,0,1-2-5.6.54.54,0,0,0-.5-.47.5.5,0,0,0-.51.5Z"/><path class="cls-4" d="M245.9,126.29a10.7,10.7,0,0,0,1.91,1.16,12.61,12.61,0,0,0,2.06.73,11,11,0,0,0,1.36.29l.89.09.22,0H253a12.17,12.17,0,0,0,1.8-.13,12.77,12.77,0,0,0,3.5-1.07,14,14,0,0,0,3.07-2.07,14.18,14.18,0,0,0,2.36-2.92,13.87,13.87,0,0,0,1.44-3.52,17.46,17.46,0,0,0,.3-1.9l.05-.48v-1.35a14.22,14.22,0,0,0-.79-3.92A13.51,13.51,0,0,0,260,105a15.14,15.14,0,0,0-3.58-1.89l-.51-.16,1.53-10.46a5.64,5.64,0,0,0,0-1.48,5.1,5.1,0,1,0-10.09,1.48l1.92,13,.08.62a3,3,0,0,0,3,2.52,8.35,8.35,0,0,1,2.29.18,9.29,9.29,0,0,1,2.19.85,9.48,9.48,0,0,1,1.89,1.48,9.68,9.68,0,0,1,1.38,2,10.37,10.37,0,0,1,.76,2.26l.08.8,0,.16v.41a9.28,9.28,0,0,1,0,1.29,10.62,10.62,0,0,1-.72,2.48,9.93,9.93,0,0,1-1.44,2.2,10.33,10.33,0,0,1-2.05,1.73,9.82,9.82,0,0,1-2.51,1.08,9.46,9.46,0,0,1-1.37.23l-.4,0-.07,0h-.93a12.6,12.6,0,0,1-2-.31,7.08,7.08,0,0,1-.75-.22c-.29-.1-.58-.23-.87-.36A2.16,2.16,0,0,0,245.9,126.29Z"/><rect class="cls-4" x="226.23" y="49.99" width="1.83" height="34.81"/><rect class="cls-4" x="237.58" y="49.99" width="1.83" height="34.81"/><rect class="cls-4" x="265.25" y="49.99" width="1.83" height="34.81"/><rect class="cls-4" x="276.6" y="49.99" width="1.83" height="34.81"/><path class="cls-9" d="M239.77,50a7,7,0,1,1-7-6.94A7,7,0,0,1,239.77,50Z"/><circle class="cls-9" cx="271.84" cy="49.99" r="6.95"/><rect class="cls-8" x="222.87" y="45.66" width="59.09" height="8.68"/><path class="cls-4" d="M235.31,50A2.32,2.32,0,1,1,233,47.68,2.32,2.32,0,0,1,235.31,50Z"/><path class="cls-4" d="M274.15,50a2.31,2.31,0,1,1-2.31-2.31A2.32,2.32,0,0,1,274.15,50Z"/><path class="cls-8" d="M279.68,87.94,279,89.11l-1.72,3.13-2,3.66A2.12,2.12,0,0,1,273.44,97H230.3a2.13,2.13,0,0,1-1.85-1.09l-4.39-8a2,2,0,0,1-.21-1.47,2.07,2.07,0,0,1,2.05-1.66h51.94A2.11,2.11,0,0,1,279.68,87.94Z"/><polygon class="cls-16" points="279.03 89.11 277.31 92.25 269.86 84.81 274.73 84.81 279.03 89.11"/><polygon class="cls-16" points="271.01 96.98 266.15 96.98 253.96 84.81 258.83 84.81 271.01 96.98"/><polygon class="cls-16" points="255.12 96.98 250.25 96.98 238.07 84.81 242.94 84.81 255.12 96.98"/><path class="cls-16" d="M239.23,97h-4.87L223.85,86.47a2.07,2.07,0,0,1,2.05-1.66H227Z"/><path class="cls-4" d="M235.31,89.09A2.32,2.32,0,1,1,233,86.78,2.31,2.31,0,0,1,235.31,89.09Z"/><path class="cls-4" d="M274.15,89.09a2.31,2.31,0,1,1-2.31-2.31A2.31,2.31,0,0,1,274.15,89.09Z"/><path class="cls-33" d="M174.36,168s67.48-43.63,79.62-43.1"/><polygon class="cls-34" points="173.28 165.9 342.95 165.9 342.95 218.55 172.31 218.55 173.28 165.9"/><polygon class="cls-21" points="260.09 299.49 238.41 362.82 280.11 362.82 260.09 299.49"/><path class="cls-16" d="M266.59,320.05l-4.09-13c-1.68.08-3.35.09-5,.06l-4.7,13.72A64.56,64.56,0,0,0,266.59,320.05Z"/><path class="cls-16" d="M276.88,352.59l-4.4-13.9A73.07,73.07,0,0,1,247,337.62l-5.46,16C253.57,356.52,265.38,355.58,276.88,352.59Z"/><path class="cls-22" d="M280.11,362.82,271,334c-6.2,11.66-17.21,17.86-29.86,20.87l-2.73,7.95Z"/><polygon class="cls-21" points="230.27 367.62 232 362.82 287.3 362.82 288.25 367.14 230.27 367.62"/><path class="cls-10" d="M296.9,367.62c0,2.84-16.67,5.15-37.22,5.15s-37.21-2.31-37.21-5.15,16.66-5.14,37.21-5.14S296.9,364.78,296.9,367.62Z"/></g></g></g></svg>