<svg xmlns="http://www.w3.org/2000/svg" viewBox="0 0 40 36"><polygon points="26 18 36 9 26 0 26 18" style="fill:#ff7043"/><rect x="10" y="6" width="20" height="6" style="fill:#ff7043"/><rect y="14" width="39" height="22" style="fill:#a5d6a7"/><path d="M0,36H40V14H0ZM38,16V34H2V16Z" style="fill:#388e3c"/><circle cx="8" cy="25" r="2" style="fill:#388e3c"/><circle cx="32" cy="25" r="2" style="fill:#388e3c"/><circle cx="20" cy="25" r="7" style="fill:#388e3c"/><path d="M34.78,15A3,3,0,0,0,39,19.22V15Z" style="fill:#388e3c"/><path d="M5.22,15H1v4.22A3,3,0,0,0,5.22,15Z" style="fill:#388e3c"/><path d="M5.22,35A3,3,0,0,0,1,30.78V35Z" style="fill:#388e3c"/><path d="M39,35V30.78A3,3,0,0,0,34.78,35Z" style="fill:#388e3c"/></svg>