<svg xmlns="http://www.w3.org/2000/svg" viewBox="0 0 497 382"><rect x="32" width="465" height="286" rx="30" style="fill:#1067ae"/><rect x="32" y="52" width="465" height="64" style="fill:#57565c"/><rect y="96" width="465" height="286" rx="30" style="fill:#227fc0"/><rect x="286" y="141" width="131" height="32" rx="10" style="fill:#fff"/><rect x="48" y="141" width="70" height="51" rx="10" style="fill:#f8be32"/><path d="M204.58,314.5H48a7.5,7.5,0,1,1,0-15H204.58a7.5,7.5,0,1,1,0,15Z" style="fill:#fff"/><path d="M134,344.5H48.35a7.5,7.5,0,0,1,0-15H134a7.5,7.5,0,0,1,0,15Z" style="fill:#fff"/><circle cx="394.5" cy="323.5" r="22.5" style="fill:#f9a242"/><circle cx="364.5" cy="323.5" r="22.5" style="fill:#f8be32"/><path d="M113.35,262.5h-65a7.5,7.5,0,0,1,0-15h65a7.5,7.5,0,1,1,0,15Z" style="fill:#fff"/><path d="M214.56,262.5h-65a7.5,7.5,0,0,1,0-15h65a7.5,7.5,0,0,1,0,15Z" style="fill:#fff"/><path d="M315.78,262.5h-65a7.5,7.5,0,1,1,0-15h65a7.5,7.5,0,0,1,0,15Z" style="fill:#fff"/><path d="M417,262.5H352a7.5,7.5,0,0,1,0-15h65a7.5,7.5,0,0,1,0,15Z" style="fill:#fff"/></svg>