<svg xmlns="http://www.w3.org/2000/svg" xmlns:xlink="http://www.w3.org/1999/xlink" viewBox="0 0 126.43 79.39"><defs><radialGradient id="a" cx="58.32" cy="-446.38" r="6.18" gradientTransform="translate(6.42 486.08)" gradientUnits="userSpaceOnUse"><stop offset="0.01" stop-color="#ffeee0"/><stop offset="0.11" stop-color="#fee9d7"/><stop offset="0.28" stop-color="#fddbbf"/><stop offset="0.49" stop-color="#fbc597"/><stop offset="0.74" stop-color="#f8a560"/><stop offset="1" stop-color="#f48120"/></radialGradient></defs><title>discover</title><rect x="0.5" y="0.5" width="125.43" height="78.39" rx="5" fill="#f9f9f9" stroke="gray" stroke-miterlimit="10"/><path d="M35,78.89h86.77a4.18,4.18,0,0,0,4.18-4.18V45.36C117.6,50.64,86.21,68.84,35,78.89Z" fill="#f58220"/><path d="M64.75,33.59a6.15,6.15,0,0,0-6.26,6,6.25,6.25,0,1,0,6.26-6Z" fill="url(#a)"/><path d="M29.21,33.81H25.85V45.55H29.2a6.11,6.11,0,0,0,4.18-1.35,5.92,5.92,0,0,0,2.13-4.51C35.51,36.22,32.92,33.81,29.21,33.81Zm2.68,8.82a4.37,4.37,0,0,1-3.14.93h-.61V35.8h.61a4.24,4.24,0,0,1,3.14,1,3.93,3.93,0,0,1,1.26,2.92A4,4,0,0,1,31.89,42.63Z" fill="#001722"/><rect x="36.57" y="33.81" width="2.29" height="11.74" fill="#001722"/><path d="M44.46,38.31c-1.38-.51-1.78-.84-1.78-1.47s.71-1.3,1.7-1.3a2.39,2.39,0,0,1,1.85.94l1.2-1.56A5.12,5.12,0,0,0,44,33.62,3.44,3.44,0,0,0,40.32,37c0,1.62.74,2.44,2.88,3.22a8.06,8.06,0,0,1,1.59.67,1.4,1.4,0,0,1,.69,1.21,1.67,1.67,0,0,1-1.78,1.65,2.7,2.7,0,0,1-2.5-1.56L39.72,43.6a4.57,4.57,0,0,0,4.07,2.23,3.78,3.78,0,0,0,4-3.85C47.83,40.11,47.06,39.27,44.46,38.31Z" fill="#001722"/><path d="M48.55,39.69a6.08,6.08,0,0,0,6.2,6.12,6.31,6.31,0,0,0,2.87-.68v-2.7a3.67,3.67,0,0,1-2.77,1.29,3.84,3.84,0,0,1-3.94-4,3.9,3.9,0,0,1,3.84-4A3.84,3.84,0,0,1,57.62,37V34.27a5.83,5.83,0,0,0-2.82-.72A6.17,6.17,0,0,0,48.55,39.69Z" fill="#001722"/><polygon points="76.17 41.7 73.04 33.81 70.54 33.81 75.52 45.85 76.75 45.85 81.82 33.81 79.34 33.81 76.17 41.7" fill="#001722"/><polygon points="82.86 45.55 89.36 45.55 89.36 43.56 85.15 43.56 85.15 40.39 89.19 40.39 89.19 38.4 85.15 38.4 85.15 35.8 89.36 35.8 89.36 33.81 82.86 33.81 82.86 45.55" fill="#001722"/><path d="M98.42,37.28c0-2.2-1.52-3.47-4.16-3.47H90.87V45.55h2.29V40.83h.3l3.16,4.72h2.82l-3.7-4.95A3.12,3.12,0,0,0,98.42,37.28Zm-4.6,1.93h-.66V35.66h.7c1.43,0,2.2.6,2.2,1.74S95.29,39.21,93.82,39.21Z" fill="#001722"/><path d="M100,34.69c0-.21-.14-.32-.39-.32h-.33v1h.24V35l.29.4h.31L99.81,35A.27.27,0,0,0,100,34.69Zm-.43.14h0v-.27h0c.12,0,.19,0,.19.13S99.72,34.83,99.6,34.83Z" fill="#231f20"/><path d="M99.69,34a.91.91,0,1,0,.89.9A.9.9,0,0,0,99.69,34Zm0,1.64a.74.74,0,0,1,0-1.48.74.74,0,0,1,0,1.48Z" fill="#231f20"/></svg>