<svg viewBox="0 0 711 228" xmlns="http://www.w3.org/2000/svg">
<path d="M711,157.63V215a13,13,0,0,1-13,13H13A13,13,0,0,1,0,215V157.63Z" fill="#fecf22" fill-rule="evenodd"/>
<rect y="78.63" width="711" height="70.75" fill="#006ab4"/>
<path d="M13,0H698a13,13,0,0,1,13,13V70.37H0V13A13,13,0,0,1,13,0Z" fill="#d61627" fill-rule="evenodd"/>
<path d="m108.63 49.39c47.67-14.13 88-22.53 126.5-27.43 34.44-4.39 67.2-5.93 102.25-6.25v-0.12h37.62v0.13c34.76 0.35 67.31 1.93 101.53 6.33 38.27 4.95 78.47 13.3 125.84 27.34 5.21 1.54 10.28 4 14.09 7.79a21.47 21.47 0 0 1 6.54 15.69v82.26a21.44 21.44 0 0 1-6.54 15.69c-3.81 3.82-8.88 6.25-14.09 7.8-47.37 14.04-87.57 22.38-125.84 27.38-34.22 4.39-66.77 6-101.53 6.33v0.12h-29c-37.91-0.14-72.72-1.51-109.08-6.05-38.85-4.85-79.71-13.3-128.29-27.69-5.21-1.55-10.28-4-14.09-7.8a21.44 21.44 0 0 1-6.54-15.78v-82.26a21.47 21.47 0 0 1 6.54-15.69c3.81-3.81 8.88-6.25 14.09-7.79z" fill="#e6e6e6" fill-rule="evenodd"/>
<path d="M438.13,141.81c-3-4.15-.12-11.06,2-14.92,2.22-4.09,5.5-9.29,10.7-8.29,2.38,8.56-5.25,24-12.67,23.21ZM276.56,118.06c3.86,9.65-8.8,27.31-13.07,22.5-3.47-3.91,4.64-24.48,13.07-22.5Zm26.63,22.51-1.51-3.3c-4.19.95-10.8,4.84-15.5,3.73-2.55-5.84,15.85-44.27,19.36-56l-9.23.41c-2.61,4.3-7.42,19.34-9.77,22.46-16.33-1.71-23.13,3-29.78,11.7-10.82,14.15-2.88,15.56-11,20.19-7.17,4.08-6.14,1.77-6.69,1.19-3-2.59,5.38-20.44,6.17-24.33,1-5.07-1.6-9.12-6.32-8.85-4.41.26-7.7,3.39-10.84,5.08-10.9,5.89-.64-16.84-30.33,4.14-2.29,1.62-8,5-9.18,6.08.25-1.86,8.8-20.31,10.54-24.64,3.35-8.33,6.72-17,9.57-25.41-10.78-.73-42.88,4.84-52.64,13.55-18.46,16.46,3.55,38.22,18.09,21.5-3.51-2.53-8.89-.08-9.72-6.56-.7-5.56,1.29-9.26,4.29-11.58,3.67-2.82,19.78-5.72,25.46-6.78-.59,3-3.08,8.66-4.29,12-6.36,17.72-14.15,44.79-36.78,45.49-11.83.36-15.21-4.92-19.42-13-2.59,2.93-3.65,9-2.16,13.4,1.34,4,4.46,6.7,8.16,8.48,17.68,8.54,33.28-5.83,45.83-15.55,3.17-2.46,15-14.4,21-11.43,3.38,6.72-6.42,20.86-6.64,27.85l11.64.25c2.1-5.77,3.81-12.07,5.8-18.13,1.7-5.14,4.07-14.32,10.83-9.66,2.6,6.91-8.41,21.38-2.38,26.23,6.25,5,20.29-5,23.63-7.06,2.61,3.76,2.57,8.45,9.3,9.58,5.36.91,10.81-1.63,13.86-4.14,1.9,2.34,1.43,4.69,5.82,4.27s17.17-8.81,24.86-11.13Zm221.07-9.86c-.52-6.07,6.17-14.45,10.93-14.23,1.58,3.57-1.19,7.5-3,9.59-2,2.41-4.17,5-8,4.64ZM349,116.27l1.33,4.09c3.64-1,7.69-3.41,11.33-2.4,1.15,6.93-9.37,26-10.89,34l11.46-.23c2.27-3.8,4.64-12.69,6.4-17.36,1.81-4.84,3.94-14.3,10.61-12,3.93,7.76-6.77,21.72-7.57,29.31l13.09.12c2.42-7,5.16-15.65,8-22.53,1.41-3.42,2.9-8.77,8-7.35,5.79,1.63-4.2,12.46-4.1,22.05,0,4.29,3,8.06,7.25,7.64,5.69-.56,15.25-8.36,20.15-9.46,2.24,5.05,2.71,8.2,8.7,9.14s9.95-1.94,13.88-4.22a3.32,3.32,0,0,1,.32.41l.88,1.24c1.19,1.74,1.87,3.09,4.8,3.39,9.66,1,23.92-14.44,29.49-21.8,6.23-8.22,3.69-7.59,11.69-8.3-1.75,7.57-10.38,19.68-3.09,27s21.88-2.56,26.3-5.15c4.08,4.51,6.24,8.51,15.95,8.07,7.64-.35,11.88-3.44,18-5.21,7.46,12.25,31.83.19,30.91-7.26-3.15-.61-6.83,3.78-10.06,5.52-4.47,2.4-9,.87-9.11-4.32-.06-2.58,6.19-21.65,7.42-24l7.39-.08,2.45-8.39-5.19-.1c1-8.8,5.64-16.34,7.22-24.13l-10.37.41-8.32,23-7.6.44-1.79,8.64,6-.1c-1.27,8.19-6,19.25-10.18,24.45-4.31,5.39-19.77,8.6-22.57-.82,3.62-4.06,9.94-5,14.87-13.52,12.38-21.41-12.32-24-22.39-9.11-6.29,9.3-4.35,12.19-4,23.21-12.43,6.91-16.79,8.29-15.68-3.89s3-10.49,5.06-12.68c1.57-1.67,2.16-4.7.45-6.35-2-2-5.35-.23-9-1.55-2.34-5.79,1.67-6.75,3.28-9.92-2.14-.5-3.84-.21-6-.54-5.09-.79-.54-.92-3.95-2.88-2.93,1.13-3.13,1.23-4.16,4.52-3,9.47-1.9,11.53-7.08,18.82-2.82,4-12.37,17.29-18.93,14.84-3-4,8.53-27.42,10-33.28-11.77-.88-10,1.36-11.66,3.18-10.88-4.89-16.61-.73-23.29,5.2-9.56,8.49-10,20.71-11.15,22.06-2.9,1.88-8.78,4.48-13.09,2.92-1.24-4.91,6.37-19.25,7.61-25.1,1.31-6.16-2.24-9.44-8.45-7.83-4.66,1.2-6.45,5.52-10.73,6.08-3.61-2.55-3.78-7.87-11.15-6.61-5.21.9-5.54,5-11.43,6.14a3.07,3.07,0,0,1-.27-.55l-.65-1.62c-.29-.81-.95-3.34-2.26-4C367.06,106.77,355.18,114.44,349,116.27Z" fill="#006ab4" fill-rule="evenodd"/>
<path d="m325.75 112.87a14.51 14.51 0 1 1-10.25 4.25 14.47 14.47 0 0 1 10.25-4.25zm0-12.5a27 27 0 1 0 19.09 7.91 26.92 26.92 0 0 0-19.09-7.91zm17 10a24 24 0 1 0 7 17 23.93 23.93 0 0 0-7-17zm-17-3.78a20.76 20.76 0 1 0 14.67 6.08 20.69 20.69 0 0 0-14.67-6.08zm12.55 8.2a17.76 17.76 0 1 0 5.2 12.55 17.7 17.7 0 0 0-5.2-12.55zm-4.42 4.42a11.5 11.5 0 1 0 3.37 8.13 11.46 11.46 0 0 0-3.37-8.1z" fill="#d61627" fill-rule="evenodd"/>
<path d="M112,60.87C206.21,33,271,27.74,349.38,27.59H363c77.75.2,142.34,5.53,236,33.27,6.33,1.88,12,5.4,12,12v82.26c0,6.6-5.67,10.13-12,12-93.66,27.75-158.25,33.07-236,33.28H353c-80,0-145.34-4.95-241-33.29-6.33-1.87-12-5.4-12-12V72.87c0-6.6,5.67-10.12,12-12ZM351.08,45.62c-73.2.27-138.78,3.06-224.58,25.25-6.39,1.66-12,5.4-12,12v62.26c0,6.6,5.61,10.35,12,12,85.13,22,150.36,24.94,222.88,25.25h12.26c72.51-.31,137.73-3.23,222.86-25.25,6.39-1.65,12-5.4,12-12V82.87c0-6.6-5.61-10.34-12-12-85.8-22.19-151.38-25-224.58-25.25Z" fill="#d61627" fill-rule="evenodd"/>
</svg>