<svg xmlns="http://www.w3.org/2000/svg" viewBox="0 0 126.43 79.39"><path d="M85.05,42.36c.15,4.57.3,9.29.07,13.93a6.29,6.29,0,0,1-3,4.65,9,9,0,0,1-4.57,1l-6-.08,0-38.76a6.57,6.57,0,0,1,4.65-5.48A85.34,85.34,0,0,1,85,17.3l.15,2v22l-.07.08Z" fill="#00a551"/><path d="M41.19,40.91V22.63a6.65,6.65,0,0,1,4-4.72c3-.91,6.4-.37,9.44-.45.16,3,0,6.7.08,9.29l.15,23.83c-.38,3.66,1,8.61-3.58,10.66-2.89,1.45-6.77.54-10.05.84l-.07-.53V40.91Z" fill="#0071bb"/><path d="M41.19,41.67a6.59,6.59,0,0,0,5,2.89c2.51.24,5.78.46,7.46-1.9,1.14-1.22.46-2.89.69-4.49l-.08-2.89c-1.45-.31-2.74,0-4.42-.08-.84,3.12,1.37,6.62-2.21,8.22A3.94,3.94,0,0,1,44.69,43c-1.37-.31-.61-2.52-2.44-1.91l-1.06-.15Z" fill="#fff"/><path d="M69.89,20,70,57.05a6.7,6.7,0,0,1-3.81,4.34c-2.89,1-6.47.54-9.67.54l-.15-39.07a6,6,0,0,1,3-4.41,7.74,7.74,0,0,1,4-1.07h6.47Z" fill="#ec1c24"/><path d="M69.29,35.28a7.42,7.42,0,0,1,.07,1.37c-2.28-.61-5.1-1.3-7.16.38a4.11,4.11,0,0,0-1.14,3,4.15,4.15,0,0,0,2.36,3.2c2,.61,4,.08,5.87-.38a2.29,2.29,0,0,1,0,1.22H60.53a4.55,4.55,0,0,1-3.43-2.67,4.69,4.69,0,0,1,.76-4.64,4.44,4.44,0,0,1,3.66-1.6Z" fill="#fff"/><path d="M85.05,42.36a2.55,2.55,0,0,1-1.91,1.9H72.48l-.38-.15c0-3-.07-5.94.08-8.91H79c2.13.23,4.49-.69,5.48,1.29a2,2,0,0,1-.31,2.14c-.3.53-1,.61-1.14,1a3.14,3.14,0,0,1,2.06,1.75Zm-9.14-6.25a7.41,7.41,0,0,0-.08,2.9c1.6-.08,3.66.53,4.72-.69a1.49,1.49,0,0,0-.07-1.6C79.26,35.66,77.43,36.34,75.91,36.11ZM80,40.3a20.32,20.32,0,0,0-4.26-.08,14.05,14.05,0,0,0,.15,3.13c1.52,0,3.2.22,4.57-.46a1.63,1.63,0,0,0,.46-1.52A1.6,1.6,0,0,0,80,40.3Z" fill="#fff"/></svg>