<svg viewBox="0 0 247.75 228.35" xmlns="http://www.w3.org/2000/svg">
<g transform="translate(187.24 -221.79)">
<path d="m-178.99 445.68c-4.7105-2.4537-8.4222-4.6036-8.2481-4.7777 0.60208-0.6021 23.142-5.412 38.882-8.2972 34.061-6.2434 74.556-11.241 114.89-14.178 16.611-1.2096 76.709-1.2499 87.131-0.0584l6.8338 0.78122-7.7026 0.11948c-13.674 0.21212-45.034 2.4064-69.605 4.8703-46.507 4.6637-98.211 13.262-135.62 22.552-7.6387 1.8972-14.815 3.4495-15.947 3.4495-1.132 0-5.9122-2.0076-10.623-4.4612zm65.022-46.812c-0.69845-1.9303 2.2256-2.7941 3.5002-3.3432 5.7263-2.4546 9.756-6.4559 11.104-11.026 0.64519-2.1874 2.6104-14.548 4.367-27.468s3.3351-22.913 3.5076-23.501c0.12723-0.43316 0.47296-1.9756 2.3269-2.1415 4.7308-0.0457 8.2435 0.0154 13.092 0.0154 2.6775-0.25767 2.1517 2.673 1.9415 4.5503-0.21102 2.3711-0.84888 6.9492-1.5923 12.534-0.90679 6.8124-2.2618 16.994-3.0111 22.626-1.6841 12.658-2.6181 16.555-5.5305 23.075-3.4653 7.758-8.7627 12.266-18.366 15.473-1.9401 0.60747-7.5014 2.4994-8.1068 0.81816-1.2551-4.0244-2.1463-7.5221-3.2325-11.613zm110.28-4.2441c-6.3997-2.5826-6.0979-12.561 0.61531-16.654 4.2485-2.5904 10.218-2.1498 13.286 0.91759 7.5576 7.5576-3.5566 19.911-13.901 15.736zm-48.371-5.9604c-18.815-3.2129-18.69-25.647-14.475-38.467 5.2785-14.839 18.141-19.15 28.713-19.526 8.922-0.30539 21.29 1.3538 24.394 3.2726 0.85736 0.52987 0.45388 5.6732-1.9411 24.743-1.6629 13.241-3.4816 24.626-4.0416 25.301-2.9792 3.5897-22.939 6.448-32.649 4.6755zm16.414-17.754c2.0189-7.5141 2.8721-14.298 4.3165-22.226-0.18013-2.7328-4.7921-2.7513-5.9649-2.7578-6.1085 0-9.7166 3.4294-11.629 11.053-2.6232 10.456 0.11601 16.282 7.6553 16.282 2.383-0.22171 4.8701-0.0888 5.6223-2.3515zm-137.51 11.7c5.1433-12.564 25.8-57.552 30.759-66.869 0.93702-2.3228 3.4054-2.7807 5.0945-2.9437 4.8589-0.22241 9.0592-0.16283 13.325-0.13158 4.396 0.0383 4.4607 1.581 5.0273 4.8489 0.6912 3.2558 9.2681 54.467 11.209 66.76 0.24809 2.0412 0.7485 2.6766-1.9089 2.6807-3.6824 0.0107-12.544 0.48937-15.551 0.26243-0.96126-0.12464-1.5877-0.75508-1.737-1.4641-0.27484-1.3183-0.58502-3.5817-0.79589-5.9416l-0.54715-6.1234h-22.075l-2.4133 5.8884c-0.85824 2.0941-1.7966 4.1601-2.4956 5.5311-0.48948 1.2572-1.219 1.8368-2.3111 2.0742-2.7017-0.0229-12.278 0.33238-15.878 0.016-1.7803-0.81948-0.17001-3.4434 0.29817-4.588zm42.929-25.973c-0.31283-3.3083-2.4247-20.372-2.9203-22.893-0.13025-0.27074-0.19228-0.18284-0.32576-0.0231-1.3042 1.958-8.3596 19.277-9.5612 23.298-0.14522 0.55518 0.21559 0.75853 0.74044 0.71294 1.7896-0.12144 9.1051-0.25864 11.33-0.3438 0.63322-0.0487 0.69623-0.27121 0.73673-0.75114zm127.39 8.2959c0.28577-2.2317 0.91136-8.286 1.3902-13.454 0.47883-5.1681 1.2456-13.24 1.704-17.939 0.34786-3.5655 0.65343-7.0265 0.78586-8.8475 0.26749-1.6325 2.2415-1.8246 3.5383-1.8374 4.3232 0.0458 8.3949-0.21053 12.283 0.1485 1.8383 0.18818 2.6067 0.59343 2.6134 1.6865-1.7535 8.9955-8.0537 40.029-8.5388 41.951-0.41799 1.6566-0.58741 2.1452-3.1173 2.2891-3.0982-0.0502-5.6826 0.11234-8.8267 0.0959-1.8031-0.0226-2.2851-0.55246-1.8316-4.0935zm-87.245-46.105c0-5.4826 3.5285-9.661 7.9455-11.42 3.8175-1.3376 8.0961-1.3319 10.374 1.27 4.0424 4.6995 1.3889 11.642-3.3326 15.26-6.0503 4.1616-14.888 1.7013-14.987-5.11zm108.39-11.555c-1.3212-2.9364-5.56-12.2-9.4196-20.586-3.8596-8.3861-6.8134-15.779-6.5641-16.429 0.24934-0.64976 4.551-5.9932 9.5592-11.874l8.1523-9.5732c0.53284-0.64393 1.1449-1.4332 1.8842-1.4436 4.9131 0.0249 10.005 0.31821 14.692 0.27151 3.4919-0.0294 5.25-0.25556 2.6593 2.3735-1.6587 2.0536-4.9271 5.8123-8.6659 9.9369-5.403 5.9605-9.8236 10.997-9.8236 11.192 0 0.19523 4.0515 9.0969 9.0033 19.782 3.8903 8.3942 7.1043 15.904 8.1877 19.039 0.46264 1.0647 0.05583 1.9765-0.9327 2.2253-1.3108 0.30454-3.6688 0.42513-7.7249 0.42513h-6.0758c-1.4841 0.15503-2.5763-0.10526-3.1478-1.3753zm-181.83-6.2506c-5.4677-2.7246-8.0525-6.1728-8.5234-11.37-0.28224-3.1147 4.8136-44.989 7.0702-58.303 0.55151-3.1266 0.79025-3.3054 3.7881-3.3054h5.8979c3.0983 0 5.9184-0.0519 7.6922 0.0491 2.4244 0.0347 1.9809 1.5624 1.7957 3.391-0.41686 4.0833-1.7148 12.928-3.3447 24.317-2.892 20.207-3.628 27.337-2.9355 28.436 0.809 1.2838 2.8652 1.4958 16.488 1.6998l12.185 0.18247c2.9022-0.16162 3.5026 0.5508 3.2159 3.1567-0.71042 4.3136-1.1002 7.7506-1.8068 11.615-0.4859 2.412-2.0424 1.7805-4.4674 1.9286l-14.244 0.1982c-18.267 0.22868-18.364 0.2202-22.81-1.9955zm140.51 1.5523c-0.1845-0.35237 0.32517-5.2535 1.1326-10.891 0.80744-5.6379 2.4935-17.747 3.7469-26.908 3.5582-26.009 4.7275-33.846 5.2237-36.843 0.52276-3.4985 0.52591-3.3054 3.9539-3.3054h5.4363c2.1213 0 3.7772-0.0276 5.0557 0.0139 4.8819 0.15848 4.2604-0.26266 3.0284 7.298-0.46561 2.8574-2.016 15.432-3.4452 26.003-3.5992 26.62-5.9599 42.943-6.3932 44.206-0.40609 1.1835-17.132 1.5863-17.739 0.42711zm-92.876-2.0255c2.2678-19.024 4.4332-33.409 6.9517-51.112 0.18849-2.1189 2.2712-2.3648 4.705-2.367 2.7685-3e-3 5.5824-0.0399 8.2187 0.048 5.106 0.0173 6.4484 0.70075 5.9194 4.1174-2.2618 16.619-5.0582 31.451-7.9936 48.349-0.54884 2.8609-1.2189 2.7762-3.9533 2.7762-3.1829 0.0103-8.8318 0.11747-11.717 0.0375-1.6885-0.29832-2.0716-0.48985-2.1308-1.8495zm36.041-42.588c1.4008-7.3565 2.3711-8.5046 4.4061-9.838 2.5106-1.645 21.06-3.3592 27.464-2.538 0.8937 0.12763 1.745 0.28889 2.5559 0.48151 18.761 4.4568 15.845 25.701 14.625 35.474-1.2855 9.3366-2.5475 17.841-2.8045 18.898-0.44728 1.8399-0.84639 1.922-9.344 1.922-2.8543 0-4.3454-0.0985-5.9699-0.25082-2.6243-0.1713-2.8674-0.76078-2.6063-2.6702 0.95658-7.8001 2.2468-14.527 3.2082-21.813 1.294-9.9441 0.94932-19.761-11.389-17.651-2.1149 0.5366-2.6933 0.70586-2.985 2.815-1.5392 9.8219-2.8923 19.969-4.3003 29.576-0.31005 2.2927-0.74153 4.6896-1.1844 6.8133-0.11488 0.54075-0.17714 1.0242-0.2756 1.3828-0.12561 0.42385-0.41786 0.86473-0.69731 0.42801-1.9823-3.6099-11.311-3.0082-15.203-0.35859-1.953 1.3576-2.3555 2.0873-1.5574-2.0508 0.14-0.87772 0.27643-1.7542 0.40986-2.6298 1.9316-12.675 3.2338-25.143 5.6469-37.99zm-26.634-21.772c-2.0844-7.1077 4.1205-14.132 11.069-14.377 9.4156-0.62922 12.015 12.321 2.3825 18.194-5.5795 2.5529-11.444 2.0115-13.452-3.8173z" fill="#ea232a" stroke-width=".85423"/>
</g>
</svg>
