<svg xmlns="http://www.w3.org/2000/svg" viewBox="0 0 126.43 79.39"><title>maestro</title><rect x="0.5" y="0.5" width="125.43" height="78.39" rx="5" fill="#f9f9f9" stroke="gray" stroke-miterlimit="10"/><polygon points="78.14 62.21 79.31 62.18 80.45 62.09 81.58 61.95 82.69 61.75 83.78 61.5 84.85 61.2 85.9 60.84 86.92 60.43 87.92 59.98 88.89 59.49 89.84 58.95 90.75 58.35 91.64 57.73 92.49 57.06 93.31 56.35 94.09 55.6 94.83 54.82 95.54 54 96.22 53.15 96.85 52.27 97.43 51.35 97.97 50.4 98.47 49.43 98.92 48.43 99.33 47.41 99.68 46.36 99.98 45.29 100.24 44.2 100.44 43.09 100.58 41.96 100.66 40.81 100.69 39.65 100.66 38.5 100.58 37.36 100.44 36.24 100.24 35.13 99.98 34.05 99.68 32.99 99.33 31.94 98.92 30.92 98.47 29.93 97.97 28.96 97.43 28.02 96.85 27.11 96.22 26.23 95.54 25.37 94.83 24.56 94.09 23.78 93.31 23.04 92.49 22.33 91.64 21.66 90.75 21.03 89.84 20.45 88.89 19.91 87.92 19.4 86.92 18.95 85.9 18.55 84.85 18.2 83.78 17.89 82.69 17.64 81.58 17.44 80.45 17.3 79.31 17.21 78.14 17.18 76.98 17.21 75.84 17.3 74.71 17.44 73.6 17.64 72.51 17.89 71.44 18.2 70.39 18.55 69.37 18.95 68.37 19.4 67.4 19.91 66.46 20.45 65.55 21.03 64.66 21.66 63.81 22.33 63 23.04 62.22 23.78 61.48 24.56 60.77 25.37 60.1 26.23 59.47 27.11 58.89 28.02 58.35 28.96 57.85 29.93 57.41 30.92 57 31.94 56.64 32.99 56.35 34.05 56.1 35.13 55.9 36.24 55.76 37.36 55.67 38.5 55.64 39.65 55.67 40.81 55.76 41.96 55.9 43.09 56.1 44.2 56.35 45.29 56.64 46.36 57 47.41 57.41 48.43 57.85 49.43 58.35 50.4 58.89 51.35 59.47 52.27 60.1 53.15 60.77 54 61.48 54.82 62.22 55.6 63 56.35 63.81 57.06 64.66 57.73 65.55 58.35 66.46 58.95 67.4 59.49 68.37 59.98 69.37 60.43 70.39 60.84 71.44 61.2 72.51 61.5 73.6 61.75 74.71 61.95 75.84 62.09 76.98 62.18 78.14 62.21" fill="#ec1c2e"/><polygon points="48.28 62.21 49.45 62.18 50.59 62.09 51.72 61.95 52.83 61.75 53.92 61.5 54.99 61.2 56.04 60.84 57.06 60.43 58.06 59.98 59.03 59.49 59.97 58.95 60.88 58.35 61.76 57.73 62.62 57.06 63.43 56.35 64.21 55.6 64.95 54.82 65.66 54 66.33 53.15 66.96 52.27 67.54 51.35 68.08 50.4 68.58 49.43 69.03 48.43 69.43 47.41 69.78 46.36 70.08 45.29 70.33 44.2 70.53 43.09 70.67 41.96 70.76 40.81 70.79 39.65 70.76 38.5 70.67 37.36 70.53 36.24 70.33 35.13 70.08 34.05 69.78 32.99 69.43 31.94 69.03 30.92 68.58 29.93 68.08 28.96 67.54 28.02 66.96 27.11 66.33 26.23 65.66 25.37 64.95 24.56 64.21 23.78 63.43 23.04 62.62 22.33 61.76 21.66 60.88 21.03 59.97 20.45 59.03 19.91 58.06 19.4 57.06 18.95 56.04 18.55 54.99 18.2 53.92 17.89 52.83 17.64 51.72 17.44 50.59 17.3 49.45 17.21 48.28 17.18 47.12 17.21 45.98 17.3 44.85 17.44 43.74 17.64 42.65 17.89 41.58 18.2 40.53 18.55 39.5 18.95 38.51 19.4 37.54 19.91 36.59 20.45 35.68 21.03 34.79 21.66 33.94 22.33 33.12 23.04 32.34 23.78 31.6 24.56 30.89 25.37 30.21 26.23 29.58 27.11 29 28.02 28.46 28.96 27.95 29.93 27.5 30.92 27.11 31.94 26.75 32.99 26.45 34.05 26.19 35.13 26 36.24 25.85 37.36 25.77 38.5 25.74 39.65 25.77 40.81 25.85 41.96 26 43.09 26.19 44.2 26.45 45.29 26.75 46.36 27.11 47.41 27.5 48.43 27.95 49.43 28.46 50.4 29 51.35 29.58 52.27 30.21 53.15 30.89 54 31.6 54.82 32.34 55.6 33.12 56.35 33.94 57.06 34.79 57.73 35.68 58.35 36.59 58.95 37.54 59.49 38.51 59.98 39.5 60.43 40.53 60.84 41.58 61.2 42.65 61.5 43.74 61.75 44.85 61.95 45.98 62.09 47.12 62.18 48.28 62.21" fill="#0084c4"/><polygon points="60.44 25.76 71.86 25.76 71.86 24.5 61.54 24.5 60.44 25.76" fill="#ec1c2e"/><polygon points="58.65 28.42 71.86 28.42 71.86 27.17 59.45 27.17 58.65 28.42" fill="#ec1c2e"/><polygon points="57.31 31.13 71.86 31.13 71.86 29.87 57.92 29.87 57.31 31.13" fill="#ec1c2e"/><polygon points="56.44 33.79 71.86 33.79 71.86 32.54 56.82 32.54 56.44 33.79" fill="#ec1c2e"/><polygon points="55.87 36.46 71.86 36.46 71.86 35.21 56.1 35.21 55.87 36.46" fill="#ec1c2e"/><polygon points="55.75 41.63 71.86 41.63 71.86 40.38 55.64 40.38 55.75 41.63" fill="#ec1c2e"/><polygon points="56.13 44.45 71.86 44.45 71.86 43.2 55.91 43.2 56.13 44.45" fill="#ec1c2e"/><polygon points="56.9 46.74 71.86 46.74 71.86 45.48 56.51 45.48 56.9 46.74" fill="#ec1c2e"/><polygon points="58.04 49.52 71.86 49.52 71.86 48.26 57.43 48.26 58.04 49.52" fill="#ec1c2e"/><polygon points="59.64 52.34 71.86 52.34 71.86 51.08 58.8 51.08 59.64 52.34" fill="#ec1c2e"/><polygon points="61.65 55.05 71.75 55.05 71.75 53.79 60.55 53.79 61.65 55.05" fill="#ec1c2e"/><polygon points="96.99 53.48 97.05 53.28 97.16 53.09 97.31 52.93 97.47 52.8 97.65 52.7 97.85 52.63 98.07 52.61 98.29 52.63 98.5 52.7 98.68 52.8 98.84 52.93 98.98 53.09 99.08 53.28 99.15 53.48 98.92 53.48 98.87 53.34 98.79 53.18 98.69 53.05 98.56 52.95 98.41 52.87 98.24 52.81 98.07 52.8 97.89 52.81 97.72 52.87 97.57 52.95 97.44 53.05 97.33 53.18 97.25 53.34 97.21 53.48 96.99 53.48" fill="#ec1c2e"/><polygon points="97.68 53.48 97.68 53.21 98.1 53.21 98.2 53.22 98.28 53.23 98.36 53.25 98.41 53.28 98.46 53.32 98.5 53.36 98.52 53.41 98.53 53.48 98.33 53.48 98.33 53.48 98.33 53.44 98.31 53.41 98.29 53.38 98.26 53.36 98.22 53.35 98.19 53.34 98.15 53.33 98.1 53.33 97.87 53.33 97.87 53.48 97.68 53.48" fill="#ec1c2e"/><polygon points="96.97 53.67 96.99 53.49 96.99 53.48 97.21 53.48 97.2 53.52 97.19 53.67 96.97 53.67" fill="#ec1c2e"/><polygon points="97.68 53.67 97.68 53.48 97.87 53.48 97.87 53.63 98.07 53.63 98.13 53.63 98.19 53.63 98.24 53.63 98.27 53.61 98.3 53.6 98.32 53.57 98.33 53.53 98.33 53.48 98.53 53.48 98.53 53.48 98.52 53.55 98.5 53.61 98.48 53.65 98.46 53.67 97.68 53.67" fill="#ec1c2e"/><polygon points="98.94 53.67 98.92 53.52 98.92 53.48 99.15 53.48 99.15 53.49 99.17 53.67 98.94 53.67" fill="#ec1c2e"/><polygon points="96.97 53.67 96.97 53.71 96.99 53.93 97.05 54.14 97.16 54.31 97.31 54.48 97.47 54.6 97.65 54.7 97.85 54.76 98.07 54.78 98.29 54.76 98.5 54.7 98.68 54.6 98.84 54.48 98.98 54.31 99.08 54.14 99.15 53.93 99.17 53.71 99.17 53.67 98.94 53.67 98.94 53.71 98.92 53.9 98.87 54.08 98.79 54.23 98.69 54.37 98.56 54.48 98.41 54.56 98.24 54.61 98.07 54.63 97.89 54.61 97.72 54.56 97.57 54.48 97.44 54.37 97.33 54.23 97.25 54.08 97.2 53.9 97.19 53.71 97.19 53.67 96.97 53.67" fill="#ec1c2e"/><polygon points="97.68 53.67 97.68 54.13 97.87 54.13 97.87 53.75 98.07 53.75 98.3 54.13 98.49 54.13 98.22 53.75 98.28 53.75 98.35 53.74 98.4 53.72 98.44 53.69 98.46 53.67 97.68 53.67" fill="#ec1c2e"/><polygon points="73.27 37.76 73.12 37.75 72.97 37.74 72.84 37.71 72.71 37.7 72.57 37.68 72.44 37.66 72.3 37.63 72.15 37.61 72 37.59 71.83 37.58 71.65 37.57 71.45 37.56 71.23 37.56 70.98 37.57 70.71 37.58 70.41 37.6 70.2 37.63 70 37.68 69.81 37.74 69.65 37.8 69.5 37.88 69.37 37.97 69.26 38.08 69.17 38.18 69.1 38.3 69.06 38.42 69.04 38.55 69.04 38.68 69.07 38.82 69.12 38.96 69.2 39.1 69.3 39.25 69.52 39.44 69.77 39.59 70.06 39.73 70.38 39.84 70.72 39.95 71.06 40.06 71.42 40.19 71.76 40.33 72.08 40.51 72.38 40.73 72.65 41 72.87 41.33 73.04 41.72 73.15 42.2 73.19 42.76 73.15 43.43 73.07 43.92 72.94 44.37 72.77 44.77 72.55 45.12 72.3 45.43 72.03 45.7 71.72 45.93 71.4 46.13 71.06 46.29 70.7 46.42 70.34 46.53 69.98 46.61 69.61 46.67 69.26 46.71 68.92 46.73 68.59 46.74 68.13 46.74 67.71 46.73 67.33 46.73 66.99 46.72 66.67 46.7 66.39 46.69 66.12 46.67 65.89 46.64 65.66 46.61 65.46 46.57 65.26 46.53 65.07 46.48 64.89 46.43 64.72 46.38 64.54 46.31 64.35 46.24 64.81 43.92 64.92 43.94 65.04 43.98 65.2 44.02 65.37 44.06 65.57 44.1 65.79 44.15 66.03 44.19 66.28 44.24 66.54 44.28 66.83 44.31 67.11 44.34 67.42 44.37 67.72 44.39 68.03 44.39 68.34 44.39 68.66 44.38 68.95 44.33 69.2 44.25 69.38 44.13 69.53 44 69.64 43.84 69.72 43.68 69.79 43.52 69.83 43.35 69.86 43.18 69.85 43.03 69.81 42.89 69.75 42.77 69.67 42.66 69.57 42.55 69.44 42.46 69.3 42.37 69.15 42.29 68.98 42.2 68.79 42.12 68.6 42.05 68.41 41.98 68.2 41.89 67.99 41.81 67.78 41.72 67.57 41.63 67.37 41.54 67.16 41.43 66.96 41.31 66.77 41.18 66.59 41.04 66.42 40.88 66.26 40.71 66.12 40.52 66 40.31 65.89 40.08 65.81 39.84 65.75 39.56 65.71 39.27 65.7 38.94 65.72 38.59 65.75 38.38 65.77 38.17 65.81 37.97 65.85 37.78 65.89 37.59 65.94 37.41 66.01 37.24 66.08 37.07 66.16 36.91 66.24 36.76 66.34 36.62 66.44 36.48 66.55 36.35 66.67 36.22 66.8 36.1 66.94 35.99 67.08 35.89 67.24 35.79 67.41 35.7 67.59 35.61 67.77 35.54 67.97 35.47 68.18 35.41 68.4 35.35 68.64 35.3 68.88 35.25 69.13 35.21 69.4 35.18 69.68 35.16 69.98 35.15 70.28 35.13 70.6 35.13 70.99 35.13 71.34 35.14 71.66 35.15 71.96 35.16 72.22 35.18 72.46 35.19 72.67 35.21 72.85 35.23 73.03 35.25 73.17 35.27 73.31 35.29 73.43 35.31 73.54 35.33 73.63 35.34 73.72 35.35 73.8 35.36 73.27 37.76" fill="#fff"/><polyline points="73.27 37.76 73.27 37.76 73.12 37.75 72.97 37.74 72.84 37.71 72.71 37.7 72.57 37.68 72.44 37.66 72.3 37.63 72.15 37.61 72 37.59 71.83 37.58 71.65 37.57 71.45 37.56 71.23 37.56 70.98 37.57 70.71 37.58 70.41 37.6 70.41 37.6 70.2 37.63 70 37.68 69.81 37.74 69.65 37.8 69.5 37.88 69.37 37.97 69.26 38.08 69.17 38.18 69.1 38.3 69.06 38.42 69.04 38.55 69.04 38.68 69.07 38.82 69.12 38.96 69.2 39.1 69.3 39.25 69.3 39.25 69.52 39.44 69.77 39.59 70.06 39.73 70.38 39.84 70.72 39.95 71.06 40.06 71.42 40.19 71.76 40.33 72.08 40.51 72.38 40.73 72.65 41 72.87 41.33 73.04 41.72 73.15 42.2 73.19 42.76 73.15 43.43 73.15 43.43 73.07 43.92 72.94 44.37 72.77 44.77 72.55 45.12 72.3 45.43 72.03 45.7 71.72 45.93 71.4 46.13 71.06 46.29 70.7 46.42 70.34 46.53 69.98 46.61 69.61 46.67 69.26 46.71 68.92 46.73 68.59 46.74 68.59 46.74 68.13 46.74 67.71 46.73 67.33 46.73 66.99 46.72 66.67 46.7 66.39 46.69 66.12 46.67 65.89 46.64 65.66 46.61 65.46 46.57 65.26 46.53 65.07 46.48 64.89 46.43 64.72 46.38 64.54 46.31 64.35 46.24 64.81 43.92 64.81 43.92 64.92 43.94 65.04 43.98 65.2 44.02 65.37 44.06 65.57 44.1 65.79 44.15 66.03 44.19 66.28 44.24 66.54 44.28 66.83 44.31 67.11 44.34 67.42 44.37 67.72 44.39 68.03 44.39 68.34 44.39 68.66 44.38 68.66 44.38 68.95 44.33 69.2 44.25 69.38 44.13 69.53 44 69.64 43.84 69.72 43.68 69.79 43.52 69.83 43.35 69.83 43.35 69.86 43.18 69.85 43.03 69.81 42.89 69.75 42.77 69.67 42.66 69.57 42.55 69.44 42.46 69.3 42.37 69.15 42.29 68.98 42.2 68.79 42.12 68.6 42.05 68.41 41.98 68.2 41.89 67.99 41.81 67.78 41.72 67.57 41.63 67.37 41.54 67.16 41.43 66.96 41.31 66.77 41.18 66.59 41.04 66.42 40.88 66.26 40.71 66.12 40.52 66 40.31 65.89 40.08 65.81 39.84 65.75 39.56 65.71 39.27 65.7 38.94 65.72 38.59 65.72 38.59 65.75 38.38 65.77 38.17 65.81 37.97 65.85 37.78 65.89 37.59 65.94 37.41 66.01 37.24 66.08 37.07 66.16 36.91 66.24 36.76 66.34 36.62 66.44 36.48 66.55 36.35 66.67 36.22 66.8 36.1 66.94 35.99 67.08 35.89 67.24 35.79 67.41 35.7 67.59 35.61 67.77 35.54 67.97 35.47 68.18 35.41 68.4 35.35 68.64 35.3 68.88 35.25 69.13 35.21 69.4 35.18 69.68 35.16 69.98 35.15 70.28 35.13 70.6 35.13 70.6 35.13 70.99 35.13 71.34 35.14 71.66 35.15 71.96 35.16 72.22 35.18 72.46 35.19 72.67 35.21 72.85 35.23 73.03 35.25 73.17 35.27 73.31 35.29 73.43 35.31 73.54 35.33 73.63 35.34 73.72 35.35 73.8 35.36 73.27 37.76" fill="none" stroke="#fff" stroke-width="0.21"/><polygon points="75.7 32.81 78.68 32.81 78.22 35.4 80.05 35.4 79.63 37.76 77.76 37.72 76.78 43.62 76.76 43.74 76.76 43.85 76.78 43.95 76.81 44.04 76.85 44.11 76.9 44.19 76.97 44.25 77.04 44.29 77.13 44.34 77.22 44.37 77.32 44.4 77.43 44.42 77.55 44.44 77.66 44.45 77.79 44.45 77.92 44.45 78.15 44.45 78.36 44.44 78.55 44.41 78.71 44.37 78.84 44.34 78.94 44.3 79 44.27 79.02 44.26 78.71 46.28 78.64 46.33 78.56 46.36 78.48 46.4 78.39 46.44 78.31 46.47 78.22 46.5 78.14 46.52 78.03 46.55 77.93 46.58 77.82 46.61 77.69 46.63 77.56 46.65 77.42 46.67 77.27 46.7 77.1 46.72 76.92 46.74 76.12 46.74 75.7 46.71 75.33 46.67 74.99 46.61 74.7 46.52 74.46 46.44 74.25 46.33 74.08 46.2 73.94 46.06 73.83 45.9 73.75 45.73 73.7 45.55 73.67 45.34 73.66 45.13 73.67 44.89 73.69 44.65 73.73 44.38 75.7 32.81" fill="#fff"/><polyline points="75.7 32.81 78.68 32.81 78.22 35.4 80.05 35.4 79.63 37.76 77.76 37.72 76.78 43.62 76.78 43.62 76.76 43.74 76.76 43.85 76.78 43.95 76.81 44.04 76.85 44.11 76.9 44.19 76.97 44.25 77.04 44.29 77.13 44.34 77.22 44.37 77.32 44.4 77.43 44.42 77.55 44.44 77.66 44.45 77.79 44.45 77.92 44.45 77.92 44.45 78.15 44.45 78.36 44.44 78.55 44.41 78.71 44.37 78.84 44.34 78.94 44.3 79 44.27 79.02 44.26 78.71 46.28 78.71 46.28 78.64 46.33 78.56 46.36 78.48 46.4 78.39 46.44 78.31 46.47 78.22 46.5 78.14 46.52 78.03 46.55 77.93 46.58 77.82 46.61 77.69 46.63 77.56 46.65 77.42 46.67 77.27 46.7 77.1 46.72 76.92 46.74 76.12 46.74 76.12 46.74 75.7 46.71 75.33 46.67 74.99 46.61 74.7 46.52 74.46 46.44 74.25 46.33 74.08 46.2 73.94 46.06 73.83 45.9 73.75 45.73 73.7 45.55 73.67 45.34 73.66 45.13 73.67 44.89 73.69 44.65 73.73 44.38 75.7 32.81" fill="none" stroke="#fff" stroke-width="0.21"/><polygon points="57.62 41.79 57.58 41.98 57.58 42.16 57.59 42.36 57.64 42.55 57.7 42.75 57.78 42.95 57.89 43.14 58.01 43.33 58.15 43.51 58.32 43.68 58.49 43.83 58.67 43.97 58.87 44.08 59.08 44.18 59.3 44.25 59.52 44.31 59.79 44.34 60.06 44.38 60.33 44.41 60.6 44.42 60.88 44.43 61.16 44.43 61.45 44.42 61.73 44.39 62.02 44.35 62.31 44.3 62.61 44.22 62.9 44.13 63.2 44.02 63.51 43.88 63.81 43.72 64.13 43.54 63.67 46.17 63.5 46.26 63.33 46.34 63.17 46.41 63.01 46.47 62.84 46.52 62.68 46.57 62.51 46.61 62.33 46.64 62.14 46.67 61.93 46.69 61.7 46.71 61.45 46.72 61.19 46.73 60.89 46.73 60.57 46.74 60.21 46.74 59.95 46.74 59.69 46.73 59.43 46.71 59.16 46.68 58.89 46.64 58.62 46.6 58.35 46.54 58.09 46.48 57.83 46.4 57.57 46.32 57.32 46.22 57.07 46.11 56.82 45.98 56.59 45.85 56.36 45.7 56.14 45.54 55.94 45.36 55.73 45.17 55.54 44.96 55.37 44.74 55.21 44.5 55.06 44.25 54.93 43.97 54.81 43.68 54.71 43.37 54.63 43.05 54.56 42.71 54.52 42.34 54.49 41.95 54.49 41.55 54.5 41.13 54.54 40.68 54.56 40.53 54.58 40.35 54.61 40.17 54.65 39.98 54.68 39.78 54.74 39.57 54.8 39.36 54.85 39.13 54.93 38.91 55.01 38.68 55.11 38.45 55.21 38.23 55.33 37.99 55.45 37.77 55.59 37.54 55.74 37.31 55.91 37.1 56.09 36.89 56.28 36.68 56.5 36.49 56.72 36.29 56.96 36.12 57.22 35.95 57.5 35.8 57.8 35.66 58.12 35.54 58.45 35.43 58.8 35.34 59.18 35.27 59.58 35.21 60 35.18 60.44 35.17 60.65 35.17 60.85 35.18 61.07 35.2 61.28 35.22 61.5 35.25 61.72 35.3 61.94 35.35 62.15 35.41 62.36 35.47 62.58 35.55 62.79 35.64 62.98 35.75 63.18 35.87 63.37 35.99 63.55 36.14 63.73 36.29 63.89 36.46 64.04 36.65 64.18 36.86 64.31 37.07 64.43 37.31 64.53 37.56 64.62 37.83 64.69 38.12 64.75 38.43 64.78 38.76 64.8 39.1 64.8 39.48 64.78 39.87 64.74 40.28 64.67 40.72 64.58 41.18 64.47 41.83 56.78 41.83 57.24 39.77 61.85 39.77 61.87 39.49 61.87 39.23 61.85 38.99 61.81 38.76 61.75 38.56 61.68 38.38 61.58 38.22 61.47 38.07 61.34 37.94 61.2 37.83 61.05 37.74 60.9 37.66 60.73 37.6 60.55 37.56 60.37 37.54 60.17 37.53 59.97 37.53 59.77 37.56 59.58 37.59 59.41 37.66 59.23 37.74 59.07 37.83 58.92 37.94 58.78 38.07 58.64 38.22 58.52 38.37 58.41 38.54 58.31 38.73 58.22 38.92 58.15 39.13 58.09 39.35 58.04 39.58 57.62 41.79" fill="#fff"/><polyline points="57.62 41.79 57.62 41.79 57.58 41.98 57.58 42.16 57.59 42.36 57.64 42.55 57.7 42.75 57.78 42.95 57.89 43.14 58.01 43.33 58.15 43.51 58.32 43.68 58.49 43.83 58.67 43.97 58.87 44.08 59.08 44.18 59.3 44.25 59.52 44.31 59.52 44.31 59.79 44.34 60.06 44.38 60.33 44.41 60.6 44.42 60.88 44.43 61.16 44.43 61.45 44.42 61.73 44.39 62.02 44.35 62.31 44.3 62.61 44.22 62.9 44.13 63.2 44.02 63.51 43.88 63.81 43.72 64.13 43.54 63.67 46.17 63.67 46.17 63.5 46.26 63.33 46.34 63.17 46.41 63.01 46.47 62.84 46.52 62.68 46.57 62.51 46.61 62.33 46.64 62.14 46.67 61.93 46.69 61.7 46.71 61.45 46.72 61.19 46.73 60.89 46.73 60.57 46.74 60.21 46.74 60.21 46.74 59.95 46.74 59.69 46.73 59.43 46.71 59.16 46.68 58.89 46.64 58.62 46.6 58.35 46.54 58.09 46.48 57.83 46.4 57.57 46.32 57.32 46.22 57.07 46.11 56.82 45.98 56.59 45.85 56.36 45.7 56.14 45.54 55.94 45.36 55.73 45.17 55.54 44.96 55.37 44.74 55.21 44.5 55.06 44.25 54.93 43.97 54.81 43.68 54.71 43.37 54.63 43.05 54.56 42.71 54.52 42.34 54.49 41.95 54.49 41.55 54.5 41.13 54.54 40.68 54.54 40.68 54.56 40.53 54.58 40.35 54.61 40.17 54.65 39.98 54.68 39.78 54.74 39.57 54.8 39.36 54.85 39.13 54.93 38.91 55.01 38.68 55.11 38.45 55.21 38.23 55.33 37.99 55.45 37.77 55.59 37.54 55.74 37.31 55.91 37.1 56.09 36.89 56.28 36.68 56.5 36.49 56.72 36.29 56.96 36.12 57.22 35.95 57.5 35.8 57.8 35.66 58.12 35.54 58.45 35.43 58.8 35.34 59.18 35.27 59.58 35.21 60 35.18 60.44 35.17 60.44 35.17 60.65 35.17 60.85 35.18 61.07 35.2 61.28 35.22 61.5 35.25 61.72 35.3 61.94 35.35 62.15 35.41 62.36 35.47 62.58 35.55 62.79 35.64 62.98 35.75 63.18 35.87 63.37 35.99 63.55 36.14 63.73 36.29 63.89 36.46 64.04 36.65 64.18 36.86 64.31 37.07 64.43 37.31 64.53 37.56 64.62 37.83 64.69 38.12 64.75 38.43 64.78 38.76 64.8 39.1 64.8 39.48 64.78 39.87 64.74 40.28 64.67 40.72 64.58 41.18 64.47 41.83 56.78 41.83 57.24 39.77 61.85 39.77 61.85 39.77 61.87 39.49 61.87 39.23 61.85 38.99 61.81 38.76 61.75 38.56 61.68 38.38 61.58 38.22 61.47 38.07 61.34 37.94 61.2 37.83 61.05 37.74 60.9 37.66 60.73 37.6 60.55 37.56 60.37 37.54 60.17 37.53 60.17 37.53 59.97 37.53 59.77 37.56 59.58 37.59 59.41 37.66 59.23 37.74 59.07 37.83 58.92 37.94 58.78 38.07 58.64 38.22 58.52 38.37 58.41 38.54 58.31 38.73 58.22 38.92 58.15 39.13 58.09 39.35 58.04 39.58 57.62 41.79" fill="none" stroke="#fff" stroke-width="0.21"/><polygon points="53.51 44.38 53.09 46.74 50.42 46.74 50.45 46.52 50.48 46.3 50.51 46.1 50.53 45.91 50.56 45.76 50.59 45.62 50.62 45.53 50.65 45.48 50.51 45.64 50.33 45.81 50.13 45.96 49.9 46.11 49.66 46.25 49.39 46.38 49.11 46.5 48.82 46.61 48.52 46.71 48.2 46.79 47.89 46.85 47.58 46.9 47.27 46.92 46.97 46.92 46.67 46.9 46.38 46.86 46.01 46.77 45.67 46.65 45.37 46.51 45.1 46.35 44.87 46.19 44.67 45.99 44.49 45.79 44.34 45.57 44.22 45.35 44.11 45.12 44.03 44.88 43.97 44.64 43.92 44.4 43.89 44.16 43.88 43.92 43.87 43.69 43.9 43.28 43.97 42.89 44.06 42.51 44.2 42.15 44.37 41.82 44.56 41.51 44.79 41.22 45.04 40.95 45.31 40.7 45.6 40.49 45.91 40.29 46.24 40.12 46.58 39.97 46.92 39.85 47.28 39.76 47.64 39.7 47.66 39.7 47.71 39.69 47.79 39.68 47.9 39.67 48.03 39.65 48.17 39.64 48.34 39.62 48.52 39.6 48.69 39.59 48.87 39.56 49.05 39.55 49.23 39.53 49.39 39.52 49.55 39.51 49.69 39.51 49.81 39.51 49.94 39.51 50.06 39.51 50.19 39.51 50.32 39.51 50.45 39.51 50.56 39.52 50.68 39.52 50.8 39.52 50.9 39.53 51 39.53 51.08 39.53 51.16 39.53 51.22 39.54 51.26 39.54 51.29 39.54 51.3 39.54 51.32 39.47 51.37 39.29 51.41 39.08 51.41 38.9 51.39 38.76 51.37 38.64 51.33 38.52 51.28 38.41 51.22 38.31 51.15 38.21 51.08 38.12 50.99 38.03 50.89 37.96 50.79 37.9 50.68 37.84 50.57 37.79 50.45 37.75 50.33 37.72 50.2 37.7 50.08 37.69 49.77 37.68 49.45 37.69 49.12 37.69 48.78 37.71 48.44 37.74 48.1 37.77 47.76 37.8 47.43 37.84 47.11 37.89 46.81 37.94 46.53 37.99 46.27 38.05 46.04 38.11 45.85 38.16 45.7 38.23 45.59 38.29 46.35 35.78 46.57 35.67 46.81 35.58 47.04 35.49 47.29 35.43 47.55 35.38 47.82 35.33 48.1 35.3 48.39 35.27 48.69 35.25 48.99 35.24 49.3 35.23 49.62 35.23 49.96 35.23 50.3 35.23 50.66 35.24 51.03 35.24 51.33 35.27 51.65 35.32 51.98 35.4 52.32 35.49 52.65 35.62 52.98 35.78 53.29 35.95 53.59 36.16 53.86 36.4 54.11 36.66 54.31 36.95 54.48 37.26 54.6 37.61 54.66 37.99 54.67 38.39 54.61 38.82 53.51 44.38" fill="#fff"/><polyline points="53.51 44.38 53.09 46.74 50.42 46.74 50.42 46.74 50.45 46.52 50.48 46.3 50.51 46.1 50.53 45.91 50.56 45.76 50.59 45.62 50.62 45.53 50.65 45.48 50.65 45.48 50.51 45.64 50.33 45.81 50.13 45.96 49.9 46.11 49.66 46.25 49.39 46.38 49.11 46.5 48.82 46.61 48.52 46.71 48.2 46.79 47.89 46.85 47.58 46.9 47.27 46.92 46.97 46.92 46.67 46.9 46.38 46.86 46.38 46.86 46.01 46.77 45.67 46.65 45.37 46.51 45.1 46.35 44.87 46.19 44.67 45.99 44.49 45.79 44.34 45.57 44.22 45.35 44.11 45.12 44.03 44.88 43.97 44.64 43.92 44.4 43.89 44.16 43.88 43.92 43.87 43.69 43.87 43.69 43.9 43.28 43.97 42.89 44.06 42.51 44.2 42.15 44.37 41.82 44.56 41.51 44.79 41.22 45.04 40.95 45.31 40.7 45.6 40.49 45.91 40.29 46.24 40.12 46.58 39.97 46.92 39.85 47.28 39.76 47.64 39.7 47.64 39.7 47.66 39.7 47.71 39.69 47.79 39.68 47.9 39.67 48.03 39.65 48.17 39.64 48.34 39.62 48.52 39.6 48.69 39.59 48.87 39.56 49.05 39.55 49.23 39.53 49.39 39.52 49.55 39.51 49.69 39.51 49.81 39.51 49.81 39.51 49.94 39.51 50.06 39.51 50.19 39.51 50.32 39.51 50.45 39.51 50.56 39.52 50.68 39.52 50.8 39.52 50.9 39.53 51 39.53 51.08 39.53 51.16 39.53 51.22 39.54 51.26 39.54 51.29 39.54 51.3 39.54 51.3 39.54 51.32 39.47 51.37 39.29 51.41 39.08 51.41 38.9 51.41 38.9 51.39 38.76 51.37 38.64 51.33 38.52 51.28 38.41 51.22 38.31 51.15 38.21 51.08 38.12 50.99 38.03 50.89 37.96 50.79 37.9 50.68 37.84 50.57 37.79 50.45 37.75 50.33 37.72 50.2 37.7 50.08 37.69 50.08 37.69 49.77 37.68 49.45 37.69 49.12 37.69 48.78 37.71 48.44 37.74 48.1 37.77 47.76 37.8 47.43 37.84 47.11 37.89 46.81 37.94 46.53 37.99 46.27 38.05 46.04 38.11 45.85 38.16 45.7 38.23 45.59 38.29 46.35 35.78 46.35 35.78 46.57 35.67 46.81 35.58 47.04 35.49 47.29 35.43 47.55 35.38 47.82 35.33 48.1 35.3 48.39 35.27 48.69 35.25 48.99 35.24 49.3 35.23 49.62 35.23 49.96 35.23 50.3 35.23 50.66 35.24 51.03 35.24 51.03 35.24 51.33 35.27 51.65 35.32 51.98 35.4 52.32 35.49 52.65 35.62 52.98 35.78 53.29 35.95 53.59 36.16 53.86 36.4 54.11 36.66 54.31 36.95 54.48 37.26 54.6 37.61 54.66 37.99 54.67 38.39 54.61 38.82 53.51 44.38" fill="none" stroke="#fff" stroke-width="0.21"/><polygon points="50.95 41.6 50.95 41.54 50.9 41.49 50.83 41.46 50.73 41.44 50.61 41.42 50.48 41.41 50.32 41.41 50.16 41.41 49.99 41.43 49.81 41.45 49.64 41.47 49.47 41.5 49.31 41.53 49.15 41.56 49.02 41.6 48.9 41.63 48.83 41.65 48.74 41.68 48.63 41.72 48.52 41.77 48.39 41.82 48.25 41.89 48.11 41.97 47.97 42.05 47.83 42.15 47.69 42.27 47.57 42.38 47.46 42.52 47.35 42.66 47.28 42.81 47.22 42.98 47.18 43.16 47.17 43.52 47.22 43.8 47.31 44.02 47.44 44.19 47.6 44.3 47.77 44.37 47.96 44.41 48.14 44.42 48.46 44.41 48.75 44.38 49.02 44.33 49.27 44.26 49.49 44.19 49.69 44.1 49.87 44 50.02 43.88 50.16 43.77 50.28 43.65 50.39 43.53 50.48 43.4 50.55 43.28 50.61 43.16 50.65 43.04 50.69 42.93 50.73 42.77 50.76 42.6 50.8 42.42 50.84 42.23 50.87 42.06 50.9 41.89 50.93 41.74 50.95 41.6" fill="#0084c4"/><polygon points="31.18 46.74 28.29 46.74 30.72 32.81 35.75 32.81 36.25 41.1 39.67 32.81 44.9 32.81 42.46 46.74 39.56 46.74 41.39 36.31 41.28 36.31 36.97 46.74 33.73 46.74 33.7 46.3 33.64 45.14 33.54 43.5 33.43 41.61 33.32 39.71 33.22 38.03 33.16 36.82 33.13 36.31 33.12 36.31 33.09 36.31 33.06 36.31 33.02 36.31 32.99 36.31 32.98 36.31 32.98 36.31 33.01 36.31 31.18 46.74" fill="#fff"/><polyline points="31.18 46.74 28.29 46.74 30.72 32.81 35.75 32.81 36.25 41.1 39.67 32.81 44.9 32.81 42.46 46.74 39.56 46.74 41.39 36.31 41.28 36.31 36.97 46.74 33.73 46.74 33.73 46.74 33.7 46.3 33.64 45.14 33.54 43.5 33.43 41.61 33.32 39.71 33.22 38.03 33.16 36.82 33.13 36.31 33.13 36.31 33.12 36.31 33.09 36.31 33.06 36.31 33.02 36.31 32.99 36.31 32.98 36.31 32.98 36.31 33.01 36.31 31.18 46.74" fill="none" stroke="#fff" stroke-width="0.21"/><polygon points="79.51 46.74 82.53 46.74 82.53 46.74 83.55 40.73 83.6 40.49 83.65 40.26 83.71 40.03 83.78 39.82 83.86 39.6 83.97 39.4 84.09 39.21 84.23 39.02 84.4 38.86 84.59 38.71 84.82 38.58 85.08 38.46 85.37 38.37 85.7 38.29 86.08 38.25 86.49 38.22 86.53 38.22 86.57 38.23 86.63 38.23 86.69 38.23 86.74 38.24 86.78 38.25 86.81 38.25 86.83 38.25 86.84 38.21 86.87 38.08 86.9 37.89 86.96 37.65 87.04 37.37 87.12 37.08 87.22 36.78 87.33 36.5 87.41 36.29 87.5 36.09 87.6 35.9 87.7 35.71 87.79 35.55 87.87 35.43 87.92 35.35 87.93 35.32 87.92 35.32 87.88 35.3 87.83 35.3 87.75 35.28 87.68 35.27 87.59 35.26 87.51 35.24 87.44 35.24 87.11 35.27 86.81 35.3 86.54 35.36 86.29 35.43 86.05 35.52 85.84 35.61 85.63 35.73 85.45 35.86 85.26 36 85.09 36.15 84.94 36.32 84.77 36.49 84.62 36.68 84.47 36.88 84.31 37.09 84.16 37.3 84.51 35.4 81.5 35.36 79.51 46.74 79.51 46.74" fill="#fff"/><polyline points="79.51 46.74 82.53 46.74 82.53 46.74 83.55 40.73 83.55 40.73 83.6 40.49 83.65 40.26 83.71 40.03 83.78 39.82 83.86 39.6 83.97 39.4 84.09 39.21 84.23 39.02 84.4 38.86 84.59 38.71 84.82 38.58 85.08 38.46 85.37 38.37 85.7 38.29 86.08 38.25 86.49 38.22 86.49 38.22 86.53 38.22 86.57 38.23 86.63 38.23 86.69 38.23 86.74 38.24 86.78 38.25 86.81 38.25 86.83 38.25 86.83 38.25 86.84 38.21 86.87 38.08 86.9 37.89 86.96 37.65 87.04 37.37 87.12 37.08 87.22 36.78 87.33 36.5 87.33 36.5 87.41 36.29 87.5 36.09 87.6 35.9 87.7 35.71 87.79 35.55 87.87 35.43 87.92 35.35 87.93 35.32 87.93 35.32 87.92 35.32 87.88 35.3 87.83 35.3 87.75 35.28 87.68 35.27 87.59 35.26 87.51 35.24 87.44 35.24 87.44 35.24 87.11 35.27 86.81 35.3 86.54 35.36 86.29 35.43 86.05 35.52 85.84 35.61 85.63 35.73 85.45 35.86 85.26 36 85.09 36.15 84.94 36.32 84.77 36.49 84.62 36.68 84.47 36.88 84.31 37.09 84.16 37.3 84.51 35.4 81.5 35.36 79.51 46.74 79.51 46.74" fill="none" stroke="#fff" stroke-width="0.21"/><polygon points="92.54 35.24 92.87 35.25 93.2 35.27 93.52 35.3 93.83 35.35 94.13 35.41 94.41 35.48 94.69 35.56 94.96 35.66 95.22 35.77 95.46 35.89 95.71 36.01 95.93 36.15 96.15 36.31 96.36 36.47 96.55 36.64 96.73 36.83 96.91 37.02 97.08 37.23 97.22 37.43 97.36 37.66 97.5 37.88 97.61 38.13 97.72 38.37 97.81 38.63 97.89 38.89 97.96 39.16 98.02 39.45 98.06 39.73 98.09 40.02 98.1 40.33 98.11 40.64 98.1 40.95 98.08 41.33 98.04 41.69 97.99 42.03 97.92 42.38 97.84 42.7 97.75 43.01 97.64 43.31 97.53 43.6 97.4 43.88 97.27 44.14 97.11 44.39 96.96 44.63 96.79 44.86 96.6 45.08 96.41 45.27 96.21 45.47 96 45.64 95.79 45.82 95.56 45.97 95.33 46.11 95.08 46.24 94.83 46.36 94.58 46.47 94.32 46.57 94.05 46.66 93.77 46.73 93.49 46.79 93.21 46.84 92.91 46.88 92.61 46.91 92.31 46.92 92.01 46.93 91.7 46.92 91.4 46.91 91.11 46.88 90.82 46.84 90.54 46.78 90.26 46.73 90 46.65 89.74 46.56 89.48 46.47 89.23 46.35 89 46.24 88.77 46.1 88.55 45.96 88.34 45.81 88.13 45.64 87.94 45.47 87.76 45.28 87.58 45.08 87.43 44.88 87.27 44.65 87.14 44.42 87.01 44.18 86.9 43.93 86.79 43.67 86.7 43.4 86.62 43.11 86.56 42.81 86.5 42.51 86.47 42.19 86.44 41.86 86.44 41.52 86.44 41.18 86.47 40.82 86.5 40.48 86.56 40.15 86.62 39.83 86.7 39.52 86.78 39.22 86.88 38.93 86.99 38.65 87.11 38.37 87.24 38.11 87.39 37.87 87.55 37.63 87.71 37.4 87.89 37.18 88.07 36.98 88.27 36.78 88.47 36.6 88.69 36.43 88.91 36.27 89.14 36.12 89.38 35.98 89.63 35.85 89.89 35.74 90.15 35.63 90.43 35.55 90.7 35.47 91 35.4 91.29 35.34 91.59 35.3 91.9 35.27 92.22 35.25 92.54 35.24" fill="#fff"/><polyline points="92.54 35.24 92.54 35.24 92.87 35.25 93.2 35.27 93.52 35.3 93.83 35.35 94.13 35.41 94.41 35.48 94.69 35.56 94.96 35.66 95.22 35.77 95.46 35.89 95.71 36.01 95.93 36.15 96.15 36.31 96.36 36.47 96.55 36.64 96.73 36.83 96.91 37.02 97.08 37.23 97.22 37.43 97.36 37.66 97.5 37.88 97.61 38.13 97.72 38.37 97.81 38.63 97.89 38.89 97.96 39.16 98.02 39.45 98.06 39.73 98.09 40.02 98.1 40.33 98.11 40.64 98.1 40.95 98.1 40.95 98.08 41.33 98.04 41.69 97.99 42.03 97.92 42.38 97.84 42.7 97.75 43.01 97.64 43.31 97.53 43.6 97.4 43.88 97.27 44.14 97.11 44.39 96.96 44.63 96.79 44.86 96.6 45.08 96.41 45.27 96.21 45.47 96 45.64 95.79 45.82 95.56 45.97 95.33 46.11 95.08 46.24 94.83 46.36 94.58 46.47 94.32 46.57 94.05 46.66 93.77 46.73 93.49 46.79 93.21 46.84 92.91 46.88 92.61 46.91 92.31 46.92 92.01 46.93 92.01 46.93 91.7 46.92 91.4 46.91 91.11 46.88 90.82 46.84 90.54 46.78 90.26 46.73 90 46.65 89.74 46.56 89.48 46.47 89.23 46.35 89 46.24 88.77 46.1 88.55 45.96 88.34 45.81 88.13 45.64 87.94 45.47 87.76 45.28 87.58 45.08 87.43 44.88 87.27 44.65 87.14 44.42 87.01 44.18 86.9 43.93 86.79 43.67 86.7 43.4 86.62 43.11 86.56 42.81 86.5 42.51 86.47 42.19 86.44 41.86 86.44 41.52 86.44 41.18 86.44 41.18 86.47 40.82 86.5 40.48 86.56 40.15 86.62 39.83 86.7 39.52 86.78 39.22 86.88 38.93 86.99 38.65 87.11 38.37 87.24 38.11 87.39 37.87 87.55 37.63 87.71 37.4 87.89 37.18 88.07 36.98 88.27 36.78 88.47 36.6 88.69 36.43 88.91 36.27 89.14 36.12 89.38 35.98 89.63 35.85 89.89 35.74 90.15 35.63 90.43 35.55 90.7 35.47 91 35.4 91.29 35.34 91.59 35.3 91.9 35.27 92.22 35.25 92.54 35.24" fill="none" stroke="#fff" stroke-width="0.21"/><polygon points="96.97 46.17 97.84 46.17 97.84 46.28 97.5 46.28 97.5 47.01 97.31 47.01 97.31 46.28 96.97 46.28 96.97 46.17" fill="#fff"/><polyline points="96.97 46.17 97.84 46.17 97.84 46.28 97.5 46.28 97.5 47.01 97.31 47.01 97.31 46.28 96.97 46.28 96.97 46.17" fill="none" stroke="#fff" stroke-width="0.21"/><polygon points="97.95 46.17 98.22 46.17 98.53 46.81 98.53 46.81 98.83 46.17 99.1 46.17 99.1 47.01 98.9 47.01 98.9 46.36 98.9 46.36 98.6 47.01 98.44 47.01 98.14 46.36 98.14 46.36 98.14 47.01 97.95 47.01 97.95 46.17" fill="#fff"/><polyline points="97.95 46.17 98.22 46.17 98.53 46.81 98.53 46.81 98.83 46.17 99.1 46.17 99.1 47.01 98.9 47.01 98.9 46.36 98.9 46.36 98.6 47.01 98.44 47.01 98.14 46.36 98.14 46.36 98.14 47.01 97.95 47.01 97.95 46.17" fill="none" stroke="#fff" stroke-width="0.21"/><polygon points="90.18 40.68 90.14 41.09 90.11 41.48 90.11 41.83 90.14 42.15 90.18 42.45 90.25 42.71 90.33 42.95 90.43 43.16 90.56 43.34 90.7 43.5 90.85 43.63 91.02 43.74 91.21 43.82 91.42 43.88 91.63 43.91 91.86 43.92 92.11 43.91 92.36 43.88 92.58 43.83 92.81 43.75 93.02 43.65 93.21 43.52 93.4 43.36 93.58 43.17 93.73 42.97 93.88 42.73 94.02 42.46 94.14 42.17 94.25 41.86 94.35 41.51 94.42 41.13 94.49 40.73 94.52 40.41 94.55 40.1 94.55 39.81 94.52 39.53 94.49 39.27 94.43 39.02 94.35 38.79 94.25 38.57 94.13 38.38 94 38.22 93.84 38.07 93.67 37.95 93.48 37.85 93.27 37.8 93.05 37.76 92.81 37.76 92.5 37.78 92.22 37.83 91.96 37.92 91.72 38.03 91.5 38.18 91.29 38.34 91.11 38.53 90.94 38.74 90.79 38.96 90.66 39.19 90.53 39.43 90.44 39.68 90.35 39.93 90.28 40.19 90.22 40.44 90.18 40.68" fill="#ec1c2e"/></svg>