<svg xmlns="http://www.w3.org/2000/svg" viewBox="0 0 126.43 79.39"><title>mastercard</title><rect x="0.5" y="0.5" width="125.43" height="78.39" rx="5" fill="#f9f9f9" stroke="gray" stroke-miterlimit="10"/><polygon points="78.27 62.2 79.43 62.17 80.58 62.09 81.7 61.94 82.81 61.74 83.9 61.49 84.97 61.19 86.02 60.83 87.04 60.43 88.04 59.98 89.02 59.48 89.96 58.94 90.88 58.35 91.76 57.72 92.61 57.05 93.43 56.35 94.21 55.6 94.96 54.81 95.67 53.99 96.33 53.15 96.96 52.26 97.55 51.35 98.09 50.4 98.59 49.43 99.04 48.43 99.44 47.41 99.8 46.36 100.11 45.29 100.36 44.2 100.55 43.09 100.7 41.96 100.78 40.82 100.81 39.66 100.78 38.5 100.7 37.36 100.55 36.24 100.36 35.14 100.11 34.05 99.8 32.99 99.44 31.94 99.04 30.93 98.59 29.93 98.09 28.96 97.55 28.03 96.96 27.11 96.33 26.23 95.67 25.39 94.96 24.57 94.21 23.78 93.43 23.04 92.61 22.33 91.76 21.67 90.88 21.04 89.96 20.45 89.02 19.91 88.04 19.42 87.04 18.96 86.02 18.56 84.97 18.2 83.9 17.9 82.81 17.65 81.7 17.45 80.58 17.31 79.43 17.23 78.27 17.19 77.11 17.23 75.97 17.31 74.84 17.45 73.73 17.65 72.65 17.9 71.58 18.2 70.54 18.56 69.52 18.96 68.52 19.42 67.56 19.91 66.62 20.45 65.7 21.04 64.83 21.67 63.97 22.33 63.16 23.04 62.38 23.78 61.64 24.57 60.93 25.39 60.26 26.23 59.64 27.11 59.06 28.03 58.52 28.96 58.02 29.93 57.57 30.93 57.16 31.94 56.82 32.99 56.51 34.05 56.26 35.14 56.06 36.24 55.92 37.36 55.84 38.5 55.81 39.66 55.84 40.82 55.92 41.96 56.06 43.09 56.26 44.2 56.51 45.29 56.82 46.36 57.16 47.41 57.57 48.43 58.02 49.43 58.52 50.4 59.06 51.35 59.64 52.26 60.26 53.15 60.93 53.99 61.64 54.81 62.38 55.6 63.16 56.35 63.97 57.05 64.83 57.72 65.7 58.35 66.62 58.94 67.56 59.48 68.52 59.98 69.52 60.43 70.54 60.83 71.58 61.19 72.65 61.49 73.73 61.74 74.84 61.94 75.97 62.09 77.11 62.17 78.27 62.2 78.27 62.2 78.27 62.2" fill="#fbb231" fill-rule="evenodd"/><polygon points="48.16 62.2 49.31 62.17 50.46 62.09 51.59 61.94 52.69 61.74 53.78 61.49 54.85 61.19 55.89 60.83 56.91 60.43 57.91 59.98 58.87 59.48 59.81 58.94 60.72 58.35 61.61 57.72 62.46 57.05 63.27 56.35 64.05 55.6 64.79 54.81 65.5 53.99 66.17 53.15 66.79 52.26 67.38 51.35 67.91 50.4 68.41 49.43 68.86 48.43 69.27 47.41 69.61 46.36 69.92 45.29 70.17 44.2 70.36 43.09 70.51 41.96 70.59 40.82 70.62 39.66 70.59 38.5 70.51 37.36 70.36 36.24 70.17 35.14 69.92 34.05 69.61 32.99 69.27 31.94 68.86 30.93 68.41 29.93 67.91 28.96 67.38 28.03 66.79 27.11 66.17 26.23 65.5 25.39 64.79 24.57 64.05 23.78 63.27 23.04 62.46 22.33 61.61 21.67 60.72 21.04 59.81 20.45 58.87 19.91 57.91 19.42 56.91 18.96 55.89 18.56 54.85 18.2 53.78 17.9 52.69 17.65 51.59 17.45 50.46 17.31 49.31 17.23 48.16 17.19 47 17.23 45.85 17.31 44.73 17.45 43.62 17.65 42.53 17.9 41.46 18.2 40.41 18.56 39.39 18.96 38.39 19.42 37.41 19.91 36.47 20.45 35.55 21.04 34.67 21.67 33.82 22.33 33 23.04 32.22 23.78 31.47 24.57 30.77 25.39 30.1 26.23 29.47 27.11 28.88 28.03 28.34 28.96 27.84 29.93 27.39 30.93 26.98 31.94 26.63 32.99 26.32 34.05 26.07 35.14 25.88 36.24 25.73 37.36 25.65 38.5 25.62 39.66 25.65 40.82 25.73 41.96 25.88 43.09 26.07 44.2 26.32 45.29 26.63 46.36 26.98 47.41 27.39 48.43 27.84 49.43 28.34 50.4 28.88 51.35 29.47 52.26 30.1 53.15 30.77 53.99 31.47 54.81 32.22 55.6 33 56.35 33.82 57.05 34.67 57.72 35.55 58.35 36.47 58.94 37.41 59.48 38.39 59.98 39.39 60.43 40.41 60.83 41.46 61.19 42.53 61.49 43.62 61.74 44.73 61.94 45.85 62.09 47 62.17 48.16 62.2 48.16 62.2 48.16 62.2" fill="#ec1c2e" fill-rule="evenodd"/><polygon points="60.58 25.83 72.54 25.83 72.54 24.6 61.61 24.6 60.58 25.83 60.58 25.83 60.58 25.83" fill="#fbb231" fill-rule="evenodd"/><polygon points="58.79 28.54 72.54 28.54 72.54 27.32 59.51 27.32 58.79 28.54 58.79 28.54 58.79 28.54" fill="#fbb231" fill-rule="evenodd"/><polygon points="57.45 31.25 72.54 31.25 72.54 30.03 57.98 30.03 57.45 31.25 57.45 31.25 57.45 31.25" fill="#fbb231" fill-rule="evenodd"/><polygon points="56.53 33.97 72.54 33.97 72.54 32.75 56.91 32.75 56.53 33.97 56.53 33.97 56.53 33.97" fill="#fbb231" fill-rule="evenodd"/><polygon points="57.07 47.1 72.57 47.1 72.57 45.88 56.69 45.88 57.07 47.1 57.07 47.1 57.07 47.1" fill="#fbb231" fill-rule="evenodd"/><polygon points="58.21 49.82 72.57 49.82 72.57 48.6 57.64 48.6 58.21 49.82 58.21 49.82 58.21 49.82" fill="#fbb231" fill-rule="evenodd"/><polygon points="59.82 52.53 72.57 52.53 72.57 51.31 59.06 51.31 59.82 52.53 59.82 52.53 59.82 52.53" fill="#fbb231" fill-rule="evenodd"/><polygon points="62.04 55.25 72.57 55.25 72.57 54.02 60.97 54.02 62.04 55.25 62.04 55.25 62.04 55.25" fill="#fbb231" fill-rule="evenodd"/><polygon points="56 36.68 72.54 36.68 72.54 35.46 56.23 35.46 56 36.68 56 36.68 56 36.68" fill="#fbb231" fill-rule="evenodd"/><polygon points="66.08 44.39 72.38 44.39 72.38 43.17 66.31 43.17 66.08 44.39 66.08 44.39 66.08 44.39" fill="#fbb231" fill-rule="evenodd"/><polygon points="66.58 41.68 72.38 41.68 72.38 40.45 66.81 40.45 66.58 41.68 66.58 41.68 66.58 41.68" fill="#fbb231" fill-rule="evenodd"/><polygon points="55.58 40.45 57.22 40.45 57.22 41.68 55.66 41.68 55.58 40.45 55.58 40.45 55.58 40.45" fill="#fbb231" fill-rule="evenodd"/><polygon points="52.52 38.97 52.41 38.96 52.31 38.95 52.21 38.94 52.11 38.92 52.02 38.91 51.92 38.89 51.82 38.87 51.71 38.86 51.61 38.84 51.49 38.84 51.35 38.83 51.21 38.82 51.05 38.82 50.87 38.83 50.67 38.84 50.45 38.86 50.3 38.88 50.16 38.91 50.03 38.95 49.92 38.99 49.81 39.05 49.71 39.11 49.63 39.19 49.56 39.25 49.52 39.34 49.48 39.42 49.47 39.51 49.47 39.6 49.49 39.7 49.52 39.8 49.58 39.9 49.66 40 49.81 40.14 49.99 40.26 50.2 40.35 50.43 40.44 50.67 40.51 50.92 40.6 51.18 40.69 51.42 40.79 51.65 40.92 51.86 41.08 52.05 41.27 52.21 41.5 52.33 41.79 52.41 42.13 52.44 42.54 52.41 43.02 52.35 43.38 52.26 43.69 52.14 43.98 51.99 44.23 51.81 44.45 51.62 44.63 51.4 44.8 51.17 44.95 50.92 45.06 50.67 45.16 50.42 45.23 50.15 45.3 49.89 45.34 49.64 45.36 49.39 45.38 49.16 45.39 48.83 45.39 48.53 45.38 48.26 45.38 48.01 45.37 47.78 45.36 47.58 45.35 47.4 45.33 47.22 45.31 47.06 45.3 46.92 45.27 46.77 45.24 46.64 45.2 46.52 45.17 46.39 45.13 46.27 45.08 46.14 45.04 46.48 43.36 46.55 43.38 46.64 43.4 46.74 43.43 46.87 43.46 47.01 43.49 47.16 43.52 47.33 43.56 47.51 43.59 47.7 43.62 47.9 43.65 48.1 43.67 48.31 43.69 48.53 43.7 48.76 43.71 48.97 43.71 49.19 43.7 49.41 43.66 49.59 43.59 49.73 43.51 49.83 43.41 49.91 43.3 49.97 43.18 50.01 43.06 50.04 42.94 50.05 42.72 49.98 42.53 49.85 42.38 49.66 42.25 49.44 42.14 49.17 42.02 48.88 41.92 48.58 41.8 48.28 41.66 47.99 41.5 47.72 41.3 47.48 41.07 47.29 40.78 47.15 40.44 47.08 40.03 47.09 39.54 47.13 39.25 47.18 38.96 47.26 38.71 47.35 38.46 47.47 38.24 47.61 38.04 47.77 37.85 47.96 37.68 48.18 37.54 48.42 37.42 48.69 37.3 49 37.22 49.34 37.15 49.71 37.1 50.12 37.07 50.57 37.06 50.85 37.06 51.11 37.07 51.34 37.08 51.56 37.08 51.75 37.1 51.92 37.11 52.07 37.13 52.21 37.14 52.34 37.16 52.44 37.18 52.54 37.2 52.63 37.21 52.71 37.23 52.78 37.23 52.85 37.25 52.91 37.26 52.52 38.97 52.52 38.97 52.52 38.97" fill="#fff" fill-rule="evenodd"/><polyline points="52.52 38.97 52.52 38.97 52.41 38.96 52.31 38.95 52.21 38.94 52.11 38.92 52.02 38.91 51.92 38.89 51.82 38.87 51.71 38.86 51.61 38.84 51.49 38.84 51.35 38.83 51.21 38.82 51.05 38.82 50.87 38.83 50.67 38.84 50.45 38.86 50.45 38.86 50.3 38.88 50.16 38.91 50.03 38.95 49.92 38.99 49.81 39.05 49.71 39.11 49.63 39.19 49.56 39.25 49.52 39.34 49.48 39.42 49.47 39.51 49.47 39.6 49.49 39.7 49.52 39.8 49.58 39.9 49.66 40 49.66 40 49.81 40.14 49.99 40.26 50.2 40.35 50.43 40.44 50.67 40.51 50.92 40.6 51.18 40.69 51.42 40.79 51.65 40.92 51.86 41.08 52.05 41.27 52.21 41.5 52.33 41.79 52.41 42.13 52.44 42.54 52.41 43.02 52.41 43.02 52.35 43.38 52.26 43.69 52.14 43.98 51.99 44.23 51.81 44.45 51.62 44.63 51.4 44.8 51.17 44.95 50.92 45.06 50.67 45.16 50.42 45.23 50.15 45.3 49.89 45.34 49.64 45.36 49.39 45.38 49.16 45.39 49.16 45.39 48.83 45.39 48.53 45.38 48.26 45.38 48.01 45.37 47.78 45.36 47.58 45.35 47.4 45.33 47.22 45.31 47.06 45.3 46.92 45.27 46.77 45.24 46.64 45.2 46.52 45.17 46.39 45.13 46.27 45.08 46.14 45.04 46.48 43.36 46.48 43.36 46.55 43.38 46.64 43.4 46.74 43.43 46.87 43.46 47.01 43.49 47.16 43.52 47.33 43.56 47.51 43.59 47.7 43.62 47.9 43.65 48.1 43.67 48.31 43.69 48.53 43.7 48.76 43.71 48.97 43.71 49.19 43.7 49.19 43.7 49.41 43.66 49.59 43.59 49.73 43.51 49.83 43.41 49.91 43.3 49.97 43.18 50.01 43.06 50.04 42.94 50.04 42.94 50.05 42.72 49.98 42.53 49.85 42.38 49.66 42.25 49.44 42.14 49.17 42.02 48.88 41.92 48.58 41.8 48.28 41.66 47.99 41.5 47.72 41.3 47.48 41.07 47.29 40.78 47.15 40.44 47.08 40.03 47.09 39.54 47.09 39.54 47.13 39.25 47.18 38.96 47.26 38.71 47.35 38.46 47.47 38.24 47.61 38.04 47.77 37.85 47.96 37.68 48.18 37.54 48.42 37.42 48.69 37.3 49 37.22 49.34 37.15 49.71 37.1 50.12 37.07 50.57 37.06 50.57 37.06 50.85 37.06 51.11 37.07 51.34 37.08 51.56 37.08 51.75 37.1 51.92 37.11 52.07 37.13 52.21 37.14 52.34 37.16 52.44 37.18 52.54 37.2 52.63 37.21 52.71 37.23 52.78 37.23 52.85 37.25 52.91 37.26 52.52 38.97" fill="none" stroke="#fff" stroke-miterlimit="2.61" stroke-width="0.22"/><polygon points="54.32 35.38 56.42 35.38 56.11 37.22 57.38 37.22 57.1 38.94 55.77 38.9 55.04 43.13 55.03 43.28 55.07 43.41 55.15 43.51 55.24 43.59 55.38 43.65 55.53 43.69 55.7 43.72 55.88 43.74 56.05 43.73 56.2 43.72 56.34 43.69 56.46 43.66 56.56 43.63 56.63 43.61 56.67 43.59 56.69 43.59 56.42 45 56.37 45.04 56.31 45.07 56.26 45.1 56.21 45.13 56.16 45.15 56.09 45.17 56.03 45.2 55.96 45.22 55.88 45.24 55.81 45.26 55.72 45.27 55.63 45.29 55.53 45.3 55.41 45.32 55.29 45.33 55.16 45.35 54.58 45.35 54.28 45.33 54.02 45.3 53.77 45.25 53.57 45.2 53.39 45.13 53.25 45.05 53.12 44.96 53.02 44.86 52.94 44.76 52.89 44.63 52.85 44.5 52.83 44.35 52.82 44.2 52.82 44.03 52.85 43.85 52.87 43.66 54.32 35.38 54.32 35.38 54.32 35.38" fill="#fff" fill-rule="evenodd"/><polyline points="54.32 35.38 56.42 35.38 56.11 37.22 57.38 37.22 57.1 38.94 55.77 38.9 55.04 43.13 55.04 43.13 55.03 43.28 55.07 43.41 55.15 43.51 55.24 43.59 55.38 43.65 55.53 43.69 55.7 43.72 55.88 43.74 55.88 43.74 56.05 43.73 56.2 43.72 56.34 43.69 56.46 43.66 56.56 43.63 56.63 43.61 56.67 43.59 56.69 43.59 56.42 45 56.42 45 56.37 45.04 56.31 45.07 56.26 45.1 56.21 45.13 56.16 45.15 56.09 45.17 56.03 45.2 55.96 45.22 55.88 45.24 55.81 45.26 55.72 45.27 55.63 45.29 55.53 45.3 55.41 45.32 55.29 45.33 55.16 45.35 54.58 45.35 54.58 45.35 54.28 45.33 54.02 45.3 53.77 45.25 53.57 45.2 53.39 45.13 53.25 45.05 53.12 44.96 53.02 44.86 52.94 44.76 52.89 44.63 52.85 44.5 52.83 44.35 52.82 44.2 52.82 44.03 52.85 43.85 52.87 43.66 54.32 35.38" fill="none" stroke="#fff" stroke-miterlimit="2.61" stroke-width="0.22"/><polyline points="59.06 41.8 59.06 41.8 59.03 41.92 59.02 42.06 59.04 42.21 59.07 42.35 59.12 42.49 59.19 42.63 59.27 42.78 59.36 42.9 59.47 43.03 59.58 43.15 59.7 43.26 59.84 43.35 59.97 43.44 60.13 43.5 60.28 43.56 60.43 43.59 60.43 43.59 60.63 43.62 60.82 43.64 61.01 43.66 61.21 43.68 61.41 43.69 61.61 43.69 61.81 43.68 62.02 43.66 62.22 43.63 62.43 43.59 62.64 43.55 62.84 43.48 63.06 43.4 63.27 43.31 63.49 43.19 63.71 43.06 63.41 44.92 63.41 44.92 63.28 44.98 63.16 45.05 63.04 45.09 62.93 45.14 62.81 45.17 62.69 45.21 62.57 45.24 62.44 45.27 62.3 45.29 62.15 45.3 61.99 45.32 61.82 45.33 61.62 45.34 61.42 45.34 61.18 45.35 60.93 45.35 60.93 45.35 60.56 45.34 60.18 45.3 59.8 45.25 59.42 45.16 59.05 45.05 58.69 44.9 58.35 44.71 58.03 44.49 57.73 44.23 57.48 43.92 57.26 43.57 57.07 43.17 56.95 42.72 56.86 42.21 56.84 41.65 56.88 41.03 56.88 41.03 56.91 40.79 56.95 40.51 57.01 40.21 57.1 39.89 57.21 39.56 57.35 39.24 57.52 38.91 57.73 38.59 57.98 38.28 58.27 37.99 58.61 37.74 58.99 37.51 59.43 37.32 59.92 37.18 60.47 37.09 61.08 37.06 61.08 37.06 61.38 37.07 61.69 37.1 62 37.15 62.31 37.23 62.62 37.34 62.91 37.48 63.19 37.66 63.44 37.87 63.66 38.13 63.85 38.44 64 38.78 64.11 39.19 64.17 39.64 64.18 40.16 64.13 40.73 64.01 41.37 63.97 41.83 58.44 41.83 58.79 40.34 62.11 40.34 62.11 40.34 62.13 40.15 62.12 39.97 62.1 39.8 62.08 39.65 62.02 39.5 61.97 39.37 61.89 39.26 61.82 39.16 61.73 39.06 61.63 38.99 61.52 38.92 61.4 38.86 61.28 38.81 61.16 38.78 61.03 38.76 60.89 38.74 60.89 38.74 60.75 38.75 60.61 38.77 60.48 38.81 60.35 38.85 60.22 38.91 60.11 38.98 60 39.06 59.9 39.16 59.8 39.26 59.71 39.37 59.63 39.5 59.56 39.63 59.49 39.76 59.44 39.91 59.39 40.07 59.36 40.23 59.06 41.8" fill="none" stroke="#fff" stroke-miterlimit="2.61" stroke-width="0.22"/><polygon points="77.16 37.67 77.06 37.62 76.96 37.58 76.85 37.52 76.74 37.47 76.63 37.42 76.5 37.38 76.37 37.33 76.23 37.29 76.09 37.25 75.94 37.22 75.79 37.19 75.63 37.17 75.45 37.15 75.28 37.14 75.09 37.14 74.91 37.14 74.72 37.14 74.52 37.15 74.31 37.17 74.1 37.21 73.89 37.27 73.68 37.36 73.46 37.46 73.25 37.6 73.05 37.77 72.85 37.96 72.66 38.21 72.48 38.49 72.31 38.82 72.15 39.2 72 39.63 71.89 40.11 71.84 40.38 71.81 40.65 71.79 40.92 71.8 41.17 71.82 41.43 71.88 41.67 71.94 41.9 72.03 42.13 72.14 42.34 72.28 42.53 72.44 42.71 72.62 42.87 72.83 43 73.06 43.12 73.32 43.22 73.61 43.28 73.7 43.31 73.82 43.33 73.96 43.34 74.11 43.36 74.27 43.38 74.45 43.38 74.64 43.38 74.83 43.36 75.03 43.34 75.22 43.3 75.41 43.25 75.6 43.19 75.79 43.1 75.97 43 76.13 42.88 76.28 42.75 75.94 44.77 75.89 44.81 75.85 44.86 75.79 44.91 75.72 44.95 75.63 45.01 75.53 45.07 75.41 45.12 75.27 45.17 75.09 45.22 74.9 45.26 74.67 45.29 74.4 45.32 74.11 45.33 73.77 45.34 73.38 45.33 72.95 45.31 72.6 45.27 72.25 45.2 71.91 45.08 71.56 44.93 71.22 44.75 70.9 44.52 70.6 44.26 70.32 43.95 70.07 43.61 69.86 43.23 69.67 42.81 69.54 42.34 69.45 41.83 69.42 41.3 69.43 40.7 69.52 40.07 69.58 39.76 69.64 39.46 69.72 39.16 69.8 38.88 69.88 38.62 69.98 38.35 70.08 38.1 70.18 37.87 70.3 37.63 70.41 37.41 70.54 37.2 70.68 37 70.81 36.81 70.97 36.63 71.12 36.46 71.28 36.3 71.45 36.15 71.63 36.01 71.81 35.88 72 35.75 72.2 35.64 72.41 35.54 72.62 35.45 72.84 35.37 73.08 35.29 73.31 35.23 73.55 35.18 73.81 35.13 74.07 35.09 74.34 35.06 74.62 35.05 74.91 35.04 75.15 35.05 75.38 35.06 75.61 35.09 75.84 35.12 76.05 35.15 76.26 35.19 76.45 35.23 76.64 35.28 76.81 35.32 76.96 35.37 77.11 35.41 77.23 35.46 77.33 35.5 77.42 35.53 77.49 35.56 77.54 35.57 77.16 37.67 77.16 37.67 77.16 37.67" fill="#fff" fill-rule="evenodd"/><polyline points="77.16 37.67 77.16 37.67 77.06 37.62 76.96 37.58 76.85 37.52 76.74 37.47 76.63 37.42 76.5 37.38 76.37 37.33 76.23 37.29 76.09 37.25 75.94 37.22 75.79 37.19 75.63 37.17 75.45 37.15 75.28 37.14 75.09 37.14 74.91 37.14 74.91 37.14 74.72 37.14 74.52 37.15 74.31 37.17 74.1 37.21 73.89 37.27 73.68 37.36 73.46 37.46 73.25 37.6 73.05 37.77 72.85 37.96 72.66 38.21 72.48 38.49 72.31 38.82 72.15 39.2 72 39.63 71.89 40.11 71.89 40.11 71.84 40.38 71.81 40.65 71.79 40.92 71.8 41.17 71.82 41.43 71.88 41.67 71.94 41.9 72.03 42.13 72.14 42.34 72.28 42.53 72.44 42.71 72.62 42.87 72.83 43 73.06 43.12 73.32 43.22 73.61 43.28 73.61 43.28 73.7 43.31 73.82 43.33 73.96 43.34 74.11 43.36 74.27 43.38 74.45 43.38 74.64 43.38 74.83 43.36 75.03 43.34 75.22 43.3 75.41 43.25 75.6 43.19 75.79 43.1 75.97 43 76.13 42.88 76.28 42.75 75.94 44.77 75.94 44.77 75.89 44.81 75.85 44.86 75.79 44.91 75.72 44.95 75.63 45.01 75.53 45.07 75.41 45.12 75.27 45.17 75.09 45.22 74.9 45.26 74.67 45.29 74.4 45.32 74.11 45.33 73.77 45.34 73.38 45.33 72.95 45.31 72.95 45.31 72.6 45.27 72.25 45.2 71.91 45.08 71.56 44.93 71.22 44.75 70.9 44.52 70.6 44.26 70.32 43.95 70.07 43.61 69.86 43.23 69.67 42.81 69.54 42.34 69.45 41.83 69.42 41.3 69.43 40.7 69.52 40.07 69.52 40.07 69.58 39.76 69.64 39.46 69.72 39.16 69.8 38.88 69.88 38.62 69.98 38.35 70.08 38.1 70.18 37.87 70.3 37.63 70.41 37.41 70.54 37.2 70.68 37 70.81 36.81 70.97 36.63 71.12 36.46 71.28 36.3 71.45 36.15 71.63 36.01 71.81 35.88 72 35.75 72.2 35.64 72.41 35.54 72.62 35.45 72.84 35.37 73.08 35.29 73.31 35.23 73.55 35.18 73.81 35.13 74.07 35.09 74.34 35.06 74.62 35.05 74.91 35.04 74.91 35.04 75.15 35.05 75.38 35.06 75.61 35.09 75.84 35.12 76.05 35.15 76.26 35.19 76.45 35.23 76.64 35.28 76.81 35.32 76.96 35.37 77.11 35.41 77.23 35.46 77.33 35.5 77.42 35.53 77.49 35.56 77.54 35.57 77.16 37.67" fill="none" stroke="#fff" stroke-miterlimit="2.61" stroke-width="0.22"/><polygon points="95.85 45.35 93.75 45.35 93.9 44.51 93.9 44.43 93.78 44.58 93.64 44.72 93.52 44.84 93.38 44.95 93.24 45.05 93.11 45.13 92.97 45.2 92.83 45.27 92.68 45.32 92.54 45.36 92.39 45.39 92.24 45.42 92.09 45.44 91.95 45.45 91.8 45.46 91.64 45.46 91.25 45.43 90.88 45.35 90.55 45.22 90.25 45.05 89.97 44.83 89.73 44.57 89.52 44.29 89.33 43.97 89.18 43.63 89.06 43.27 88.98 42.9 88.92 42.51 88.89 42.12 88.9 41.73 88.94 41.34 89.01 40.95 89.12 40.51 89.26 40.08 89.42 39.69 89.61 39.33 89.81 38.99 90.03 38.68 90.27 38.41 90.52 38.16 90.78 37.94 91.06 37.75 91.35 37.58 91.64 37.45 91.95 37.35 92.25 37.28 92.55 37.23 92.86 37.22 93.08 37.23 93.3 37.25 93.5 37.29 93.68 37.34 93.85 37.4 94 37.47 94.16 37.55 94.29 37.64 94.41 37.73 94.53 37.83 94.63 37.92 94.72 38.02 94.79 38.12 94.86 38.22 94.92 38.31 94.97 38.4 94.97 38.4 95.5 35.42 97.56 35.42 95.85 45.35 95.85 45.35 95.85 45.35" fill="#fff" fill-rule="evenodd"/><polyline points="95.85 45.35 93.75 45.35 93.9 44.51 93.9 44.43 93.9 44.43 93.78 44.58 93.64 44.72 93.52 44.84 93.38 44.95 93.24 45.05 93.11 45.13 92.97 45.2 92.83 45.27 92.68 45.32 92.54 45.36 92.39 45.39 92.24 45.42 92.09 45.44 91.95 45.45 91.8 45.46 91.64 45.46 91.64 45.46 91.25 45.43 90.88 45.35 90.55 45.22 90.25 45.05 89.97 44.83 89.73 44.57 89.52 44.29 89.33 43.97 89.18 43.63 89.06 43.27 88.98 42.9 88.92 42.51 88.89 42.12 88.9 41.73 88.94 41.34 89.01 40.95 89.01 40.95 89.12 40.51 89.26 40.08 89.42 39.69 89.61 39.33 89.81 38.99 90.03 38.68 90.27 38.41 90.52 38.16 90.78 37.94 91.06 37.75 91.35 37.58 91.64 37.45 91.95 37.35 92.25 37.28 92.55 37.23 92.86 37.22 92.86 37.22 93.08 37.23 93.3 37.25 93.5 37.29 93.68 37.34 93.85 37.4 94 37.47 94.16 37.55 94.29 37.64 94.41 37.73 94.53 37.83 94.63 37.92 94.72 38.02 94.79 38.12 94.86 38.22 94.92 38.31 94.97 38.4 94.97 38.4 95.5 35.42 97.56 35.42 95.85 45.35" fill="none" stroke="#fff" stroke-miterlimit="2.61" stroke-width="0.22"/><polygon points="92.41 43.51 92.62 43.5 92.82 43.45 93 43.4 93.18 43.31 93.33 43.23 93.49 43.11 93.63 42.98 93.76 42.84 93.87 42.69 93.98 42.52 94.08 42.35 94.16 42.17 94.24 41.98 94.3 41.78 94.35 41.58 94.39 41.37 94.43 41.16 94.45 40.94 94.45 40.73 94.44 40.52 94.42 40.32 94.39 40.13 94.34 39.95 94.28 39.78 94.2 39.63 94.11 39.48 94.01 39.36 93.9 39.25 93.77 39.16 93.63 39.1 93.49 39.06 93.33 39.05 93.12 39.06 92.93 39.09 92.76 39.16 92.58 39.23 92.43 39.33 92.28 39.45 92.15 39.58 92.02 39.73 91.91 39.89 91.8 40.07 91.7 40.25 91.62 40.45 91.54 40.65 91.48 40.86 91.42 41.08 91.38 41.3 91.34 41.63 91.35 41.99 91.41 42.37 91.51 42.72 91.66 43.03 91.86 43.28 92.11 43.45 92.41 43.51 92.41 43.51 92.41 43.51" fill="#fbb231" fill-rule="evenodd"/><polygon points="45.8 43.66 45.49 45.35 43.58 45.35 43.63 45.04 43.67 44.76 43.7 44.54 43.73 44.43 43.62 44.55 43.5 44.67 43.36 44.79 43.2 44.89 43.02 45 42.83 45.09 42.63 45.18 42.42 45.26 42.2 45.33 41.98 45.38 41.76 45.42 41.54 45.45 41.31 45.47 41.1 45.48 40.88 45.45 40.68 45.42 40.41 45.36 40.17 45.28 39.96 45.18 39.77 45.07 39.6 44.95 39.45 44.81 39.33 44.66 39.22 44.51 39.13 44.35 39.05 44.19 38.99 44.02 38.95 43.85 38.92 43.68 38.89 43.5 38.88 43.34 38.88 43.17 38.9 42.87 38.95 42.59 39.02 42.33 39.12 42.07 39.24 41.83 39.38 41.61 39.54 41.4 39.72 41.2 39.91 41.03 40.12 40.87 40.34 40.73 40.57 40.6 40.81 40.5 41.06 40.41 41.32 40.35 41.59 40.3 41.6 40.3 41.64 40.29 41.7 40.29 41.78 40.28 41.87 40.26 41.98 40.26 42.09 40.24 42.22 40.23 42.35 40.21 42.48 40.2 42.62 40.19 42.73 40.17 42.86 40.16 42.97 40.16 43.08 40.15 43.16 40.15 43.34 40.15 43.52 40.16 43.68 40.16 43.85 40.16 43.99 40.17 44.09 40.18 44.17 40.19 44.19 40.19 44.21 40.13 44.25 40 44.29 39.84 44.31 39.69 44.27 39.53 44.21 39.37 44.12 39.24 43.99 39.12 43.85 39.03 43.69 38.96 43.51 38.91 43.31 38.9 43.1 38.89 42.87 38.88 42.64 38.88 42.39 38.89 42.14 38.91 41.9 38.93 41.66 38.95 41.42 38.98 41.19 39.01 40.97 39.05 40.78 39.09 40.59 39.12 40.43 39.17 40.29 39.22 40.19 39.27 40.1 39.31 40.64 37.48 40.81 37.42 40.97 37.36 41.16 37.3 41.34 37.26 41.52 37.23 41.72 37.2 41.91 37.17 42.12 37.15 42.33 37.14 42.55 37.13 42.78 37.12 43.02 37.12 43.26 37.12 43.51 37.12 43.77 37.13 44.04 37.14 44.25 37.15 44.48 37.19 44.72 37.24 44.96 37.31 45.19 37.4 45.42 37.51 45.65 37.64 45.86 37.78 46.05 37.95 46.22 38.13 46.37 38.33 46.48 38.56 46.56 38.81 46.6 39.06 46.6 39.35 46.56 39.66 45.8 43.66 45.8 43.66 45.8 43.66" fill="#fff" fill-rule="evenodd"/><polyline points="45.8 43.66 45.49 45.35 43.58 45.35 43.58 45.35 43.63 45.04 43.67 44.76 43.7 44.54 43.73 44.43 43.73 44.43 43.62 44.55 43.5 44.67 43.36 44.79 43.2 44.89 43.02 45 42.83 45.09 42.63 45.18 42.42 45.26 42.2 45.33 41.98 45.38 41.76 45.42 41.54 45.45 41.31 45.47 41.1 45.48 40.88 45.45 40.68 45.42 40.68 45.42 40.41 45.36 40.17 45.28 39.96 45.18 39.77 45.07 39.6 44.95 39.45 44.81 39.33 44.66 39.22 44.51 39.13 44.35 39.05 44.19 38.99 44.02 38.95 43.85 38.92 43.68 38.89 43.5 38.88 43.34 38.88 43.17 38.88 43.17 38.9 42.87 38.95 42.59 39.02 42.33 39.12 42.07 39.24 41.83 39.38 41.61 39.54 41.4 39.72 41.2 39.91 41.03 40.12 40.87 40.34 40.73 40.57 40.6 40.81 40.5 41.06 40.41 41.32 40.35 41.59 40.3 41.59 40.3 41.6 40.3 41.64 40.29 41.7 40.29 41.78 40.28 41.87 40.26 41.98 40.26 42.09 40.24 42.22 40.23 42.35 40.21 42.48 40.2 42.62 40.19 42.73 40.17 42.86 40.16 42.97 40.16 43.08 40.15 43.16 40.15 43.16 40.15 43.34 40.15 43.52 40.16 43.68 40.16 43.85 40.16 43.99 40.17 44.09 40.18 44.17 40.19 44.19 40.19 44.19 40.19 44.21 40.13 44.25 40 44.29 39.84 44.31 39.69 44.31 39.69 44.27 39.53 44.21 39.37 44.12 39.24 43.99 39.12 43.85 39.03 43.69 38.96 43.51 38.91 43.31 38.9 43.31 38.9 43.1 38.89 42.87 38.88 42.64 38.88 42.39 38.89 42.14 38.91 41.9 38.93 41.66 38.95 41.42 38.98 41.19 39.01 40.97 39.05 40.78 39.09 40.59 39.12 40.43 39.17 40.29 39.22 40.19 39.27 40.1 39.31 40.64 37.48 40.64 37.48 40.81 37.42 40.97 37.36 41.16 37.3 41.34 37.26 41.52 37.23 41.72 37.2 41.91 37.17 42.12 37.15 42.33 37.14 42.55 37.13 42.78 37.12 43.02 37.12 43.26 37.12 43.51 37.12 43.77 37.13 44.04 37.14 44.04 37.14 44.25 37.15 44.48 37.19 44.72 37.24 44.96 37.31 45.19 37.4 45.42 37.51 45.65 37.64 45.86 37.78 46.05 37.95 46.22 38.13 46.37 38.33 46.48 38.56 46.56 38.81 46.6 39.06 46.6 39.35 46.56 39.66 45.8 43.66" fill="none" stroke="#fff" stroke-miterlimit="2.61" stroke-width="0.22"/><polygon points="43.97 41.68 43.96 41.65 43.93 41.61 43.88 41.58 43.81 41.57 43.72 41.55 43.62 41.55 43.51 41.55 43.39 41.55 43.27 41.55 43.15 41.57 43.02 41.58 42.9 41.6 42.79 41.62 42.68 41.64 42.59 41.66 42.51 41.68 42.45 41.7 42.39 41.72 42.31 41.75 42.23 41.79 42.13 41.83 42.03 41.89 41.92 41.94 41.82 42 41.72 42.08 41.62 42.15 41.53 42.24 41.45 42.34 41.37 42.43 41.31 42.54 41.27 42.66 41.25 42.78 41.24 43.04 41.28 43.25 41.35 43.4 41.45 43.51 41.57 43.59 41.7 43.63 41.82 43.66 41.94 43.66 42.16 43.66 42.37 43.63 42.57 43.6 42.74 43.56 42.89 43.5 43.04 43.44 43.17 43.37 43.28 43.28 43.38 43.21 43.47 43.12 43.55 43.03 43.61 42.94 43.66 42.85 43.71 42.76 43.74 42.68 43.77 42.59 43.83 42.37 43.88 42.12 43.93 41.88 43.97 41.68 43.97 41.68 43.97 41.68" fill="#ec1c2e" fill-rule="evenodd"/><polygon points="29.82 45.35 27.76 45.35 29.48 35.38 33.07 35.38 33.41 41.3 35.9 35.38 39.65 35.38 37.88 45.35 35.82 45.35 37.13 37.9 37.04 37.9 33.95 45.35 31.62 45.35 31.61 45.04 31.55 44.21 31.49 43.03 31.41 41.68 31.33 40.32 31.27 39.13 31.21 38.27 31.2 37.9 31.18 37.9 31.13 37.9 31.08 37.9 31.08 37.9 29.82 45.35 29.82 45.35 29.82 45.35" fill="#fff" fill-rule="evenodd"/><polyline points="29.82 45.35 27.76 45.35 29.48 35.38 33.07 35.38 33.41 41.3 35.9 35.38 39.65 35.38 37.88 45.35 35.82 45.35 37.13 37.9 37.04 37.9 33.95 45.35 31.62 45.35 31.62 45.35 31.61 45.04 31.55 44.21 31.49 43.03 31.41 41.68 31.33 40.32 31.27 39.13 31.21 38.27 31.2 37.9 31.2 37.9 31.18 37.9 31.13 37.9 31.08 37.9 31.08 37.9 29.82 45.35" fill="none" stroke="#fff" stroke-miterlimit="2.61" stroke-width="0.22"/><polygon points="83.47 43.66 83.16 45.35 81.25 45.35 81.27 45.04 81.27 44.77 81.27 44.56 81.29 44.47 81.19 44.58 81.08 44.7 80.94 44.8 80.79 44.91 80.63 45.01 80.45 45.1 80.26 45.19 80.07 45.27 79.86 45.33 79.65 45.39 79.44 45.42 79.22 45.45 79 45.47 78.79 45.48 78.59 45.45 78.38 45.42 78.11 45.36 77.87 45.28 77.65 45.18 77.45 45.07 77.29 44.95 77.14 44.81 77.02 44.66 76.92 44.51 76.83 44.35 76.76 44.19 76.7 44.02 76.66 43.85 76.63 43.68 76.61 43.5 76.59 43.34 76.59 43.17 76.61 42.87 76.65 42.59 76.72 42.33 76.82 42.07 76.93 41.83 77.08 41.61 77.23 41.4 77.41 41.2 77.61 41.03 77.81 40.87 78.03 40.73 78.27 40.6 78.5 40.5 78.75 40.41 79 40.35 79.26 40.3 79.28 40.3 79.31 40.29 79.37 40.29 79.44 40.28 79.54 40.26 79.65 40.26 79.76 40.24 79.88 40.23 80.01 40.21 80.15 40.2 80.28 40.19 80.41 40.17 80.53 40.16 80.64 40.16 80.74 40.15 80.83 40.15 81.01 40.15 81.19 40.16 81.36 40.16 81.53 40.16 81.68 40.17 81.8 40.18 81.86 40.19 81.9 40.19 81.91 40.13 81.94 40 81.96 39.84 81.97 39.69 81.94 39.53 81.88 39.37 81.78 39.24 81.67 39.12 81.53 39.03 81.37 38.96 81.2 38.91 81.02 38.9 80.81 38.89 80.58 38.88 80.35 38.88 80.1 38.89 79.85 38.91 79.61 38.93 79.37 38.95 79.13 38.98 78.9 39.01 78.69 39.05 78.49 39.09 78.31 39.12 78.14 39.17 78 39.22 77.89 39.27 77.81 39.31 78.34 37.48 78.51 37.42 78.69 37.36 78.86 37.3 79.04 37.26 79.23 37.23 79.42 37.2 79.62 37.17 79.82 37.15 80.04 37.14 80.26 37.13 80.48 37.12 80.71 37.12 80.95 37.12 81.19 37.12 81.45 37.13 81.71 37.14 81.92 37.15 82.15 37.19 82.38 37.24 82.63 37.31 82.86 37.4 83.09 37.51 83.32 37.64 83.53 37.78 83.73 37.95 83.9 38.13 84.05 38.33 84.17 38.56 84.25 38.81 84.3 39.06 84.3 39.35 84.27 39.66 83.47 43.66 83.47 43.66 83.47 43.66" fill="#fff" fill-rule="evenodd"/><polygon points="83.16 45.4 83.2 45.36 83.51 43.67 83.42 43.66 83.11 45.34 83.16 45.3 83.16 45.4 83.19 45.39 83.2 45.36 83.16 45.4 83.16 45.4 83.16 45.4" fill="#fff" fill-rule="evenodd"/><polygon points="81.2 45.35 81.25 45.4 83.16 45.4 83.16 45.3 81.25 45.3 81.3 45.35 81.2 45.35 81.2 45.4 81.25 45.4 81.2 45.35 81.2 45.35 81.2 45.35" fill="#fff" fill-rule="evenodd"/><polygon points="81.33 44.5 81.26 44.44 81.23 44.56 81.22 44.77 81.22 45.04 81.2 45.35 81.3 45.35 81.31 45.04 81.33 44.77 81.32 44.56 81.32 44.5 81.25 44.44 81.33 44.5 81.33 44.5 81.33 44.5" fill="#fff" fill-rule="evenodd"/><polygon points="78.37 45.47 78.37 45.47 78.59 45.5 78.79 45.52 79 45.52 79.22 45.5 79.44 45.47 79.66 45.43 79.87 45.37 80.08 45.31 80.27 45.23 80.47 45.14 80.65 45.05 80.81 44.95 80.97 44.84 81.11 44.73 81.23 44.61 81.33 44.5 81.25 44.44 81.15 44.55 81.05 44.66 80.91 44.77 80.77 44.87 80.61 44.96 80.42 45.05 80.24 45.14 80.05 45.22 79.85 45.28 79.64 45.34 79.43 45.38 79.22 45.41 79 45.42 78.79 45.43 78.59 45.41 78.39 45.38 78.39 45.38 78.37 45.47 78.37 45.47 78.37 45.47" fill="#fff" fill-rule="evenodd"/><polygon points="76.54 43.17 76.54 43.17 76.54 43.34 76.56 43.5 76.58 43.69 76.61 43.86 76.65 44.03 76.71 44.2 76.78 44.38 76.88 44.54 76.98 44.7 77.11 44.84 77.26 44.98 77.43 45.11 77.63 45.23 77.85 45.33 78.1 45.4 78.37 45.47 78.39 45.38 78.12 45.31 77.88 45.23 77.67 45.14 77.48 45.03 77.32 44.91 77.18 44.78 77.06 44.63 76.95 44.49 76.87 44.33 76.8 44.17 76.74 44.01 76.7 43.85 76.67 43.67 76.65 43.5 76.64 43.34 76.64 43.17 76.64 43.17 76.54 43.17 76.54 43.17 76.54 43.17" fill="#fff" fill-rule="evenodd"/><polygon points="79.26 40.26 79.26 40.26 79 40.3 78.74 40.37 78.49 40.45 78.25 40.56 78.01 40.68 77.78 40.83 77.58 40.99 77.38 41.17 77.2 41.36 77.04 41.58 76.89 41.8 76.77 42.05 76.67 42.31 76.61 42.59 76.56 42.87 76.54 43.17 76.64 43.17 76.65 42.87 76.7 42.6 76.77 42.34 76.86 42.09 76.98 41.85 77.11 41.64 77.27 41.42 77.44 41.23 77.64 41.07 77.84 40.91 78.05 40.77 78.29 40.65 78.52 40.54 78.77 40.46 79.01 40.39 79.26 40.35 79.26 40.35 79.26 40.26 79.26 40.26 79.26 40.26" fill="#fff" fill-rule="evenodd"/><polygon points="80.83 40.1 80.83 40.1 80.74 40.1 80.64 40.11 80.53 40.12 80.41 40.13 80.28 40.14 80.15 40.15 80.01 40.16 79.88 40.18 79.76 40.2 79.65 40.21 79.54 40.22 79.44 40.23 79.37 40.24 79.31 40.25 79.28 40.26 79.26 40.26 79.26 40.35 79.28 40.35 79.32 40.34 79.37 40.33 79.44 40.32 79.54 40.31 79.65 40.3 79.76 40.29 79.88 40.27 80.01 40.26 80.15 40.24 80.28 40.23 80.41 40.22 80.53 40.21 80.64 40.2 80.74 40.2 80.83 40.2 80.83 40.2 80.83 40.1 80.83 40.1 80.83 40.1" fill="#fff" fill-rule="evenodd"/><polygon points="81.85 40.18 81.9 40.14 81.86 40.14 81.8 40.13 81.68 40.13 81.53 40.11 81.36 40.11 81.19 40.11 81.01 40.1 80.83 40.1 80.83 40.2 81.01 40.2 81.19 40.2 81.36 40.22 81.53 40.22 81.68 40.22 81.8 40.23 81.86 40.23 81.9 40.23 81.94 40.2 81.9 40.23 81.94 40.24 81.94 40.2 81.85 40.18 81.85 40.18 81.85 40.18" fill="#fff" fill-rule="evenodd"/><polygon points="81.93 39.69 81.92 39.69 81.91 39.84 81.89 39.99 81.86 40.13 81.85 40.18 81.94 40.2 81.96 40.14 81.98 40 82 39.84 82.02 39.69 82.02 39.69 81.93 39.69 81.93 39.69 81.93 39.69" fill="#fff" fill-rule="evenodd"/><polygon points="81.02 38.94 81.02 38.95 81.2 38.96 81.36 39 81.51 39.07 81.64 39.16 81.74 39.27 81.83 39.4 81.9 39.53 81.93 39.69 82.02 39.69 81.99 39.52 81.93 39.35 81.82 39.21 81.7 39.09 81.56 38.98 81.39 38.91 81.21 38.87 81.02 38.84 81.02 38.85 81.02 38.94 81.02 38.94 81.02 38.94" fill="#fff" fill-rule="evenodd"/><polygon points="77.77 39.31 77.84 39.35 77.92 39.31 78.02 39.26 78.15 39.22 78.31 39.17 78.5 39.13 78.69 39.09 78.91 39.06 79.13 39.03 79.37 38.99 79.61 38.97 79.85 38.95 80.1 38.94 80.35 38.94 80.58 38.94 80.81 38.94 81.02 38.94 81.02 38.85 80.81 38.84 80.58 38.83 80.35 38.83 80.1 38.84 79.85 38.86 79.61 38.88 79.37 38.91 79.13 38.94 78.9 38.96 78.68 39 78.48 39.04 78.3 39.08 78.13 39.12 77.99 39.17 77.87 39.22 77.78 39.28 77.86 39.32 77.77 39.31 77.77 39.31 77.77 39.31" fill="#fff" fill-rule="evenodd"/><polygon points="78.33 37.44 78.3 37.48 77.77 39.31 77.86 39.32 78.39 37.49 78.36 37.53 78.33 37.44 78.31 37.45 78.3 37.48 78.33 37.44 78.33 37.44 78.33 37.44" fill="#fff" fill-rule="evenodd"/><polygon points="81.71 37.09 81.71 37.09 81.45 37.08 81.19 37.07 80.95 37.07 80.71 37.07 80.48 37.07 80.26 37.08 80.04 37.09 79.82 37.11 79.62 37.12 79.41 37.15 79.22 37.18 79.03 37.22 78.85 37.26 78.67 37.31 78.5 37.37 78.33 37.44 78.36 37.53 78.53 37.46 78.7 37.4 78.87 37.35 79.05 37.31 79.24 37.27 79.43 37.24 79.62 37.21 79.82 37.2 80.04 37.18 80.26 37.17 80.48 37.17 80.71 37.17 80.95 37.17 81.19 37.17 81.45 37.18 81.71 37.18 81.71 37.18 81.71 37.09 81.71 37.09 81.71 37.09" fill="#fff" fill-rule="evenodd"/><polygon points="84.31 39.66 84.31 39.66 84.35 39.35 84.35 39.06 84.3 38.8 84.21 38.55 84.09 38.31 83.94 38.1 83.75 37.91 83.57 37.74 83.35 37.6 83.12 37.46 82.88 37.36 82.64 37.26 82.39 37.2 82.15 37.14 81.92 37.11 81.71 37.09 81.71 37.18 81.92 37.2 82.14 37.23 82.37 37.29 82.61 37.36 82.84 37.45 83.07 37.55 83.3 37.67 83.5 37.82 83.69 37.98 83.86 38.16 84.01 38.36 84.12 38.58 84.2 38.81 84.26 39.06 84.26 39.35 84.22 39.65 84.22 39.65 84.31 39.66 84.31 39.66 84.31 39.66" fill="#fff" fill-rule="evenodd"/><polygon points="83.51 43.67 83.51 43.67 84.31 39.66 84.22 39.65 83.42 43.66 83.42 43.66 83.51 43.67 83.51 43.67 83.51 43.67" fill="#fff" fill-rule="evenodd"/><polygon points="81.63 41.68 81.61 41.64 81.59 41.6 81.53 41.58 81.46 41.55 81.37 41.55 81.27 41.54 81.16 41.54 81.05 41.55 80.92 41.56 80.8 41.58 80.68 41.59 80.57 41.61 80.45 41.63 80.36 41.65 80.26 41.67 80.18 41.68 80.13 41.69 80.07 41.71 79.99 41.74 79.91 41.77 79.81 41.81 79.72 41.86 79.61 41.91 79.51 41.98 79.41 42.05 79.31 42.13 79.23 42.21 79.15 42.31 79.08 42.42 79.03 42.53 78.98 42.65 78.96 42.78 78.95 43.04 78.99 43.25 79.05 43.4 79.14 43.51 79.25 43.59 79.38 43.63 79.51 43.66 79.64 43.66 79.87 43.66 80.08 43.63 80.28 43.59 80.45 43.54 80.62 43.48 80.77 43.41 80.9 43.34 81.02 43.25 81.13 43.16 81.22 43.06 81.3 42.97 81.37 42.87 81.42 42.78 81.46 42.69 81.49 42.6 81.52 42.52 81.55 42.3 81.59 42.09 81.61 41.87 81.63 41.68 81.63 41.68 81.63 41.68" fill="#fbb231" fill-rule="evenodd"/><polygon points="97.27 44.31 97.28 44.13 97.34 43.93 97.45 43.75 97.58 43.59 97.74 43.46 97.92 43.37 98.12 43.31 98.33 43.28 98.54 43.31 98.74 43.37 98.92 43.46 99.08 43.59 99.21 43.75 99.32 43.93 99.38 44.13 99.39 44.31 99.17 44.31 99.16 44.17 99.11 44.01 99.04 43.85 98.94 43.72 98.82 43.62 98.67 43.54 98.5 43.49 98.33 43.47 98.16 43.49 97.99 43.54 97.84 43.62 97.72 43.72 97.62 43.85 97.55 44.01 97.5 44.17 97.49 44.31 97.27 44.31 97.27 44.31 97.27 44.31" fill="#fff" fill-rule="evenodd"/><polygon points="97.95 44.31 97.95 43.85 98.37 43.85 98.46 43.86 98.54 43.88 98.6 43.9 98.66 43.93 98.69 43.98 98.72 44.02 98.74 44.07 98.75 44.13 98.74 44.2 98.72 44.25 98.7 44.29 98.69 44.31 98.37 44.31 98.4 44.3 98.45 44.29 98.5 44.28 98.53 44.26 98.56 44.24 98.58 44.22 98.59 44.18 98.59 44.13 98.59 44.09 98.57 44.06 98.55 44.04 98.53 44.03 98.49 44.02 98.45 44.01 98.41 44.01 98.37 44.01 98.14 44.01 98.14 44.31 97.95 44.31 97.95 44.31 97.95 44.31" fill="#fff" fill-rule="evenodd"/><polygon points="97.27 44.31 97.26 44.35 97.28 44.58 97.34 44.78 97.45 44.96 97.58 45.11 97.74 45.24 97.92 45.34 98.12 45.4 98.33 45.42 98.54 45.4 98.74 45.34 98.92 45.24 99.08 45.11 99.21 44.96 99.32 44.78 99.38 44.58 99.4 44.35 99.39 44.31 99.17 44.31 99.17 44.35 99.16 44.54 99.11 44.7 99.04 44.85 98.94 44.98 98.82 45.08 98.67 45.17 98.5 45.22 98.33 45.23 98.16 45.22 97.99 45.17 97.84 45.08 97.72 44.98 97.62 44.85 97.55 44.7 97.5 44.54 97.49 44.35 97.49 44.31 97.27 44.31 97.27 44.31 97.27 44.31" fill="#fff" fill-rule="evenodd"/><polygon points="97.95 44.31 97.95 44.77 98.14 44.77 98.14 44.39 98.33 44.39 98.56 44.77 98.71 44.77 98.48 44.39 98.53 44.39 98.59 44.38 98.63 44.36 98.67 44.33 98.69 44.31 98.37 44.31 98.33 44.32 98.14 44.32 98.14 44.31 97.95 44.31 97.95 44.31 97.95 44.31" fill="#fff" fill-rule="evenodd"/><path d="M97.26,44.35h0l0-.22.06-.2.11-.18.13-.16.16-.13.18-.09.2-.06.21,0h0l.21,0,.2.06.18.09.16.13.13.16.11.18.06.2,0,.22h0l0,.22-.06.21-.11.18-.13.15-.16.13-.18.1-.2.06-.21,0h0l-.21,0-.2-.06-.18-.1-.16-.13L97.45,45l-.11-.18-.06-.21,0-.22m.88.42H98v-.92h.51l.08,0,.06,0,.06,0,0,0,0,0,0,0v.06h0v.06l0,.06,0,0,0,0,0,0,0,0h-.11l.23.38h-.15l-.23-.38h-.19v.38m.19-.45h0l.07,0h.1l0,0,0,0v0l0,0v0h0v0l0,0,0,0h-.41v.31h.19m0,.91h.17l.17,0,.15-.09.12-.1.1-.13.07-.15,0-.16v-.19h0v-.18l0-.17L99,43.85l-.1-.13-.12-.1-.15-.08-.17,0-.17,0h0l-.17,0-.17,0-.15.08-.12.1-.1.13-.07.15,0,.17v.18h0v.19l0,.16.07.15.1.13.12.1.15.09.17,0h.17" fill="none" stroke="#fff" stroke-miterlimit="2.61" stroke-width="0.22"/><polygon points="84.04 45.35 86.18 45.35 86.18 45.35 86.94 41.03 86.97 40.86 87.02 40.7 87.06 40.53 87.13 40.36 87.2 40.2 87.29 40.03 87.39 39.88 87.51 39.74 87.65 39.61 87.8 39.49 87.98 39.37 88.17 39.28 88.39 39.21 88.64 39.15 88.9 39.1 89.2 39.09 89.31 39.09 89.36 39.09 89.39 39.09 89.39 39.09 89.73 37.14 89.52 37.15 89.31 37.17 89.12 37.21 88.94 37.26 88.77 37.33 88.61 37.4 88.46 37.48 88.32 37.58 88.18 37.68 88.05 37.79 87.93 37.91 87.81 38.03 87.69 38.16 87.58 38.3 87.47 38.44 87.36 38.59 87.59 37.22 85.46 37.22 84.04 45.35 84.04 45.35 84.04 45.35 84.04 45.35" fill="#fff" fill-rule="evenodd"/><polyline points="84.04 45.35 86.18 45.35 86.18 45.35 86.94 41.03 86.94 41.03 86.97 40.86 87.02 40.7 87.06 40.53 87.13 40.36 87.2 40.2 87.29 40.03 87.39 39.88 87.51 39.74 87.65 39.61 87.8 39.49 87.98 39.37 88.17 39.28 88.39 39.21 88.64 39.15 88.9 39.1 89.2 39.09 89.2 39.09 89.31 39.09 89.36 39.09 89.39 39.09 89.39 39.09 89.73 37.14 89.73 37.14 89.52 37.15 89.31 37.17 89.12 37.21 88.94 37.26 88.77 37.33 88.61 37.4 88.46 37.48 88.32 37.58 88.18 37.68 88.05 37.79 87.93 37.91 87.81 38.03 87.69 38.16 87.58 38.3 87.47 38.44 87.36 38.59 87.59 37.22 85.46 37.22 84.04 45.35 84.04 45.35" fill="none" stroke="#fff" stroke-miterlimit="2.61" stroke-width="0.22"/><polygon points="63.94 45.35 66.08 45.35 66.11 45.35 66.84 41.03 66.87 40.86 66.91 40.7 66.95 40.54 67 40.39 67.06 40.24 67.14 40.1 67.23 39.96 67.34 39.83 67.46 39.72 67.59 39.6 67.76 39.51 67.94 39.43 68.16 39.36 68.39 39.3 68.65 39.26 68.94 39.24 68.97 39.24 69 39.25 69.04 39.25 69.08 39.25 69.11 39.26 69.14 39.27 69.17 39.28 69.17 39.28 69.18 39.25 69.2 39.16 69.23 39.02 69.27 38.85 69.33 38.65 69.38 38.44 69.45 38.23 69.52 38.02 69.58 37.87 69.65 37.73 69.73 37.58 69.8 37.45 69.87 37.34 69.92 37.25 69.96 37.2 69.98 37.17 69.97 37.17 69.94 37.17 69.9 37.16 69.85 37.15 69.8 37.15 69.74 37.14 69.68 37.14 69.63 37.14 69.39 37.15 69.18 37.17 68.98 37.21 68.8 37.26 68.63 37.32 68.47 37.4 68.32 37.47 68.19 37.56 68.06 37.66 67.94 37.77 67.82 37.89 67.71 38.02 67.59 38.15 67.49 38.29 67.38 38.44 67.26 38.59 67.53 37.22 65.36 37.22 63.94 45.35 63.94 45.35 63.94 45.35 63.94 45.35" fill="#fff" fill-rule="evenodd"/><polyline points="63.94 45.35 66.08 45.35 66.11 45.35 66.84 41.03 66.84 41.03 66.87 40.86 66.91 40.7 66.95 40.54 67 40.39 67.06 40.24 67.14 40.1 67.23 39.96 67.34 39.83 67.46 39.72 67.59 39.6 67.76 39.51 67.94 39.43 68.16 39.36 68.39 39.3 68.65 39.26 68.94 39.24 68.94 39.24 68.97 39.24 69 39.25 69.04 39.25 69.08 39.25 69.11 39.26 69.14 39.27 69.17 39.28 69.17 39.28 69.17 39.28 69.18 39.25 69.2 39.16 69.23 39.02 69.27 38.85 69.33 38.65 69.38 38.44 69.45 38.23 69.52 38.02 69.52 38.02 69.58 37.87 69.65 37.73 69.73 37.58 69.8 37.45 69.87 37.34 69.92 37.25 69.96 37.2 69.98 37.17 69.98 37.17 69.97 37.17 69.94 37.17 69.9 37.16 69.85 37.15 69.8 37.15 69.74 37.14 69.68 37.14 69.63 37.14 69.63 37.14 69.39 37.15 69.18 37.17 68.98 37.21 68.8 37.26 68.63 37.32 68.47 37.4 68.32 37.47 68.19 37.56 68.06 37.66 67.94 37.77 67.82 37.89 67.71 38.02 67.59 38.15 67.49 38.29 67.38 38.44 67.26 38.59 67.53 37.22 65.36 37.22 63.94 45.35 63.94 45.35" fill="none" stroke="#fff" stroke-miterlimit="2.61" stroke-width="0.22"/><polygon points="97.28 53.33 97.28 53.3 97.34 53.11 97.45 52.93 97.58 52.78 97.74 52.66 97.92 52.57 98.12 52.52 98.33 52.49 98.54 52.52 98.74 52.57 98.92 52.66 99.08 52.78 99.21 52.93 99.32 53.11 99.38 53.3 99.38 53.33 99.16 53.33 99.11 53.18 99.04 53.03 98.94 52.9 98.82 52.8 98.67 52.71 98.5 52.66 98.33 52.64 98.16 52.66 97.99 52.71 97.84 52.8 97.72 52.9 97.62 53.03 97.55 53.18 97.5 53.33 97.28 53.33 97.28 53.33 97.28 53.33" fill="#fbb231" fill-rule="evenodd"/><polygon points="97.95 53.33 97.95 53.07 98.37 53.07 98.46 53.07 98.54 53.08 98.6 53.1 98.66 53.13 98.69 53.17 98.72 53.21 98.74 53.27 98.75 53.33 98.59 53.33 98.59 53.3 98.59 53.26 98.57 53.23 98.55 53.21 98.53 53.2 98.49 53.19 98.45 53.18 98.41 53.18 98.37 53.18 98.14 53.18 98.14 53.33 97.95 53.33 97.95 53.33 97.95 53.33" fill="#fbb231" fill-rule="evenodd"/><polygon points="97.26 53.5 97.28 53.33 97.5 53.33 97.5 53.34 97.49 53.5 97.26 53.5 97.26 53.5 97.26 53.5" fill="#fbb231" fill-rule="evenodd"/><polygon points="97.95 53.5 97.95 53.33 98.14 53.33 98.14 53.49 98.33 53.49 98.4 53.47 98.45 53.46 98.5 53.45 98.53 53.43 98.56 53.41 98.58 53.39 98.59 53.35 98.59 53.33 98.75 53.33 98.75 53.33 98.74 53.39 98.72 53.43 98.7 53.47 98.67 53.5 97.95 53.5 97.95 53.5 97.95 53.5" fill="#fbb231" fill-rule="evenodd"/><polygon points="99.17 53.5 99.16 53.34 99.16 53.33 99.38 53.33 99.4 53.5 99.17 53.5 99.17 53.5 99.17 53.5" fill="#fbb231" fill-rule="evenodd"/><polygon points="97.26 53.5 97.26 53.52 97.28 53.74 97.34 53.95 97.45 54.13 97.58 54.29 97.74 54.42 97.92 54.51 98.12 54.57 98.33 54.59 98.54 54.57 98.74 54.51 98.92 54.42 99.08 54.29 99.21 54.13 99.32 53.95 99.38 53.74 99.4 53.52 99.4 53.5 99.17 53.5 99.17 53.52 99.16 53.71 99.11 53.87 99.04 54.02 98.94 54.15 98.82 54.25 98.67 54.34 98.5 54.39 98.33 54.41 98.16 54.39 97.99 54.34 97.84 54.25 97.72 54.15 97.62 54.02 97.55 53.87 97.5 53.71 97.49 53.52 97.49 53.5 97.26 53.5 97.26 53.5 97.26 53.5" fill="#fbb231" fill-rule="evenodd"/><polygon points="97.95 53.5 97.95 53.94 98.14 53.94 98.14 53.56 98.33 53.56 98.56 53.94 98.71 53.94 98.48 53.56 98.53 53.56 98.59 53.55 98.63 53.53 98.67 53.5 98.67 53.5 97.95 53.5 97.95 53.5 97.95 53.5" fill="#fbb231" fill-rule="evenodd"/><path d="M64.17,39.64l-.06-.45L64,38.78l-.15-.35-.19-.3-.22-.26-.25-.21-.28-.18-.29-.14-.31-.11L62,37.15l-.31,0-.31,0h-.3l-.61,0-.55.09-.49.14-.44.19-.38.23-.34.25-.29.29-.25.31-.21.31-.17.34-.14.33-.11.32-.09.32-.06.3,0,.28,0,.24,0,.62,0,.56.09.51.12.45.19.4.22.35.25.31.3.26.32.22.34.19.36.15.37.11.38.09.38,0,.38,0H62l.16,0h.15l.14,0,.13,0,.12,0,.12,0,.12,0,.11,0,.12,0,.12-.07.12-.06.31-1.86-.22.13-.21.12-.22.09-.22.08-.2.07-.21,0-.21,0-.2,0-.21,0h-.6l-.2,0-.19,0-.19,0-.2,0-.15,0-.15-.06L60,43.44l-.13-.09-.14-.09-.12-.11L59.46,43l-.1-.13-.09-.12-.08-.15-.07-.14,0-.14,0-.14v-.28l0-.1H64l0-.46.12-.64.05-.57Zm-2.06.7H59.34l0-.1,0-.16,0-.16.06-.15.07-.13.06-.13.09-.13.09-.11.1-.11.1-.09.11-.08.11-.07.13-.06.13,0,.13,0,.14,0h.14l.14,0,.13,0,.12,0,.12,0,.11.06.12.07.1.07.09.09.07.11.08.11.05.13.06.15,0,.15v.35Z" fill="#fff" fill-rule="evenodd"/></svg>