<svg xmlns="http://www.w3.org/2000/svg" viewBox="0 0 126.43 79.39"><title>paypal</title><rect x="0.5" y="0.5" width="125.43" height="78.39" rx="5" fill="#f9f9f9" stroke="gray" stroke-miterlimit="10"/><path d="M87.37,35.46a8,8,0,0,0-3.73-.66,16.67,16.67,0,0,0-2.53.19c-.62.1-.68.11-1.07.2a1.23,1.23,0,0,0-.92,1l-.25,1.05c-.14.67.24.64.41.59a9.21,9.21,0,0,1,1.24-.37,9,9,0,0,1,2-.27,5.08,5.08,0,0,1,1.89.27,1,1,0,0,1,.63,1,.56.56,0,0,1,0,.29.31.31,0,0,1-.3.19c-1.19.07-2,.18-3.08.33a9.79,9.79,0,0,0-2.65.73,4.07,4.07,0,0,0-1.8,1.42,3.85,3.85,0,0,0-.6,2.18,2.56,2.56,0,0,0,.85,2,3.23,3.23,0,0,0,2.21.75,5.6,5.6,0,0,0,1.31-.12,7,7,0,0,0,1-.34,5.05,5.05,0,0,0,.86-.48l.79-.52h0l-.08.34h0a.63.63,0,0,0,.56.79h2a1.09,1.09,0,0,0,.9-.78l1.52-6.58a2.8,2.8,0,0,0,.08-.54c0-.21,0-.38,0-.51A2.2,2.2,0,0,0,87.37,35.46ZM83.68,43.3a5.34,5.34,0,0,1-.82.43,3.09,3.09,0,0,1-1.09.23,2.39,2.39,0,0,1-1.19-.23.82.82,0,0,1-.41-.78,1.63,1.63,0,0,1,.3-1,2.22,2.22,0,0,1,.9-.6A7.79,7.79,0,0,1,82.74,41c.48-.06,1.42-.17,1.54-.17s.2-.06.15.26c0,.14-.3,1.25-.42,1.76A1.05,1.05,0,0,1,83.68,43.3Z" fill="#369"/><path d="M61.14,34.94a1.76,1.76,0,0,0-1.31.8s-3,5.13-3.29,5.64c-.16.28-.32.1-.35,0l-.92-5.61A1.15,1.15,0,0,0,54.12,35H52.26a.62.62,0,0,0-.63.79s1.42,8.09,1.7,10c.14,1,0,1.24,0,1.24L51.47,50.2c-.27.44-.12.8.32.8H54a1.76,1.76,0,0,0,1.31-.79l8.31-14.07s.8-1.2.06-1.19c-.5,0-2.5,0-2.5,0" fill="#036"/><path d="M34.88,37.8a4.39,4.39,0,0,1-2.64.69h-.51a.62.62,0,0,1-.63-.8l.63-2.7a1.06,1.06,0,0,1,1-.8h.69a3.23,3.23,0,0,1,1.81.41,1.36,1.36,0,0,1,.6,1.24,2.26,2.26,0,0,1-.94,2m4.51-4.17a3.09,3.09,0,0,0-1.15-1.23,5.12,5.12,0,0,0-1.81-.67,14.56,14.56,0,0,0-2.46-.2H29.61a1.07,1.07,0,0,0-1,.79L25.67,45.11a.62.62,0,0,0,.63.8h2.09a1.07,1.07,0,0,0,1-.8l.72-3.1a1,1,0,0,1,1-.79h.6a10,10,0,0,0,6-1.57,4.91,4.91,0,0,0,2.13-4.14,3.93,3.93,0,0,0-.4-1.88" fill="#036"/><path d="M72.79,37.85a4.37,4.37,0,0,1-2.63.69h-.52a.63.63,0,0,1-.64-.8L69.63,35a1.06,1.06,0,0,1,1-.79h.69a3.39,3.39,0,0,1,1.81.41,1.39,1.39,0,0,1,.61,1.24,2.29,2.29,0,0,1-.94,2m4.51-4.18a3.3,3.3,0,0,0-1.15-1.23,5.18,5.18,0,0,0-1.82-.67,14.52,14.52,0,0,0-2.45-.19H67.51a1.1,1.1,0,0,0-1,.8L63.58,45.16a.61.61,0,0,0,.62.79h2.1a1.1,1.1,0,0,0,1-.79l.71-3.1a1.06,1.06,0,0,1,1-.79h.6a9.87,9.87,0,0,0,6-1.58,4.91,4.91,0,0,0,2.12-4.14,4.06,4.06,0,0,0-.39-1.88" fill="#369"/><path d="M49.45,35.45a8,8,0,0,0-3.73-.66,16.67,16.67,0,0,0-2.53.19c-.62.1-.68.11-1.07.2a1.21,1.21,0,0,0-.91,1l-.26,1c-.14.68.24.65.41.6a9.72,9.72,0,0,1,1.24-.37,9.1,9.1,0,0,1,2-.27,5,5,0,0,1,1.89.27,1,1,0,0,1,.63.95.54.54,0,0,1,0,.29c0,.09-.1.17-.3.19-1.19.07-2,.18-3.08.33a9.79,9.79,0,0,0-2.65.73,4.13,4.13,0,0,0-1.8,1.42,3.92,3.92,0,0,0-.59,2.18,2.56,2.56,0,0,0,.85,2,3.23,3.23,0,0,0,2.2.75A5.6,5.6,0,0,0,43,46.12a7.5,7.5,0,0,0,1-.34,6,6,0,0,0,.86-.48l.78-.52h0l-.07.34h0a.62.62,0,0,0,.56.78h2a1.07,1.07,0,0,0,.89-.78l1.53-6.59A3.6,3.6,0,0,0,50.6,38a3.64,3.64,0,0,0,0-.51A2.2,2.2,0,0,0,49.45,35.45Zm-3.69,7.84a4.92,4.92,0,0,1-.82.43,3,3,0,0,1-1.09.23,2.39,2.39,0,0,1-1.19-.23.82.82,0,0,1-.41-.78,1.59,1.59,0,0,1,.31-1,2.12,2.12,0,0,1,.89-.6A8,8,0,0,1,44.82,41l1.54-.17c.12,0,.2-.06.15.26,0,.14-.3,1.25-.42,1.76A1.05,1.05,0,0,1,45.76,43.29Z" fill="#036"/><path d="M94.57,31.69H92.7a1.08,1.08,0,0,0-1,.72s0,.05,0,.07l-.1.46L89,44.65l-.11.5h0a.62.62,0,0,0,.55.78h2a1.08,1.08,0,0,0,1-.73s0,0,0-.06l2.8-12.67h0A.62.62,0,0,0,94.57,31.69Z" fill="#369"/><path d="M97.4,34.26l-.2.05H97a.62.62,0,0,1-.47-.16.76.76,0,0,1-.16-.54V32.54h-.23v-.29h.23v-.58h.34v.58h.7v.29h-.7v.92a1.7,1.7,0,0,0,0,.25.31.31,0,0,0,.05.17.2.2,0,0,0,.11.11.55.55,0,0,0,.21,0l.18,0,.13,0h0Z" fill="#369"/><path d="M100.79,34.28h-.35V33.13a2.26,2.26,0,0,0,0-.26.48.48,0,0,0-.05-.19.34.34,0,0,0-.12-.12.47.47,0,0,0-.23,0,.58.58,0,0,0-.28.07,2.29,2.29,0,0,0-.29.18.34.34,0,0,0,0,.1v1.41h-.34V33.13c0-.09,0-.18,0-.26a.74.74,0,0,0-.05-.19.34.34,0,0,0-.12-.12.5.5,0,0,0-.23,0,.61.61,0,0,0-.28.07,1.47,1.47,0,0,0-.28.18v1.51h-.34v-2h.34v.23a1.46,1.46,0,0,1,.32-.21.81.81,0,0,1,.34-.08.65.65,0,0,1,.35.09.56.56,0,0,1,.22.24,1.72,1.72,0,0,1,.37-.25,1,1,0,0,1,.37-.08.57.57,0,0,1,.49.21.85.85,0,0,1,.17.56Z" fill="#369"/></svg>