<svg xmlns="http://www.w3.org/2000/svg" viewBox="0 0 75.16 19.43"><path d="M61.73,3.89A8,8,0,0,0,58,3.23a16.39,16.39,0,0,0-2.53.19c-.62.1-.68.11-1.07.2a1.23,1.23,0,0,0-.92,1l-.25,1c-.14.67.24.64.41.59a10.64,10.64,0,0,1,3.24-.64,5.07,5.07,0,0,1,1.89.27,1,1,0,0,1,.63,1,.71.71,0,0,1,0,.29.3.3,0,0,1-.3.19c-1.19.07-2,.18-3.08.33a9.65,9.65,0,0,0-2.65.73,4,4,0,0,0-1.8,1.42A3.75,3.75,0,0,0,51,12a2.54,2.54,0,0,0,.85,2,3.21,3.21,0,0,0,2.21.75,5.76,5.76,0,0,0,1.31-.12,7.36,7.36,0,0,0,1-.34,4.84,4.84,0,0,0,.86-.48l.79-.52h0l-.08.34h0a.63.63,0,0,0,.44.77l.12,0h2a1.08,1.08,0,0,0,.9-.78l1.52-6.58A3.35,3.35,0,0,0,63,6.55V6A2.21,2.21,0,0,0,61.73,3.89ZM58,11.73a5.34,5.34,0,0,1-.82.43,3.17,3.17,0,0,1-1.09.23,2.33,2.33,0,0,1-1.19-.23.81.81,0,0,1-.41-.78,1.56,1.56,0,0,1,.3-1,2.13,2.13,0,0,1,.9-.6,7.06,7.06,0,0,1,1.37-.35c.48-.06,1.42-.17,1.54-.17s.2-.06.15.26c0,.14-.3,1.25-.42,1.76A1.06,1.06,0,0,1,58,11.73Z" style="fill:#369"/><path d="M35.5,3.37a1.75,1.75,0,0,0-1.31.8s-3,5.13-3.29,5.64c-.16.28-.32.1-.35,0L29.63,4.2a1.16,1.16,0,0,0-1.15-.77H26.62A.63.63,0,0,0,26,4a.75.75,0,0,0,0,.2s1.42,8.09,1.7,10c.14,1,0,1.24,0,1.24l-1.86,3.17c-.27.44-.12.8.32.8h2.21a1.78,1.78,0,0,0,1.31-.79L38,4.57s.8-1.2.06-1.19h-2.5" style="fill:#036"/><path d="M9.24,6.23a4.41,4.41,0,0,1-2.64.69H6.09a.62.62,0,0,1-.66-.58.78.78,0,0,1,0-.22l.63-2.7a1,1,0,0,1,1-.8h.69A3.27,3.27,0,0,1,9.59,3a1.36,1.36,0,0,1,.6,1.24,2.28,2.28,0,0,1-.94,2M13.76,2.1A3.09,3.09,0,0,0,12.61.87,5.15,5.15,0,0,0,10.8.2,14.58,14.58,0,0,0,8.34,0H4A1.07,1.07,0,0,0,3,.79L0,13.54a.61.61,0,0,0,.41.77.53.53,0,0,0,.22,0H2.75a1.08,1.08,0,0,0,1-.8l.72-3.1a1,1,0,0,1,1-.79h.6a10,10,0,0,0,6-1.57A4.91,4.91,0,0,0,14.2,3.94a4.06,4.06,0,0,0-.4-1.88" style="fill:#036"/><path d="M47.15,6.28A4.38,4.38,0,0,1,44.52,7H44a.64.64,0,0,1-.67-.6.75.75,0,0,1,0-.2L44,3.43a1.06,1.06,0,0,1,1-.79h.69a3.47,3.47,0,0,1,1.81.41,1.4,1.4,0,0,1,.61,1.24,2.31,2.31,0,0,1-.94,2m4.51-4.18A3.31,3.31,0,0,0,50.52.88,5.2,5.2,0,0,0,48.7.21,14.37,14.37,0,0,0,46.25,0H41.87a1.1,1.1,0,0,0-1,.8L37.94,13.59a.61.61,0,0,0,.4.76.53.53,0,0,0,.22,0h2.1a1.1,1.1,0,0,0,1-.79l.71-3.1a1.06,1.06,0,0,1,1-.79H44a9.87,9.87,0,0,0,6-1.58A4.94,4.94,0,0,0,52.09,4,4.07,4.07,0,0,0,51.7,2.1" style="fill:#369"/><path d="M23.81,3.88a8,8,0,0,0-3.73-.66,16.39,16.39,0,0,0-2.53.19c-.62.1-.68.11-1.07.2a1.21,1.21,0,0,0-.91,1l-.26,1c-.14.68.24.65.41.6A10.42,10.42,0,0,1,17,5.84a9.54,9.54,0,0,1,2-.27,5.07,5.07,0,0,1,1.89.27,1,1,0,0,1,.63,1,.71.71,0,0,1,0,.29c0,.09-.1.17-.3.19-1.19.07-2,.18-3.08.33a9.65,9.65,0,0,0-2.65.73,4.12,4.12,0,0,0-1.8,1.42,3.89,3.89,0,0,0-.59,2.18,2.54,2.54,0,0,0,.85,2,3.25,3.25,0,0,0,2.2.75,5.83,5.83,0,0,0,1.25-.13,7.36,7.36,0,0,0,1-.34,7.25,7.25,0,0,0,.86-.48l.78-.52h0l-.07.34h0a.62.62,0,0,0,.43.76l.13,0h2a1.08,1.08,0,0,0,.89-.78L24.91,7A4.75,4.75,0,0,0,25,6.43a4.34,4.34,0,0,0,0-.51A2.21,2.21,0,0,0,23.81,3.88Zm-3.69,7.84a5.34,5.34,0,0,1-.82.43,3.17,3.17,0,0,1-1.09.23A2.33,2.33,0,0,1,17,12.15a.81.81,0,0,1-.41-.78,1.51,1.51,0,0,1,.31-1,2.1,2.1,0,0,1,.89-.6,7.84,7.84,0,0,1,1.37-.34l1.54-.17c.12,0,.2-.06.15.26,0,.14-.3,1.25-.42,1.76A1.11,1.11,0,0,1,20.12,11.72Z" style="fill:#036"/><path d="M68.93.12H67.06a1.08,1.08,0,0,0-1,.72V.91l-.1.46-2.6,11.71-.11.5h0a.62.62,0,0,0,.43.76l.12,0h2a1.09,1.09,0,0,0,1-.73v-.06L69.6.9h0a.62.62,0,0,0-.44-.76A.58.58,0,0,0,68.93.12Z" style="fill:#369"/><path d="M71.76,2.69l-.2.05h-.2a.62.62,0,0,1-.47-.16A.75.75,0,0,1,70.73,2V1H70.5V.68h.23V.1h.34V.68h.7V1h-.7v.92a1,1,0,0,0,0,.25.26.26,0,0,0,.05.17.2.2,0,0,0,.11.11.74.74,0,0,0,.21,0h.31Z" style="fill:#369"/><path d="M75.15,2.71H74.8V1.3a.59.59,0,0,0,0-.19A.34.34,0,0,0,74.63,1a.45.45,0,0,0-.23,0,.53.53,0,0,0-.28.07,1.75,1.75,0,0,0-.29.18.17.17,0,0,0,0,.1V2.75h-.34V1.3a1.05,1.05,0,0,0,0-.19A.34.34,0,0,0,73.32,1a.45.45,0,0,0-.23,0,.53.53,0,0,0-.28.07,1.34,1.34,0,0,0-.28.18V2.75h-.34v-2h.34V1a1.48,1.48,0,0,1,.32-.21.77.77,0,0,1,.34-.08.73.73,0,0,1,.35.09.64.64,0,0,1,.22.24,1.6,1.6,0,0,1,.37-.25A.91.91,0,0,1,74.5.69.55.55,0,0,1,75,.9a.86.86,0,0,1,.17.56Z" style="fill:#369"/></svg>