<svg viewBox="0 0 1e3 320" xmlns="http://www.w3.org/2000/svg">
<g fill="#ee4d2d" fill-rule="evenodd">
<path transform="matrix(5.2632 0 0 5.2632 -5.2629 -10.957)" d="m35.672 44.954c-0.33335 2.7511-2.0003 4.9543-4.5824 6.0576-1.438 0.61459-3.3687 0.94639-4.897 0.84216-2.384-0.09111-4.6238-0.67089-6.6883-1.7307-0.73755-0.37886-1.8371-1.1353-2.6813-1.8438-0.21384-0.179-0.23924-0.29376-0.09774-0.49447 0.0764-0.11518 0.21725-0.32298 0.52862-0.7792 0.45158-0.66165 0.50792-0.7446 0.55871-0.82218 0.14448-0.22177 0.37923-0.24111 0.61078-0.05888 0.02433 0.01891 0.02433 0.01891 0.04268 0.03331 0.03799 0.02944 0.03799 0.02944 0.12762 0.09907 0.0907 0.0707 0.14448 0.11239 0.16625 0.12872 2.2265 1.7439 4.8197 2.7495 7.4376 2.8501 3.6423-0.04964 6.2615-1.6873 6.7308-4.202 0.51603-2.7676-1.6565-5.1583-5.907-6.4908-1.3293-0.41668-4.6895-1.7617-5.3091-2.1251-2.9094-1.7071-4.2697-3.9431-4.0764-6.7049 0.29622-3.8283 3.8502-6.6836 8.3408-6.7027 2.0082-0.0041 4.0121 0.41324 5.9373 1.2245 0.68164 0.28731 1.8987 0.94961 2.3189 1.2634 0.24201 0.17772 0.28981 0.38487 0.1511 0.60836-0.07747 0.12958-0.20552 0.33502-0.47548 0.7633l-3e-3 0.0047c-0.35533 0.56409-0.36643 0.58171-0.44795 0.71366-0.14085 0.21446-0.30646 0.23445-0.56042 0.07328-2.0601-1.3839-4.3438-2.0802-6.8554-2.1304-3.1269 0.06189-5.4706 1.9229-5.6247 4.4579-0.04097 2.2897 1.6764 3.9613 5.3859 5.2358 7.5298 2.4197 10.411 5.2565 9.869 9.7292m-9.2992-39.527c4.9023 0 8.8982 4.6522 9.0852 10.476h-18.17c0.18695-5.8236 4.1829-10.476 9.085-10.476m25.371 11.571c0-0.60471-0.48701-1.0949-1.0875-1.0949h-11.777c-0.28896-7.6893-5.7775-13.821-12.506-13.821-6.7282 0-12.217 6.1313-12.506 13.821l-11.794 2.15e-4c-0.59136 0.01075-1.0675 0.49683-1.0675 1.0947 0 0.02858 0.00107 0.05695 0.0032 0.08488h-0.008323l1.6813 37.061c2.134e-4 0.10315 0.00405 0.20716 0.011738 0.31181 0.00171 0.02364 0.00363 0.04706 0.00555 0.07048l0.00363 0.07822 0.00405 0.0041c0.25545 2.5789 2.1271 4.6561 4.672 4.7519l0.00576 0.0056h37.412c0.01771 2.15e-4 0.03543 4.3e-4 0.05314 4.3e-4s0.03543-2.15e-4 0.05314-4.3e-4h0.0796l0.0017-0.0015c2.5893-0.0707 4.6867-2.1769 4.9083-4.7876l0.0013-0.0013 0.0017-0.03503c0.0021-0.02751 0.0041-0.0548 0.0058-0.0823 0.0041-0.06576 0.0068-0.1313 0.0079-0.19641l1.8345-37.208h-0.0013c0.0011-0.0187 0.0015-0.03761 0.0015-0.05652m124.72 24.155c0.72084-2.3512 2.9004-3.9187 5.4437-3.9187 2.4277 0 4.7391 1.6487 5.5376 3.9142l0.0548 0.1557h-11.083zm13.503 3.4064c0.0149 6.4e-4 0.0149 6.4e-4 0.0369 8.53e-4 0.022-2.13e-4 0.022-2.13e-4 0.0444-8.53e-4 0.53055-0.02432 0.9506-0.47669 0.9506-1.0272 0-0.02666-8.5e-4 -0.04969-3e-3 -0.08659 4.3e-4 -0.0068 4.3e-4 -0.02026 4.3e-4 -0.06356 0-5.1926-4.0708-9.4007-9.0914-9.4007-5.0205 0-9.0912 4.2081-9.0912 9.4007 0 0.38711 0.0224 0.77316 0.0678 1.1569l3e-3 0.02048 0.0141 0.10131c0.25002 1.8684 1.0472 3.5832 2.3063 4.9708-6.4e-4 -6.4e-4 6.4e-4 6.4e-4 7e-3 0.0079 1.396 1.5363 3.2915 2.5833 5.3936 2.9749l0.0275 0.0053v-0.0028l0.13653 0.02282c0.0702 0.01194 0.14421 0.02367 0.2434 0.03903 2.7669 0.33272 5.2212-0.06612 7.2995-1.1127 0.51178-0.25786 0.97193-0.54238 1.3706-0.8429 0.12821-0.09683 0.24362-0.19046 0.34346-0.27812 0.0514-0.04522 0.0924-0.08318 0.11413-0.10515 0.4689-0.48309 0.49812-0.65436 0.21525-1.0954-0.31146-0.49567-0.58623-0.91798-0.82175-1.2676-0.0823-0.12242-0.15402-0.22672-0.21439-0.31332-0.0333-0.04756-0.0333-0.04756-0.0544-0.07764-8e-3 -0.01173-8e-3 -0.01173-0.0139-0.0192l-3e-3 -0.0038c-0.2562-0.31886-0.43156-0.34808-0.71593-0.09705-0.0303 0.02687-0.13162 0.10515-0.14997 0.12456-1.9993 1.7754-4.7295 2.3466-7.4558 1.776-0.50773-0.13629-0.9826-0.30948-1.4199-0.5185-1.7081-0.85655-2.9184-2.3826-3.2676-4.149l-0.0275-0.13949zm-35.136-3.4064c0.72083-2.3512 2.9004-3.9187 5.4437-3.9187 2.4277 0 4.7391 1.6487 5.5378 3.9142l0.0546 0.1557h-11.083zm13.503 3.4064c0.0151 6.4e-4 0.0151 6.4e-4 0.0371 8.53e-4 0.0218-2.13e-4 0.0218-2.13e-4 0.0442-8.53e-4 0.53055-0.02432 0.95059-0.47669 0.95059-1.0272 0-0.02666-8.6e-4 -0.04969-3e-3 -0.08659 4.2e-4 -0.0068 4.2e-4 -0.02026 4.2e-4 -0.06356 0-5.1926-4.0707-9.4007-9.0913-9.4007-5.0202 0-9.0913 4.2081-9.0913 9.4007 0 0.38711 0.0228 0.77316 0.068 1.1569l3e-3 0.02048 0.0141 0.10131c0.25002 1.8684 1.0472 3.5832 2.3063 4.9708-6.4e-4 -6.4e-4 6.4e-4 6.4e-4 7e-3 0.0079 1.396 1.5363 3.2914 2.5833 5.3935 2.9749l0.0275 0.0053v-0.0028l0.13653 0.02282c0.0702 0.01194 0.14421 0.02367 0.24362 0.03903 2.7668 0.33272 5.2212-0.06612 7.2992-1.1127 0.51177-0.25786 0.97191-0.54238 1.3706-0.8429 0.12821-0.09683 0.24362-0.19046 0.34346-0.27812 0.0514-0.04522 0.0924-0.08318 0.11413-0.10515 0.46889-0.48309 0.49811-0.65436 0.21524-1.0954-0.31145-0.49567-0.58622-0.91798-0.82173-1.2676-0.0823-0.12242-0.15402-0.22672-0.21418-0.31332-0.0335-0.04756-0.0335-0.04756-0.0546-0.07764-8e-3 -0.01173-8e-3 -0.01173-0.0139-0.0192l-2e-3 -0.0038c-0.25641-0.31886-0.43177-0.34808-0.71613-0.09705-0.0303 0.02687-0.13163 0.10515-0.14997 0.12456-1.9991 1.7754-4.7294 2.3466-7.4558 1.776-0.50772-0.13629-0.98258-0.30948-1.4199-0.5185-1.7081-0.85655-2.9181-2.3826-3.2673-4.149l-0.0277-0.13949zm-30.013 5.1775c-3.3813 0-6.1468-2.6809-6.2317-6.0404v-0.31622c0.084-3.3542 2.8504-6.0355 6.2317-6.0355 3.4424 0 6.2332 2.7741 6.2332 6.1961 0 3.422-2.7908 6.1961-6.2332 6.1961m2e-3 -15.679c-2.2178 0-4.3368 0.75535-6.0399 2.1408l-0.19352 0.15736v-1.7339c0-0.46238-0.0994-0.5642-0.5674-0.5642h-2.1765c-0.47409 0-0.56761 0.09428-0.56761 0.5642v27.64c0 0.45398 0.10583 0.5642 0.56761 0.5642h2.1765c0.46351 0 0.5674-0.10784 0.5674-0.5642v-11.527l0.19352 0.15736c1.7033 1.3856 3.8224 2.141 6.0399 2.141 5.2714 0 9.5447-4.2479 9.5447-9.488 0-5.2399-4.2733-9.4878-9.5447-9.4878m-22.416 15.467c-3.4495 0-6.2458-2.7497-6.2458-6.1426 0-3.3929 2.7966-6.1428 6.2458-6.1428 3.4488 0 6.2454 2.7499 6.2454 6.1428 0 3.3927-2.7964 6.1426-6.2454 6.1426m2e-3 -15.544c-5.2819 0-9.563 4.2113-9.563 9.4059 0 5.1944 4.2812 9.4059 9.563 9.4059 5.2817 0 9.5624-4.2115 9.5624-9.4059 0-5.1947-4.2805-9.4059-9.5624-9.4059m-21.318 0.2089c-1.9281 0-3.7939 0.6199-5.3418 1.7656l-0.18819 0.13931v-12.837c0-0.42547-0.13958-0.56435-0.565-0.56435h-2.2783c-0.46004 0-0.56521 0.11003-0.56521 0.56435v29.283c0 0.44334 0.11356 0.56478 0.56521 0.56478h2.2783c0.42262 0 0.565-0.14577 0.565-0.56478v-9.5648c0.02366-3.011 2.4931-5.4413 5.53-5.4413 3.0446 0 5.5168 2.4421 5.5297 5.463v9.5431c0 0.48446 0.0806 0.56456 0.56521 0.56456h2.2727c0.48176 0 0.56521-0.08247 0.56521-0.56456v-9.5711c-0.0181-4.8281-4.044-8.7807-8.9328-8.7807m-31.746 13.605-0.0053 0.0082c-0.32487 0.49212-0.46092 0.69914-0.53696 0.81798-0.25609 0.38121-0.22427 0.55111 0.16681 0.8817 0.91266 0.73582 2.0859 1.5085 2.8775 1.8955 2.2023 1.0769 4.581 1.646 7.1018 1.6975 1.6284 0.08216 3.6735-0.30505 5.1964-0.98424 2.757-1.2299 4.5131-3.627 4.8209-6.5795 0.49851-4.7841-2.6143-7.7748-10.632-10.185l-0.0021-6.44e-4c-3.7356-1.2048-5.4905-2.8064-5.4911-5.0426 0.11-2.4715 2.4016-4.3179 5.4933-4.4331 2.4904 0.0062 4.6923 0.6676 6.8557 2.0599 0.45622 0.27674 0.66661 0.22568 0.97332-0.17226 0.03524-0.05878 0.13328-0.20122 0.54337-0.79009l0.0013-0.0019c0.38296-0.55004 0.50898-0.73367 0.54038-0.78795 0.25844-0.48633 0.22149-0.67382-0.24498-1.0046-0.45943-0.32908-1.7536-1.0025-2.4936-1.2979-2.0583-0.8212-4.1863-1.22-6.3043-1.1788-4.8198 0.10469-8.5787 3.2393-8.8265 7.3515-0.1572 2.9703 1.3503 5.3588 4.5001 7.1246 0.88297 0.46616 4.1116 1.6866 5.6184 2.1279 4.2848 1.2548 6.5187 3.563 6.0571 6.2864-0.41927 2.4743-3.0118 4.1199-6.6498 4.2326-2.6382-0.05492-5.2963-1.0218-7.6044-2.7562-0.01153-0.0084-0.07006-0.05192-0.17792-0.13236-0.15165-0.11306-0.15165-0.11306-0.17429-0.13-0.47053-0.32479-0.74734-0.29776-1.0346 0.13022-0.0346 0.05299-0.39193 0.59638-0.56814 0.86325" fill="#ee4d2d"/>
</g>
</svg>
