<svg viewBox="0 0 205 64.274" xmlns="http://www.w3.org/2000/svg">
<g transform="translate(3.1959 -110)">
<path d="m170.45 165.72c-0.99661-0.25435-1.4237-0.70468-1.6407-1.7301-0.12728-0.6014-0.13609-48.884-9e-3 -49.554 0.13439-0.70865 0.39571-1.1657 0.82051-1.4351 0.62148-0.39413 1.0754-0.46335 3.0306-0.46222 2.1328 1e-3 2.5728 0.0942 3.1423 0.66369 0.70231 0.70231 0.66303 0.13378 0.6904 9.9934l0.0242 8.7108 0.69621-0.71959c1.9355-2.0005 4.5567-3.2246 8.0199-3.7453 1.2834-0.19297 3.5549-0.25676 4.9107-0.13793 7.0266 0.61589 10.937 4.3716 11.602 11.142 0.0622 0.6334 0.0831 4.8722 0.0655 13.25l-0.0259 12.319-0.19075 0.47123c-0.44798 1.1067-1.1058 1.3491-3.6616 1.3491-2.5959 0-3.2243-0.24531-3.7021-1.4451-0.13944-0.35018-0.15266-1.1737-0.19822-12.356-0.0522-12.817-0.0356-12.327-0.46135-13.589-0.44234-1.3109-1.3764-2.3904-2.5855-2.9878-1.4071-0.6953-3.3775-1.0134-5.7106-0.92177-1.5333 0.0602-2.6005 0.22899-3.6521 0.57767-2.3324 0.77341-3.9373 2.4946-4.609 4.943-0.45671 1.6647-0.43961 1.2182-0.49598 12.952-0.0589 12.258-0.0157 11.482-0.67588 12.142-0.55739 0.5574-0.88493 0.6275-3.0554 0.65397-1.3368 0.0163-2.0313-9e-3 -2.3283-0.0848zm-25.654 0.90448c-2.9412-0.1894-6.1263-0.74648-8.3539-1.4611-1.6851-0.54061-2.0655-1.0382-2.2133-2.8954-0.11826-1.4864 0.013-3.1299 0.2954-3.699 0.41939-0.84512 1.1182-0.89645 3.7054-0.27219 3.2989 0.796 5.5712 1.0873 9.0721 1.1628 3.4323 0.0741 5.5486-0.15857 6.6767-0.73411 1.2135-0.61909 1.7749-1.9559 1.4135-3.3656-0.16634-0.64882-0.41258-1.0472-0.9669-1.5642-0.90768-0.84656-1.7038-1.2503-7.8229-3.9668-2.5301-1.1232-5.027-2.2521-5.5486-2.5087-2.0178-0.99243-3.6784-2.3011-4.5786-3.6084-0.7146-1.0376-1.071-1.8776-1.3788-3.25-0.23384-1.0424-0.32039-3.4309-0.16814-4.6404 0.67587-5.3695 4.3224-7.9612 11.985-8.5176 1.6649-0.12091 5.0571-0.0516 6.6463 0.13585 2.7905 0.32908 6.0116 1.1949 6.8854 1.8508 0.80744 0.60603 1.1192 2.0579 0.93388 4.3492-0.19557 2.4181-0.65433 2.6196-4.0244 1.7672-2.9704-0.75128-5.7971-1.0519-8.9596-0.95278-3.5795 0.11216-5.0968 0.63005-5.6812 1.9392-0.16272 0.3645-0.19824 0.58846-0.19882 1.2536-8.5e-4 0.74424 0.0217 0.85527 0.27617 1.3722 0.33023 0.67078 0.90523 1.2168 1.8514 1.7582 0.35771 0.20466 3.1312 1.4427 6.1633 2.7511 3.0321 1.3084 5.8873 2.5761 6.3448 2.8169 3.292 1.7331 4.9292 3.7 5.6519 6.7902 0.21567 0.92221 0.30824 3.6616 0.16173 4.7864-0.70233 5.3924-4.4623 8.0776-12.147 8.6754-0.98698 0.0768-4.9707 0.0947-6.0202 0.0271zm-27.051-6.7546c2.2635-0.40981 3.6364-1.2812 4.3408-2.755 0.51237-1.072 0.56986-1.5591 0.56986-4.828v-2.8878l-5.3975 0.0336c-5.2072 0.0324-5.4271 0.0403-6.2384 0.22216-2.3203 0.52023-3.6297 1.5157-4.1889 3.1844-0.15133 0.4516-0.20805 0.84457-0.23831 1.651-0.12119 3.2301 1.373 4.9144 4.8448 5.4609 1.0986 0.17295 5.1951 0.12018 6.3077-0.0813zm-6.5617 6.7151c-2.8114-0.24571-5.4766-0.97287-7.2876-1.9884-1.9208-1.077-3.3932-2.6637-4.1929-4.5184-0.66259-1.5366-0.93713-3.0242-0.93748-5.08 0-1.6428 0.16578-2.8944 0.53887-4.0612 0.82643-2.5845 2.3586-4.3503 4.8518-5.5915 1.688-0.84033 3.4881-1.3341 6.0537-1.6606 0.94919-0.12078 2.1013-0.15125 6.7945-0.17972l5.6515-0.0343v-2.3931c0-2.1061-0.0201-2.4716-0.16725-3.0471-0.55638-2.1754-2.0479-3.3192-5.0569-3.8782-0.91164-0.16934-1.2685-0.18551-4.0892-0.18529-3.344 2.5e-4 -4.515 0.0857-7.0273 0.51286-0.72179 0.12271-1.5661 0.22302-1.8762 0.22291-1.2724-5.1e-4 -1.5953-0.63177-1.5932-3.1151 2e-3 -2.6856 0.4287-3.2804 2.6693-3.723 2.4657-0.48703 5.2119-0.68278 8.5471-0.60924 3.1554 0.0696 5.0308 0.28595 7.1967 0.83033 5.2847 1.3283 8.1722 4.2542 8.9904 9.11 0.1417 0.84089 0.15356 1.6142 0.15356 10.013 0 9.0017-2e-3 9.1128-0.18557 10.118-1.0601 5.8042-5.0376 8.6563-12.929 9.2707-1.2887 0.10034-4.8994 0.0931-6.1049-0.0123zm-26.035 8e-3c-4.9403-0.46261-8.4521-1.84-10.883-4.2687-1.7005-1.6987-2.7157-3.5651-3.3864-6.2258-0.54114-2.1466-0.66315-4.194-0.60738-10.192 0.04472-4.8101 0.09558-5.5653 0.48813-7.2493 0.70845-3.0391 2.2041-5.6666 4.2217-7.4165 1.907-1.654 4.438-2.8579 7.2619-3.4541 1.9153-0.40438 3.0158-0.50573 5.5302-0.50931 2.6548-4e-3 3.4495 0.0852 5.715 0.64023 1.5456 0.37863 2.2494 0.67359 2.6902 1.1274 0.54386 0.55998 0.61184 0.91309 0.61184 3.1776 0 2.214-0.05942 2.5353-0.55699 3.012-0.23215 0.22241-0.32372 0.24984-0.92542 0.27716-0.55175 0.0251-0.82684-0.015-1.5831-0.23039-2.847-0.81091-6.5299-0.99477-9.4228-0.47041-3.2747 0.59357-5.0652 2.1009-5.7977 4.881-0.34872 1.3234-0.38295 1.9677-0.38295 7.2072 0 5.4194 0.04087 6.0548 0.47958 7.4551 0.84998 2.7131 2.6573 4.0999 6.1668 4.732 0.89339 0.16092 1.3276 0.18326 3.5983 0.18515 2.7441 2e-3 3.0213-0.0224 5.334-0.47537 0.75818-0.14849 1.6178-0.26149 2.0357-0.26759 0.90983-0.0133 1.2141 0.13611 1.5203 0.74653 0.20201 0.40265 0.21291 0.5019 0.23891 2.1741 0.03903 2.5104-0.16585 3.1695-1.1735 3.775-0.75678 0.45473-2.4891 0.91909-4.6957 1.2587-1.0029 0.15438-5.2365 0.22648-6.477 0.11032zm-62.484-44.023v-3.4713h-6.7733v6.9427h6.7733zm24.11 8.1492-0.02212-3.4502h-6.7733l-0.02212 3.4502-0.02212 3.4502h6.8618zm-8.0231-0.0212v-3.4713h-6.7733v6.9427h6.7733zm-8.0433 0v-3.4713h-6.7733v6.9427h6.7733zm-8.0433 0v-3.4713h-6.7733v6.9427h6.7733zm-7.8942 0.0212-0.02212-3.4502h-6.7733l-0.02212 3.4502-0.02211 3.4502h6.8618zm7.8942 8.1915v-3.4713h-6.7733v6.9427h6.7733zm0 8.128v-3.4713h-6.7733v6.9427h6.7733zm23.94 8.1492-0.02212-3.4502h-6.7733l-0.04424 6.9003h6.8618zm-23.94-0.0212v-3.4713h-6.7733v6.9427h6.7733zm17.103 8.5513v-3.4713h-6.7733v6.9427h6.7733zm-7.9789-0.0212 0.02212-3.4502h-6.8599v3.4149c0 1.8782 0.02583 3.4407 0.0574 3.4723 0.03157 0.0316 1.5651 0.0474 3.4078 0.0353l3.3504-0.0221zm-4.5518 10.555c-2.7812-0.2354-4.1034-0.43551-6.0548-0.91634-12.355-3.0445-21.855-13.277-23.954-25.802-0.34706-2.071-0.4237-3.0556-0.42403-5.4479-3.27e-4 -2.3232 0.07115-3.2911 0.38448-5.207 0.93717-5.7304 3.464-11.178 7.261-15.654 0.9756-1.1501 2.8935-3.0319 4.0855-4.0088 4.08-3.3437 8.9192-5.6328 14.087-6.6639 2.3923-0.47727 3.2081-0.54866 6.3077-0.55198 2.8864-3e-3 3.2559 0.0232 5.461 0.38855 7.6889 1.274 14.824 5.5009 19.775 11.716 3.6468 4.5773 5.9233 10.025 6.74 16.129 0.19081 1.4261 0.21866 5.9587 0.04526 7.366-0.50378 4.0886-1.5193 7.5034-3.2649 10.979-4.8684 9.6923-14.236 16.222-25.116 17.509-1.0844 0.1282-4.5166 0.23469-5.334 0.1655z" fill="#f01c24" stroke-width=".084667"/>
</g>
</svg>
