<svg xmlns="http://www.w3.org/2000/svg" viewBox="0 0 126.43 79.39"><polygon points="58.22 51.47 52.09 51.47 55.92 27.94 62.05 27.94 58.22 51.47" fill="#0066b2"/><path d="M46.94,27.94,41.1,44.12l-.69-3.48h0L38.34,30.06a2.61,2.61,0,0,0-2.9-2.12H25.78l-.11.4A22.81,22.81,0,0,1,32.08,31L37.4,51.47h6.39l9.74-23.53Z" fill="#0066b2"/><path d="M95.13,51.47h5.63l-4.9-23.53H90.93a2.82,2.82,0,0,0-2.83,1.75L79,51.47h6.39L86.63,48h7.79Zm-6.74-8.32,3.22-8.81,1.81,8.81Z" fill="#0066b2"/><path d="M79.44,33.6l.88-5.06a17.79,17.79,0,0,0-5.51-1c-3,0-10.27,1.33-10.27,7.79,0,6.08,8.48,6.15,8.48,9.35s-7.6,2.62-10.11.6L62,50.55a17.11,17.11,0,0,0,6.91,1.33c4.18,0,10.49-2.17,10.49-8.06,0-6.12-8.55-6.69-8.55-9.35S76.82,32.15,79.44,33.6Z" fill="#0066b2"/><path d="M40.41,40.64,38.34,30.06a2.61,2.61,0,0,0-2.9-2.12H25.78l-.11.4a23.73,23.73,0,0,1,9.09,4.56A18.39,18.39,0,0,1,40.41,40.64Z" fill="#f9a533"/></svg>